<svg xmlns="http://www.w3.org/2000/svg" id="svg26" version="1.0" height="22" width="14">
  <g transform="translate(-15.3 20.927)" id="g838">
    <g id="g14" transform="translate(14.867 -20.618) scale(.33333)">
      <path d="M32.377 3.451c-.387.038-.36.654-.516.966-.558 2.106-.446 4.458-1.738 6.314-2.344 4.19-5.204 8.043-8.375 11.642-4.028 4.648-8.473 8.923-12.393 13.664-.261.34-.43.75-.44 1.183.988.12 1.582-.822 2.322-1.289 3.195-2.673 5.987-5.782 8.834-8.81 3.393-3.767 6.548-7.742 9.88-11.556.623-.537 1.606-.34 1.988.376 1.065 1.514.72 3.46.868 5.196.294 8.049-.014 16.111-.642 24.136-.069 1.579-.293 3.437-1.662 4.45-.429.439-.185 1.105-.238 1.649.159 2.601 1.442 4.95 2.508 7.27.56.91 1.345 1.782 2.42 2.053.765-.5.391-1.519.453-2.262-.616-16.643-.186-33.34-1.285-49.959-.156-1.573-.212-3.314-1.195-4.63-.196-.231-.48-.4-.79-.393z" id="path4" fill="red" stroke-width="1.15"/>
      <path d="M16.899 7.21c-3.286.17-6.202 1.903-9.059 3.361-.784.565-1.768 1.265-1.828 2.31.155.74 1.07.788 1.653.582 3.23-.897 5.896-3.453 9.362-3.518 4.764-.293 9.636 1.762 12.607 5.562 1.43 1.945 2.037 4.727.84 6.941-2.74 6.948-6.8 13.26-10.618 19.645a103.86 103.86 0 01-9.126 12.338c-.423 1.211.463 2.55 1.679 2.82 2.102.695 4.31-.062 6.45.02 5.632-.125 11.237.727 16.69 2.065 1.46-.025 2.951-1.24 2.994-2.747-.055-.855-.9-1.494-1.737-1.372-4.235-.34-8.487-.302-12.694-.91-1.955-.249-3.942-.375-5.86-.839-.904-.51-.593-1.69-.195-2.432.834-1.655 2.027-3.094 3.016-4.655 1.935-2.755 3.8-5.574 5.292-8.598 2.948-5.13 6.47-10.053 8.199-15.774.4-2.589-1.015-5.041-2.634-6.941-2.074-2.454-4.742-4.355-7.55-5.883C22.073 7.997 19.512 7.21 16.9 7.21z" id="path6" fill="#f80" stroke-width="1.15"/>
      <path d="M25.91 13.733c-4.797.017-9.48 1.788-13.387 4.507-.38.276-.618.84-.287 1.247 4.753-.325 8.71-3.714 13.464-3.885 3.05-.085 6.131.908 8.634 2.663.969.734 2.122 1.565 2.319 2.881.5 2.705-1.223 5.346-3.295 6.95-3.332 2.569-7.636 3.033-11.674 3.692-1.321.258-2.69.472-3.921 1.023-.468.367-.234 1.19.375 1.229 4.656 1.695 9.877.954 14.414 3.068 2.237 1.006 3.632 3.276 4.165 5.61.259 1.276.56 2.58.466 3.888-.194 1.865-1.805 3.184-3.384 3.96-3.148 1.4-6.71 1.604-10.09 1.322-5.533-.496-10.834-2.776-15.203-6.191-.937-.726-1.863-1.485-2.654-2.358-.328-.268-1.037-.222-.922.32.051 1.055 1.107 1.597 1.71 2.333 3.537 3.4 7.69 6.216 12.27 7.995 5.39 1.7 11.304 1.442 16.642-.321 1.723-.622 3.497-1.889 3.768-3.83.525-2.933-.525-5.866-1.673-8.523-.906-2.021-2.192-3.838-3.285-5.753-.509-1.018-.785-2.35-.035-3.324 1.51-2.589 4.276-4.419 5.055-7.428.65-2.572-.686-5.212-2.49-6.986-2.853-2.87-7.008-4.114-10.982-4.09z" id="path8" fill="#ff0" stroke-width="1.15"/>
      <path d="M31.707 12.64c-.82.178-.726 1.181-.972 1.793-.868 3.64.125 7.514-1.202 11.064-1.103 2.23-3.6 3.304-5.93 3.709-5.29 1.192-10.633 2.295-16.037 2.774-1.256-.172-1.933-1.688-1.455-2.81.516-1.455 1.992-2.201 3.017-3.25 5.26-4.58 11.673-7.505 17.932-10.449.5-.32.398-1.21-.236-1.29-1.317-.642-2.722.203-3.949.653-6.554 2.387-12.93 5.86-17.543 11.202-1.12 1.369-2.201 3.044-2.08 4.885.223 1.92 1.727 3.693 3.627 4.113 1.659.233 3.275-.38 4.893-.637 3.745-.858 7.46-1.876 11.257-2.452 1.525-.382 3.282-1.098 4.781-.265.707.666.435 1.74.67 2.6.834 6.518.27 13.203 1.612 19.673.447.981 2.133.629 2.194-.432.31-1.4-.012-2.838.074-4.255-.132-6.08-.722-12.23.352-18.237.69-2.147 3.124-3.655 5.346-3.024 1.157.121 2.357-.169 3.3-.86-1.748-1.189-3.952-.747-5.919-.987-1-.111-2.257-.622-2.268-1.806-.458-3.47.788-7.032-.161-10.473-.197-.557-.63-1.273-1.303-1.24z" id="path10" fill="#0f0" stroke-width="1.15"/>
      <path d="M12.5 12.477c-1.95.107-3.97-.11-5.887.312-.587.379-.257 1.357.42 1.379 1.62.56 3.365.489 5.047.685 4.341.267 8.708.086 13.013-.523 1.303-.105 2.928.39 3.315 1.788.476 1.679-.16 3.415-.605 5.048-.936 2.734-2.132 5.388-3.294 8.036-.634 1.232-1.57 2.671-3.094 2.769-3.565.264-7.053-1.139-10.627-.717 2.02 2.129 4.996 2.811 7.755 3.407 1.03.21 2.04.683 2.71 1.497-1.156 6.42-4.987 12.043-5.96 18.522-.325 1.622-.428 3.572.77 4.875.471.38 1.237.046 1.29-.554 1.88-3.97 1.626-8.702 4.157-12.39 1.559-2.653 2.05-5.746 3.168-8.574 1.038-1.75 3.212-2.235 5.103-2.383 2.613-.35 5.316-.077 7.926-.567.39-.028.595-.51.267-.764-.721-1.033-2.116-1.02-3.206-1.373-1.923-.431-3.95-.322-5.816-.96-.777-.385-1.103-1.38-.663-2.137.661-2.039 1.066-4.143 1.763-6.173.787-2.64 1.625-5.343 1.626-8.118-.382-1.472-1.995-2.14-3.374-2.308-3.394-.514-6.842-.412-10.254-.667-1.85-.071-3.7-.114-5.55-.11z" id="path12" fill="#0f8" stroke-width="1.15"/>
      <path d="M16.915 8.067c-1.282.057-1.976 1.352-2.392 2.406-2.334 5.27-3.695 10.91-4.784 16.55-.352 2.342-.48 4.88.55 7.073.833 1.126 2.47 1.079 3.658.621 1.926-.638 3.89-1.063 5.912-1.148 2.705-.221 5.688-.143 8.002 1.482 3.8 3.043 5.967 7.57 7.563 12.057.618 1.47 1.427 3.236.605 4.802-.573 1.104-1.995 1.568-3.132 1.11-5.47-1.531-10.811-3.582-16.053-5.775-2.343-1.034-4.74-1.972-6.994-3.191-1.528-.94-3.058-1.97-4.836-2.368.728 2.31 2.843 3.774 4.885 4.857 5.453 3.05 11.42 4.997 17.24 7.204 3.184 1.112 6.486 1.97 9.855 2.219.962.382 2.268-.35 2.175-1.449.23-2.422-.842-4.7-1.469-6.977-1.719-4.898-4.08-9.68-7.606-13.536-2.684-2.672-6.496-4.261-10.303-3.974-2.016-.06-4.173 1.073-6.048-.02-.783-.516-.82-1.538-.625-2.36.48-4.666 2.452-8.993 4.04-13.365.442-1.018 1.01-2.036 1.823-2.82 4.46 1.44 8.335 4.183 12.542 6.183.557.195 1.267.247 1.712-.216-.128-1.272-1.465-1.8-2.314-2.535-3.93-2.799-8.292-4.955-12.785-6.68a4.615 4.615 0 00-1.22-.15z" id="path14" fill="#0ff" stroke-width="1.15"/>
      <path d="M17.592 16.497c-4.122.097-7.779 2.799-9.939 6.18-1.348 1.747-1.722 4.264-.668 6.246 1.332 3.011 4.424 4.906 5.436 8.078.864 2.201.956 4.598 1.225 6.923.723 3.145 3.113 5.543 5.537 7.508 3.837 3.393 7.983 6.638 12.863 8.37 1.998-.257 3.292-2.052 4.16-3.708 1.58-2.997 2.488-6.626 1.405-9.94-1.044-2.303-3.472-3.49-5.688-4.411-3.1-1.318-6.403-2.12-9.451-3.56-.803-.441-1.65-.936-2.23-1.644.12-2.406 2.074-4.338 4.223-5.219 1.988-.992 3.604-2.557 5.395-3.845 1.718-1.379 3.472-2.792 4.834-4.526.247-1.16-.832-2.055-1.763-2.513-.746-.398-1.531-.798-2.392-.848-.936 1.023-.264 2.533-.86 3.678-.753.987-1.89 1.597-2.734 2.502-3.449 2.99-7.138 5.72-11.039 8.092-2.2.773-4.661-.628-5.62-2.645-1.24-2.12-1.658-4.91-.313-7.086 1.39-1.776 3.499-2.79 5.476-3.726 1.544-.625 3.226-1.137 4.89-1.023 1.372.48 2.534 1.746 4.094 1.564.05-.3-.24-.809-.457-1.15-1.466-1.992-3.883-3.338-6.384-3.297zm1.782 23.207c5.027.924 9.683 3.138 14.5 4.77 1.78.842 2.829 3.047 2.247 4.903-.338 2.151-.627 4.654-2.497 6.06-1.272.933-2.99.613-4.287-.092-1.942-.996-3.684-2.342-5.532-3.505-2.496-1.728-5.064-3.521-6.916-5.966-.923-1.715-.772-4.047.585-5.488.496-.467 1.206-.825 1.9-.682z" id="path16" fill="#08f" stroke-width="1.15"/>
      <path d="M26.894 16.728c-5.502.415-11.13 2.514-14.826 6.774-2.179 2.734-2.687 6.926-.592 9.86.941 1.367 2.919 2.338 4.505 1.466 2.679-1.536 4.881-3.769 7.061-5.938 1.93-2.044 3.732-4.206 5.708-6.208 1.57-.319 2.947.924 3.66 2.203 3.87 6.094 5.234 13.494 4.919 20.63-.16 2.746-.658 5.731-2.62 7.807-1.286 1.29-3.187 1.755-4.961 1.572-7.93-.053-15.512-3.762-21.171-9.184-1.074-1-2.057-2.158-3.044-3.19-.545.844.16 1.705.602 2.398 2.394 4.092 6.278 7.097 10.437 9.227 4.546 2.688 9.59 5.118 14.98 4.942 1.966-.066 4.081-.353 5.703-1.565 1.76-2.106 1.868-4.978 2.413-7.546.894-5.418.366-11.077-1.656-16.194-1.8-5.508-3.815-11.148-7.633-15.61-.919-.847-2.18-1.51-3.485-1.444zm-2.866 3.333c1.05.092 1.469 1.586.754 2.302-1.486 2.628-3.985 4.44-5.965 6.662-1.363 1.323-2.795 2.838-4.714 3.269-1.963.013-3.389-2.622-2.1-4.184 1.557-2.016 3.072-4.142 5.218-5.58 1.993-1.407 4.354-2.358 6.807-2.469z" id="path18" fill="#00f" stroke-width="1.15"/>
      <path d="M29.147 14.534c-1.426.08-2.67.926-3.827 1.688-2.019 1.476-3.789 3.259-5.62 4.954-5.265 5.264-9.858 11.46-12.114 18.63-.905 3.59.04 7.68 2.745 10.28 3.03 3.219 8.17 4.083 12.138 2.181 5.805-2.178 10.905-6.258 14.239-11.489.845-1.906.171-4.164-1.157-5.674-1.43-2.118-3.914-3.801-6.561-3.47-5.294.651-9.795 3.803-14.704 5.59-.648.174-1.122-.452-1.069-1.03.02-1.35.942-2.451 1.568-3.581 2.18-3.334 5.275-5.922 7.649-9.109 1.67-2.028 4.175-3.116 6.133-4.835.896-.79 1.795-1.674 2.283-2.777.182-.92-.961-1.384-1.703-1.358zm2.822 21.402c.879-.05 1.849.638 1.71 1.587.04 2.664-1.723 4.927-3.519 6.725-3.721 3.58-8.726 5.559-13.753 6.42-2.78.204-5.645-2.19-5.523-5.072.239-1.574 1.753-2.487 3.09-3.07 4.032-2.15 7.892-4.763 12.38-5.87a22.244 22.244 0 015.615-.72z" id="path20" fill="#80f" stroke-width="1.15"/>
      <path d="M32.737 17.726c-6.227.85-12.73 1.193-18.473 4.015-2.028.918-4.106 1.954-5.627 3.613-.51 1.446.52 2.796.966 4.105.386.976.15 2.212-.784 2.783-2.3 2.372-2.942 5.776-3.422 8.921-.264 2.397-.268 4.902.613 7.183.512-.12.584-.683.424-1.1-.162-4.767 1.948-9.237 4.304-13.274 2.766-4.574 6.778-8.586 11.758-10.624 3.031-1.32 6.414-2.163 9.713-1.627 2.111.667 3.321 3.153 2.687 5.251-.437 4.47-.243 9.155-2.346 13.252-1.651 3.03-3.808 5.77-6.241 8.214-2.247 2.116-5.066 3.58-8.093 4.1-3.07.69-6.491.939-9.324-.65-.99-.653-1.629-1.688-2.237-2.678-.662.413-.185 1.253-.005 1.794.375 1.106 1.157 2.171 2.358 2.437 2.099.738 4.18 1.61 6.358 2.084 2.955.14 5.55-1.583 7.895-3.165 5.384-3.796 9.617-9.033 12.853-14.729.8-2.23.603-4.736 1.837-6.814.885-2.104 1.744-4.502.987-6.776-.97-2.143-2.437-4.054-4.174-5.628-.593-.41-1.295-.707-2.027-.687z" id="path22" fill="#f0f" stroke-width="1.15"/>
      <path d="M10.816 53.684c-1.404-.035-2.874 1.307-2.502 2.767.46 1.475 2.094 2.387 3.587 2.344.978-.004 1.775-.865 1.796-1.827.183-1.263-.491-2.636-1.727-3.076a2.994 2.994 0 00-1.154-.208z" id="path1022" opacity=".7" fill="#f55" stroke="none" stroke-width="1" stroke-miterlimit="4" stroke-dasharray="none"/>
    </g>
  </g>
</svg>
