<?xml version="1.0" encoding="UTF-8"?>
<svg id="svg1005" width="680.76" height="113.73" version="1.1" viewBox="0 0 180.12 30.092" xmlns="http://www.w3.org/2000/svg">
 <g id="layer1" transform="translate(-10.767 -266.91)" stroke-width=".265">
  <path id="path965" d="M148.653 284.396c-.412.02-.688.285-1.17 1.064-1.813 2.929-2.334 4.869-1.846 6.878.486 2 1.581 4.169 2.24 4.434 1.155.467 2.217.247 4.544-.94 1.296-.662 2.548-1.376 2.782-1.588.479-.433 1.045-.51 1.045-.14 0 .134.308.61.685 1.058.908 1.08 1.752 1.05 3.169-.112.621-.51 1.194-.926 1.272-.926.078 0 .44.298.803.662 1.865 1.865 5.993-.327 6.778-3.6.167-.698.482-1.417.7-1.597.342-.285.37-.191.21.715-.261 1.466-.858 3.774-1.06 4.103-.297.478.122 1.527.679 1.704.294.093 1.312-.09 2.264-.407 1.626-.54 1.759-.549 2.222-.13 1.18 1.068 3.618.756 5.881-.752 1.267-.844 1.631-1.425 1.932-3.08.305-1.672.409-1.851 1.074-1.851.354 0 .643.077.643.172 0 .095-.355.925-.79 1.844-.955 2.023-1.263 3.64-.799 4.2.496.597 2.112.46 5.69-.484 2.847-.75 3.184-.902 3.263-1.462.062-.438-.017-.582-.264-.481-2.015.819-5.906 1.72-6.74 1.56-.63-.12-.668-.207-.514-1.17.091-.572.64-1.982 1.218-3.133 1.197-2.38 1.262-2.768.53-3.16-.416-.222-.634-.17-1.059.255-.294.295-.82.536-1.168.536-.671 0-.955-.436-.955-1.468 0-.744-.952-1.39-1.395-.947-.197.197-.175.84.076 2.169.698 3.7-.777 6.137-3.852 6.359-1.534.11-1.941-.235-.972-.825 1.239-.753 1.869-1.88 2.182-3.9.36-2.32-.086-3.77-1.16-3.77-1.403 0-3.352 3.376-3.552 6.15l-.129 1.783-.956.266c-1.198.332-1.883.34-1.883.023 0-.388 1.247-4.825 1.617-5.753.272-.682.27-.916-.012-1.257-.464-.559-.896-.526-1.473.112-.625.69-.873.667-1.506-.138-.289-.367-.885-.853-1.326-1.081-1.55-.802-1.573.445-.05 2.69.493.726.56 1.04.364 1.72-.515 1.796-2.324 3.423-3.807 3.423-.543 0-.693-.16-.831-.898-.093-.494-.038-1.141.12-1.438.16-.297.29-.956.29-1.466s.115-1.23.257-1.602c.32-.842.12-1.404-.58-1.625-.733-.233-.906.135-1.27 2.702-.308 2.17-.324 2.2-1.64 3.324-1.91 1.63-1.97 1.65-2.51.826-.557-.85-.544-3.73.023-5.377.393-1.14.152-1.854-.628-1.854-.635 0-.871.386-.96 1.57-.21 2.803-.53 3.785-1.504 4.62-1.377 1.18-3.023 2.146-4.6 2.7-1.333.468-1.388.468-1.917-.01-.3-.272-.745-1.128-.99-1.903-.403-1.282-.406-1.452-.028-1.878.632-.713 2.14-5.092 2.167-6.29.021-.942-.048-1.065-.637-1.123-.066-.006-.127-.01-.186-.006zm27.745 3.643c.437 0 .218 2.488-.316 3.592-.304.627-.782 1.177-1.093 1.258-.517.135-.542.067-.388-1.058.167-1.217 1.387-3.792 1.797-3.792z"/>
  <path id="path961" d="M15.968 295.05c.06-.51.215-.926.344-.926.13 0 .236.417.236.926 0 .583-.127.926-.344.926-.237 0-.31-.287-.236-.926z"/>
  <path id="path959" d="M60.708 269.768c-.397.029-.526 1.43-.523 4.404.003 2.17.142 5.321.309 7.004.446 4.487-.188 6.716-3.252 11.422-.774 1.189-1.267 2.213-1.177 2.447.245.639.642.47 1.083-.458.412-.866 1.541-2.316 1.804-2.316.078 0 .392.426.7.946.545.925 1.436 1.185 1.511.44.018-.18.048-.446.066-.591.071-.566 1.03-.221 1.9.683.501.522 1.237 1.12 1.635 1.328.657.345.77.33 1.256-.155.845-.845.701-1.38-.326-1.206-.865.147-1.297-.064-2.024-.99-.33-.42-.286-.563.38-1.258.413-.43 1.012-.784 1.33-.784.427 0 .62-.2.732-.764.17-.856 1.357-2.377 1.636-2.099.099.099-.01 1.015-.243 2.037-.619 2.723-.562 3.588.281 4.251.786.619 1.144.57 3.072-.411l1.262-.643.278.733c.746 1.961 1.862 2.126 4.108.605 3.645-2.467 5.923-5.06 5.923-6.74 0-.976-.38-.826-.915.361-.72 1.598-2.45 3.272-5.245 5.08-2.76 1.783-3.256 1.396-3.013-2.352.092-1.414.242-3.167.333-3.895.137-1.087.073-1.44-.357-1.971-1.005-1.24-3.235-.663-5.555 1.438l-1.226 1.11-.9-.9c-1.115-1.115-1.977-1.457-3.13-1.24-.81.152-.894.109-.894-.458 0-.343.184-1.458.41-2.476.224-1.019.464-2.328.53-2.91.12-1.043.117-1.047-.184-.265-.478 1.238-.864 1.307-1.072.19-.277-1.491-.248-6.355.04-6.533.528-.327 1.074 1.11 1.138 2.992.035 1.042.168 1.894.295 1.895.127 0 .173-1.04.102-2.314-.098-1.78-.292-2.666-.842-3.832-.567-1.201-.964-1.824-1.236-1.805zm11.236 15.628c.45.013.71.21.737.592.07 1-.037 1.594-.359 1.982-.17.204-.317.928-.327 1.609-.023 1.44-.664 2.475-1.909 3.081-.458.223-1.083.406-1.389.406-.46 0-.555-.162-.555-.935 0-.514.247-1.67.55-2.57.325-.963.49-1.945.401-2.387-.136-.681-.044-.8.97-1.26.79-.359 1.43-.531 1.88-.518zm-8.778 1.077c.054-.003.11-.003.168 0 .275.018.586.114.959.284 1.05.479.764 2.25-.557 3.445-.609.552-1.705.972-2.137.82-.532-.188-.118-3.255.538-3.977.33-.364.647-.552 1.029-.573z"/>
  <path id="path953" d="M137.065 270.867c-.468-.026-.777.59-1.2 2.28-.899 3.598-1.133 6.09-.951 10.12.179 3.968-.252 7.836-.969 8.7-.517.624-3.087 2.157-3.616 2.157-.705 0-.906-.435-.884-1.907.024-1.621 1.285-3.65 2.267-3.65.197 0 .561-.148.81-.33.415-.304.418-.38.036-.926-.23-.328-.624-.595-.878-.595-.567 0-2.193 1.662-2.846 2.91-.606 1.159-.696 4.707-.136 5.382.581.702 1.906.524 3.572-.479 1.261-.76 1.608-.864 2.013-.61.716.446 1.233-.097 1.446-1.517.097-.647.28-1.24.408-1.32.128-.078.423-.798.656-1.6.495-1.703 1.689-3.204 2.348-2.951.676.26.67 2.353-.011 4.573-.386 1.255-.382 1.394.062 2.071.412.629.595.704 1.366.56 1.153-.217 3.96-1.863 4.318-2.532.426-.795-.527-.677-2.213.275-1.902 1.073-2.405 1.058-2.173-.066.097-.473.241-1.706.321-2.74.236-3.067-.883-4.413-2.832-3.405l-.863.446.182-1.814c.748-7.445.739-12.692-.023-12.984a.693.693 0 00-.21-.048zm-.37 3.684c.044-.003.142.094.255.258.175.255.212 1.627.104 3.836-.093 1.892-.313 4.214-.488 5.16l-.318 1.72-.184-1.456c-.296-2.333-.219-5.003.208-7.233.218-1.14.399-2.152.4-2.249.001-.024.009-.036.024-.036z"/>
  <path id="path949" d="M50.25 283.592c-.336.005-.63.325-.63.857 0 .392-.217.777-.534.946-.59.316-1.053.152-1.053-.374 0-1.119-2.174-1.774-3.661-1.103-1.25.563-1.571 1.08-1.77 2.845a27.269 27.269 0 01-.4 2.466c-.278 1.219-.32 3.167-.087 4.038.182.676 1.087.998 2.098.744 1.6-.402 3.82-3.688 3.82-5.654 0-.55 1.384-1.909 1.939-1.903.444.005 2.56 3.76 2.738 4.862.083.51.074 1.231-.02 1.603-.165.66-.221.675-2.492.675-2.272 0-2.958.22-2.958.95 0 .22.49.278 1.653.197.91-.064 2.19-.012 2.844.115.655.128 1.327.186 1.492.13.166-.056.383-.97.482-2.032.206-2.19.004-2.862-1.542-5.14-.677-.999-.96-1.706-.96-2.397 0-.54-.162-1.202-.36-1.472-.179-.246-.397-.356-.599-.353zm-4.27 1.037c.36.003.67.174 1.01.515.793.793.557 1.59-.677 2.287-1.05.594-1.999.769-2.337.43-.097-.096-.176-.633-.176-1.193 0-.865.13-1.098.86-1.543.547-.334.96-.5 1.32-.496zm1.017 3.99c.07-.006.117 0 .136.018.335.335-1.117 2.693-2.093 3.4-1.026.743-1.763.947-2.122.587-.27-.269-.21-2.081.094-2.88.233-.615.378-.69 1.065-.552.474.095 1.227-.014 1.858-.266.438-.175.851-.292 1.062-.308z"/>
  <path id="path943" d="M126.959 273.004c-.274.022-.554.22-.945.581-1.243 1.152-2.838 5.181-2.84 7.177 0 .69-.154.857-1.174 1.277-.645.265-1.507.443-1.917.396-.619-.07-.758-.225-.825-.916-.107-1.096.615-3.832 1.44-5.46.363-.717.606-1.357.54-1.423-.323-.323-2.111 2.432-2.697 4.155-.767 2.252-.844 3.84-.22 4.53.581.642 2.206.63 3.492-.025.549-.28 1.12-.43 1.271-.331.502.328 1.227 4.974 1.086 6.956-.124 1.723-.21 1.94-1.147 2.9-1.267 1.298-2.125 1.344-4.478.244-1.844-.862-2.393-.934-3.903-.515-.793.22-.992.402-.992.909 0 .862.364 1.021.923.404.656-.725 2.253-.548 4.371.485 2.409 1.175 3.318 1.118 4.674-.29.596-.62 1.243-1.423 1.438-1.787.475-.882.396-4.898-.14-7.143-.6-2.514-.548-3.293.253-3.818 1.785-1.17 3.482-3.681 3.714-5.495.129-1.011.053-1.234-.678-1.998-.553-.577-.894-.84-1.246-.813zm-.126 1.855a.65.65 0 01.158.005c1.395.199.417 3.225-1.544 4.774-.506.4-.974.728-1.04.728-.292 0 .445-2.404 1.2-3.915.584-1.165.87-1.555 1.226-1.592z"/>
  <path id="path939" d="M27.66 294.303l-.926-.32.08-3.07c.083-3.192.292-4.498.743-4.648.17-.057.197.455.074 1.438-.105.84-.2 2.376-.213 3.414l-.022 1.888 1.436.179c1.072.134 1.641.073 2.246-.24 1.635-.845 2.297-3.519 1.58-6.371-.353-1.4-.161-2.197.414-1.72.208.173.415.632.46 1.022.058.507.254.733.692.795.88.124 1.69-.506 2.798-2.173.535-.808 1.116-1.408 1.295-1.34.243.094.3 1.249.23 4.627-.113 5.48-.064 5.732 1.154 5.96 1.09.205 1.199.565.243.805-.906.228-1.914-.261-2.104-1.021-.085-.338-.118-2.128-.074-3.978.072-2.992.032-3.364-.359-3.364-.242 0-.744.362-1.115.804-.372.442-1.097.98-1.611 1.194-.874.365-.935.469-.935 1.58 0 1.457-.848 3.342-1.903 4.23-.886.745-2.562.87-4.183.31z"/>
  <path id="path937" d="M91.82 293.372c-.873-.414-2.025-.896-2.558-1.072-1.343-.443-1.76-.982-1.196-1.545.4-.4.47-.398.936.023.958.867 4.073 2.008 5.502 2.016 1.982.01 2.389-.436 2.887-3.168 1.01-5.54 1.544-10.785 1.087-10.67-1.365.344-1.814.337-2.536-.036-.447-.231-.813-.536-.813-.678 0-.142-.164-.258-.365-.258-.368 0-.797.844-1.11 2.183-.093.4-.284.728-.424.728s-.19-.209-.113-.463c.45-1.488.677-3.073.683-4.782.005-1.651.07-1.925.44-1.852.277.055.565.605.803 1.534.407 1.594 1.216 2.652 2.025 2.652.992 0 2.246-1.237 2.485-2.449.169-.858.354-1.142.786-1.204.89-.129.963.743.207 2.452-.521 1.18-.766 2.42-1.064 5.4-.214 2.13-.562 4.645-.774 5.59-.212.947-.39 2.413-.395 3.26-.011 1.874-.277 2.419-1.366 2.798-1.507.526-3.403.356-5.126-.46z"/>
  <path id="path935" d="M102.904 292.863c-.46-.303-.688-1.318-.494-2.2.138-.63.299-.785.747-.722.44.063.591.295.659 1.007.048.508.207 1.069.353 1.245.533.642-.487 1.182-1.265.67z"/>
  <path id="path933" d="M16.596 283.745c.066-.46.318-.628 1.149-.77 1.171-.198 5.862-2.055 6.883-2.724 1.074-.704 1.783-2.434 1.917-4.68.07-1.16-.009-2.409-.185-2.942-.367-1.111-2.051-2.708-3.917-3.712-1.517-.816-5.035-1.399-6.726-1.113-1.657.28-3.218 1.512-4.038 3.188-.794 1.621-1.081 1.732-.815.315.226-1.206 1.891-3.388 3.043-3.99 1.306-.68 5.288-.483 7.622.38 1.912.706 4.162 2.484 4.937 3.902.74 1.355.762 6.07.035 7.444-.622 1.175-1.436 2.072-2.28 2.51-1.036.54-6.97 2.781-7.36 2.781-.21 0-.316-.234-.265-.589z"/>
  <path id="path931" d="M31.456 280.75c-.214-.557.143-.859.448-.377.324.512.317.786-.019.786-.15 0-.343-.184-.43-.408z"/>
 </g>
</svg>
