<?xml version="1.0" encoding="UTF-8"?>
<svg id="svg1824" width="6878.5" height="1148.7" version="1.1" viewBox="0 0 1819.9 303.94" xmlns="http://www.w3.org/2000/svg">
 <g id="signature-group-old" style="display:none;" transform="scale(0.1 0.1) translate(0 -12) ">
  <path id="path1780" d="M82.382 50.355c-.745-1.218-1.773-5.787-2.283-10.152-.758-6.483.04-7.938 4.364-7.938 4.314 0 5.128 1.468 4.403 7.938-.956 8.54-4.283 13.748-6.484 10.152zm133.58 80.6c-8.202-8.202-.03-16.893 11.77-12.526 5.338 1.974 9.784 11.256 6.815 14.225-2.688 2.688-15.357 1.53-18.586-1.7zm245.533 142.173c0-3.587 3.572-12.155 7.937-19.039l7.938-12.516v16.459c0 15.232-.506 16.65-6.787 19.038-9.133 3.473-9.088 3.492-9.088-3.942zm-233.858-138.62c-2.142-5.583 1.434-8.598 4.482-3.777 3.24 5.121 3.175 7.86-.186 7.86-1.5 0-3.433-1.837-4.295-4.082zm714.48 121.121c-4.6-3.03-6.878-13.176-4.94-21.999 1.385-6.306 2.99-7.856 7.473-7.217 4.394.626 5.912 2.945 6.588 10.064.483 5.087 2.073 10.69 3.535 12.452 5.328 6.42-4.878 11.824-12.655 6.7zm-110.831 5.088c-8.738-4.133-20.251-8.956-25.586-10.716-13.428-4.432-17.597-9.818-11.96-15.454 3.996-3.997 4.697-3.98 9.356.237 9.579 8.669 40.73 20.077 55.028 20.152 19.82.104 23.883-4.354 28.863-31.678 10.098-55.403 15.444-107.844 10.877-106.695-13.653 3.434-18.146 3.37-25.363-.361-4.472-2.313-8.13-5.365-8.13-6.783 0-1.417-1.642-2.578-3.648-2.578-3.68 0-7.97 8.435-11.1 21.829-.935 4.001-2.843 7.276-4.239 7.276-1.395 0-1.906-2.084-1.134-4.63 4.506-14.873 6.77-30.728 6.826-47.82.05-16.51.705-19.25 4.398-18.52 2.779.549 5.66 6.05 8.035 15.341 4.075 15.94 12.157 26.524 20.255 26.524 9.913 0 22.459-12.368 24.846-24.492 1.688-8.575 3.544-11.419 7.862-12.042 8.896-1.284 9.631 7.43 2.07 24.527-5.213 11.79-7.658 24.191-10.647 54.005-2.133 21.285-5.614 46.44-7.734 55.898-2.12 9.46-3.897 24.123-3.948 32.586-.113 18.751-2.77 24.193-13.66 27.99-15.078 5.256-34.035 3.556-51.267-4.596zm351.38-203.673c-2.737.214-5.54 2.188-9.446 5.808-12.431 11.52-28.381 51.81-28.401 71.763-.01 6.907-1.542 8.578-11.736 12.77-6.45 2.652-15.077 4.437-19.172 3.968-6.19-.71-7.58-2.256-8.253-9.167-1.064-10.955 6.153-38.312 14.408-54.602 3.628-7.16 6.058-13.563 5.395-14.226-3.23-3.23-21.115 24.317-26.975 41.548-7.661 22.524-8.434 38.412-2.197 45.304 5.811 6.421 22.066 6.304 34.918-.254 5.49-2.8 11.211-4.289 12.712-3.307 5.024 3.285 12.276 49.743 10.858 69.562-1.233 17.228-2.089 19.396-11.467 29-12.672 12.977-21.252 13.441-44.783 2.44-18.435-8.62-23.93-9.345-39.026-5.152-7.935 2.203-9.922 4.024-9.922 9.09 0 8.616 3.643 10.213 9.23 4.04 6.565-7.254 22.526-5.483 43.712 4.853 24.085 11.75 33.177 11.181 46.742-2.91 5.954-6.184 12.424-14.22 14.381-17.859 4.746-8.82 3.96-48.984-1.4-71.437-6-25.134-5.488-32.93 2.522-38.179 17.85-11.696 34.824-36.81 37.14-54.947 1.291-10.116.538-12.34-6.78-19.984-5.526-5.77-8.94-8.399-12.46-8.123zm-1.255 18.541a6.505 6.505 0 011.581.05c13.95 1.994 4.164 32.254-15.44 47.744-5.065 4.002-9.742 7.276-10.393 7.276-2.927 0 4.439-24.033 12-39.145 5.828-11.65 8.687-15.55 12.252-15.921zm102.314-39.92c-4.68-.254-7.76 5.896-11.989 22.81-8.994 35.976-11.338 60.898-9.519 101.203 1.79 39.675-2.515 78.355-9.684 86.997-5.175 6.239-30.874 21.565-36.163 21.565-7.052 0-9.064-4.35-8.842-19.074.244-16.208 12.848-36.489 22.676-36.489 1.965 0 5.609-1.492 8.097-3.312 4.149-3.033 4.179-3.804.356-9.26-2.292-3.274-6.242-5.948-8.774-5.948-5.679 0-21.933 16.618-28.464 29.104-6.06 11.585-6.957 47.069-1.364 53.82 5.814 7.02 19.066 5.241 35.724-4.79 12.611-7.594 16.076-8.642 20.133-6.108 7.154 4.468 12.329-.96 14.46-15.167.97-6.467 2.806-12.405 4.082-13.193 1.275-.788 4.224-7.989 6.552-15.999 4.953-17.038 16.894-32.045 23.482-29.517 6.762 2.594 6.708 23.536-.114 45.728-3.86 12.556-3.814 13.942.625 20.717 4.12 6.287 5.95 7.039 13.663 5.592 11.526-2.163 39.597-18.62 43.181-25.317 4.254-7.949-5.277-6.766-22.138 2.75-19.017 10.732-24.043 10.584-21.73-.656.973-4.73 2.418-17.058 3.214-27.394 2.362-30.683-8.826-44.14-28.318-34.06l-8.63 4.465 1.819-18.139c7.478-74.455 7.385-126.92-.227-129.842-.742-.285-1.44-.45-2.109-.486zm-3.69 36.84c.43-.03 1.417.947 2.543 2.584 1.753 2.549 2.124 16.273 1.039 38.365-.93 18.917-3.123 42.135-4.874 51.593l-3.183 17.198-1.845-14.552c-2.955-23.332-2.184-50.031 2.083-72.331 2.182-11.406 3.99-21.527 4.01-22.49.01-.24.08-.359.227-.367zM520.16 24.684c-3.971.284-5.26 14.292-5.224 44.038.024 21.693 1.412 53.21 3.085 70.037 4.461 44.873-1.885 67.159-32.52 114.216-7.743 11.894-12.668 22.138-11.772 24.474 2.45 6.386 6.42 4.705 10.836-4.584 4.119-8.66 15.408-23.151 18.036-23.151.778 0 3.925 4.254 6.991 9.452 5.46 9.253 14.368 11.852 15.12 4.408.182-1.8.48-4.462.662-5.917.708-5.66 10.297-2.21 18.991 6.836 5.015 5.218 12.374 11.193 16.35 13.276 6.58 3.447 7.713 3.305 12.569-1.55 8.451-8.452 7.006-13.798-3.261-12.056-8.65 1.467-12.973-.647-20.247-9.912-3.289-4.189-2.856-5.617 3.803-12.568 4.133-4.313 10.118-7.839 13.302-7.839 4.266 0 6.19-2.014 7.317-7.648 1.712-8.557 13.57-23.769 16.361-20.986.991.99-.1 10.153-2.424 20.366-6.193 27.23-5.623 35.884 2.806 42.514 7.863 6.185 11.442 5.706 30.722-4.113l12.614-6.424 2.786 7.323c7.458 19.616 18.616 21.261 41.082 6.051 36.444-24.673 59.227-50.604 59.227-67.407 0-9.75-3.8-8.247-9.152 3.623-7.206 15.98-24.49 32.715-52.452 50.787-27.598 17.838-32.554 13.97-30.127-23.512.915-14.142 2.416-31.668 3.333-38.949 1.369-10.87.728-14.399-3.576-19.714-10.042-12.402-32.343-6.627-55.547 14.381l-12.263 11.1-8.991-8.991c-11.155-11.155-19.774-14.572-31.311-12.408-8.1 1.52-8.935 1.091-8.935-4.573 0-3.437 1.84-14.583 4.093-24.769 2.252-10.186 4.644-23.278 5.312-29.099 1.196-10.425 1.164-10.464-1.85-2.646-4.773 12.382-8.635 13.066-10.713 1.902-2.775-14.915-2.483-63.557.393-65.334 5.286-3.267 10.75 11.093 11.384 29.92.352 10.418 1.682 18.945 2.951 18.95 1.27 0 1.727-10.408 1.023-23.14-.985-17.807-2.928-26.656-8.428-38.319-5.665-12.01-9.639-18.24-12.356-18.045zm112.36 156.274c4.506.13 7.106 2.108 7.374 5.923.705 10.002-.369 15.935-3.591 19.818-1.693 2.04-3.17 9.278-3.276 16.086-.227 14.405-6.637 24.759-19.084 30.815-4.586 2.231-10.837 4.057-13.891 4.057-4.592 0-5.555-1.622-5.555-9.349 0-5.139 2.478-16.703 5.508-25.698 3.243-9.626 4.89-19.45 4.005-23.875-1.361-6.807-.44-7.998 9.705-12.604 7.89-3.58 14.3-5.301 18.805-5.173zm-87.783 10.775c.545-.03 1.106-.03 1.68 0 2.754.18 5.867 1.14 9.591 2.837 10.509 4.788 7.647 22.496-5.565 34.453-6.092 5.513-17.051 9.716-21.369 8.196-5.326-1.876-1.182-32.547 5.375-39.765 3.309-3.644 6.474-5.52 10.288-5.731zM72.956-6.917C55.695-7.023 38.018-.897 26.143 12.12 7.917 29.105 5.176 55.261 2.36 78.585c-.049 7.571-2.166 17.663 4.348 23.22 4.115 2.471 10.025.348 10.05-4.97 1.228-10.842.92-21.886 3.708-32.551 3.141-12.701 5.337-26.26 12.386-37.485 3.452-3.227 3.245-8.58 7.578-11.129C48.075 8.652 57.856 3.525 68.495 4.207c30.485-1.193 62.79 7.621 85.012 29.31 11.383 10.513 13.881 26.64 13.73 41.384-.598 17.212-3.05 36.074-14.49 49.748-13 10.054-28.606 16.186-43.58 22.708-5.425 1.587-11.167 5.454-16.893 4.198-3.909-5.371-2.479-12.97-3.183-19.252.055-14.978-1.523-30.011-5.436-44.424-3.783 20.896-3.756 42.616-8.611 63.389-1.83 6.314-10.612 8.537-9.653 16.08.149 3.793 5.71 3.784 5.8 7.895 1.618 14.642-1.097 29.446-2.282 44.05-2.175 20.62-5.866 41.064-9.783 61.383-.993 4.035 1.555 8.341 6.123 7.426 4.638-.7 12.91-.143 13.01-6.664.845-38.841 8.64-77.21 8.18-116.057 23.844-9.577 48.976-16.683 71.513-28.998 14.6-7.83 18.977-25.141 23.223-39.695 7.025-24.823.67-53.886-18.568-71.68C142.15 5.326 113.279-2.972 85.769-6.4c-4.322-.416-8.489-.595-12.813-.519zm1326.659 177.876c-4.127.196-6.886 2.847-11.71 10.64-18.13 29.286-23.335 48.69-18.454 68.782 4.858 19.995 15.813 41.688 22.391 44.343 11.556 4.664 22.181 2.46 45.445-9.41 12.964-6.615 25.484-13.76 27.822-15.875 4.79-4.335 10.45-5.091 10.45-1.4 0 1.343 3.084 6.105 6.851 10.583 9.082 10.792 17.515 10.492 31.688-1.122 6.216-5.093 11.938-9.26 12.718-9.26.78 0 4.398 2.976 8.036 6.615 18.65 18.65 59.923-3.266 67.773-35.988 1.676-6.985 4.825-14.175 6.997-15.978 3.433-2.849 3.707-1.91 2.098 7.147-2.603 14.661-8.567 37.743-10.598 41.03-2.958 4.786 1.225 15.27 6.795 17.038 2.939.933 13.126-.896 22.64-4.061 16.262-5.412 17.591-5.491 22.225-1.298 11.795 10.674 36.182 7.557 58.808-7.524 12.668-8.443 16.311-14.255 19.322-30.794 3.046-16.732 4.086-18.52 10.733-18.52 3.54 0 6.434.775 6.434 1.726 0 .95-3.55 9.246-7.89 18.433-9.56 20.233-12.639 36.407-7.995 42.002 4.957 5.973 21.12 4.6 56.895-4.837 28.475-7.511 31.841-9.02 32.634-14.624.62-4.376-.173-5.816-2.646-4.811-20.15 8.192-59.057 17.196-67.401 15.6-6.3-1.203-6.677-2.065-5.137-11.693.914-5.72 6.397-19.82 12.185-31.332 11.966-23.798 12.615-27.68 5.292-31.6-4.155-2.224-6.332-1.698-10.583 2.553-2.944 2.944-8.202 5.353-11.684 5.353-6.71 0-9.545-4.358-9.545-14.676 0-7.438-9.522-13.903-13.953-9.472-1.973 1.973-1.748 8.396.76 21.689 6.984 37.01-7.772 61.367-38.524 63.587-15.332 1.107-19.41-2.35-9.72-8.242 12.391-7.536 18.693-18.796 21.827-38.995 3.6-23.204-.864-37.703-11.611-37.703-14.02 0-33.513 33.753-35.512 61.49l-1.287 17.833-9.565 2.656c-11.98 3.328-18.831 3.413-18.831.233 0-3.88 12.475-48.252 16.174-57.526 2.722-6.824 2.7-9.166-.124-12.568-4.641-5.592-8.955-5.267-14.727 1.111-6.247 6.903-8.73 6.677-15.064-1.374-2.885-3.667-8.85-8.533-13.255-10.81-15.502-8.017-15.736 4.45-.506 26.892 4.932 7.267 5.594 10.399 3.643 17.203-5.152 17.964-23.24 34.235-38.065 34.235-5.439 0-6.932-1.609-8.315-8.981-.926-4.94-.383-11.414 1.205-14.382s2.888-9.561 2.888-14.655c0-5.094 1.16-12.305 2.574-16.025 3.2-8.418 1.199-14.033-5.793-16.252-7.333-2.328-9.064 1.355-12.707 27.022-3.08 21.698-3.231 21.995-16.402 33.243-19.086 16.298-19.694 16.5-25.095 8.258-5.567-8.497-5.442-37.294.233-53.764 3.931-11.41 1.513-18.547-6.284-18.547-6.345 0-8.712 3.867-9.6 15.71-2.106 28.026-5.296 37.84-15.034 46.188-13.774 11.809-30.23 21.465-46.002 27.006-13.33 4.683-13.877 4.683-19.172-.108-2.998-2.713-7.448-11.273-9.89-19.022-4.041-12.817-4.07-14.518-.29-18.784 6.317-7.13 21.406-50.917 21.673-62.896.21-9.425-.486-10.655-6.377-11.234-.656-.06-1.27-.08-1.86-.06zm277.445 36.427c4.374 0 2.185 24.88-3.163 35.925-3.032 6.265-7.813 11.764-10.924 12.578-5.174 1.353-5.423.674-3.88-10.578 1.667-12.167 13.87-37.925 17.967-37.925zM415.582 162.918c-3.367.05-6.295 3.247-6.295 8.568 0 3.92-2.176 7.77-5.348 9.467-5.9 3.158-10.527 1.514-10.527-3.741 0-11.188-21.739-17.74-36.612-11.033-12.496 5.635-15.712 10.807-17.694 28.448-.87 7.743-2.67 18.839-4 24.66-2.783 12.187-3.206 31.675-.873 40.38 1.813 6.767 10.867 9.978 20.975 7.441 15.994-4.014 38.204-36.882 38.204-56.54 0-5.506 13.833-19.086 19.384-19.026 4.446.05 25.595 37.594 27.384 48.617.827 5.1.741 12.313-.192 16.03-1.658 6.605-2.222 6.754-24.928 6.754-22.722 0-29.585 2.203-29.585 9.488 0 2.206 4.902 2.792 16.536 1.974 9.095-.639 21.895-.12 28.443 1.158 6.548 1.276 13.262 1.86 14.919 1.297 1.657-.563 3.826-9.709 4.821-20.325 2.052-21.9.035-28.62-15.425-51.402-6.773-9.981-9.607-17.05-9.607-23.968 0-5.396-1.614-12.02-3.586-14.717-1.796-2.457-3.975-3.56-5.995-3.53zm-42.7 10.367c3.607.03 6.697 1.747 10.107 5.157 7.925 7.924 5.564 15.899-6.775 22.872-10.51 5.94-19.992 7.686-23.373 4.305-.97-.97-1.762-6.343-1.762-11.943 0-8.647 1.296-10.972 8.599-15.425 5.473-3.337 9.596-4.996 13.203-4.966zm10.164 39.899c.702-.05 1.177 0 1.364.19 3.346 3.345-11.17 26.924-20.929 33.993-10.262 7.434-17.628 9.47-21.223 5.875-2.691-2.691-2.099-20.816.94-28.81 2.336-6.142 3.779-6.889 10.656-5.513 4.731.946 12.263-.135 18.578-2.662 4.38-1.752 8.507-2.916 10.614-3.074zm-59.393 52.286c-7.662.977-18.785.092-20.628-9.24-4.305-17.803-1.74-36.31-2.825-54.418-.338-14.71.362-29.96-2.64-44.21-.684-.35-1.465-.48-2.229-.453-9.96 1.633-11.165 13.754-17.52 19.869-5.543 6.455-10.771 15.383-19.655 17.13-6.98-.829-6.027-9.405-7.59-14.247-2.251-5.504-12.367-10.114-15.744-3.576-3.289 9.93 3.75 18.875 3.416 28.913 1.051 14.771 2.307 31.455-7.518 43.823-3.98 5.989-10.213 10.872-17.789 10.153-7.585-.432-15.052-1.56-22.512-2.533-5.678-3.236-1.377-10.782-1.633-15.721.056-17.862 4.551-35.695 3.565-53.402-.415-4.505-5.498-3.395-7.358-.4-5.618 8.652-5.327 19.668-6.796 29.511-1.396 16.106-1.249 32.356-1.805 48.586 18.226 5.676 40.654 10.718 56.996-1.987 12.838-11.186 19.33-28.595 18.41-45.527-.033-6.664 4.915-11.987 11.078-13.84 6.495-2.792 11.397-8.044 16.969-12.064 4.754-1.686 7.896 4.084 6.989 8.15 1.05 18.523.38 37.153-1.464 55.555 2.449 7.064 7.978 14.96 16.362 14.416 12.583.964 11.86 2.148 24.442 2.666" stroke-width="2.646"/>
 </g>
 <g
     transform="matrix(0.98999999,0,0,0.98999999,0.00213265,0.13351184)"
     id="signature-group-prev" style="display: none;">
    <path
       id="path826"
       d="m 58.466,15.896 c -0.413,0.02 -0.689,0.285 -1.171,1.064 -1.813,2.929 -2.333,4.87 -1.845,6.878 0.485,2 1.581,4.169 2.239,4.434 1.155,0.467 2.218,0.246 4.544,-0.94 1.296,-0.662 2.549,-1.377 2.782,-1.588 0.48,-0.434 1.045,-0.51 1.045,-0.14 0,0.134 0.309,0.61 0.685,1.058 0.909,1.08 1.752,1.05 3.17,-0.112 0.62,-0.51 1.193,-0.926 1.271,-0.926 0.078,0 0.44,0.298 0.804,0.661 1.865,1.865 5.992,-0.326 6.777,-3.598 0.167,-0.698 0.482,-1.418 0.7,-1.598 0.343,-0.285 0.37,-0.19 0.21,0.715 -0.26,1.466 -0.857,3.774 -1.06,4.103 -0.296,0.478 0.122,1.527 0.68,1.703 0.293,0.094 1.312,-0.09 2.263,-0.406 1.626,-0.54 1.759,-0.549 2.222,-0.13 1.18,1.068 3.619,0.756 5.881,-0.752 1.267,-0.844 1.631,-1.425 1.933,-3.08 0.304,-1.673 0.408,-1.851 1.073,-1.851 0.354,0 0.643,0.078 0.643,0.173 0,0.095 -0.355,0.924 -0.789,1.843 -0.956,2.023 -1.264,3.64 -0.8,4.2 0.496,0.597 2.113,0.46 5.69,-0.484 2.848,-0.75 3.184,-0.902 3.264,-1.462 0.062,-0.438 -0.018,-0.582 -0.265,-0.481 -2.015,0.819 -5.906,1.72 -6.74,1.56 -0.63,-0.12 -0.668,-0.207 -0.514,-1.17 0.092,-0.572 0.64,-1.981 1.219,-3.133 1.197,-2.38 1.262,-2.768 0.53,-3.16 -0.416,-0.222 -0.634,-0.17 -1.06,0.256 -0.294,0.294 -0.82,0.535 -1.168,0.535 -0.67,0 -0.954,-0.436 -0.954,-1.468 0,-0.744 -0.952,-1.39 -1.395,-0.947 -0.198,0.197 -0.175,0.84 0.076,2.169 0.698,3.701 -0.778,6.137 -3.853,6.359 -1.533,0.11 -1.94,-0.236 -0.972,-0.825 1.24,-0.753 1.87,-1.88 2.183,-3.899 0.36,-2.32 -0.087,-3.77 -1.161,-3.77 -1.402,0 -3.351,3.375 -3.551,6.149 l -0.129,1.783 -0.956,0.265 c -1.198,0.333 -1.884,0.342 -1.884,0.024 0,-0.388 1.248,-4.825 1.618,-5.753 0.272,-0.682 0.27,-0.917 -0.013,-1.257 -0.464,-0.559 -0.895,-0.526 -1.472,0.111 -0.625,0.69 -0.873,0.668 -1.507,-0.137 -0.288,-0.367 -0.885,-0.853 -1.325,-1.081 -1.55,-0.802 -1.574,0.445 -0.051,2.69 0.493,0.726 0.56,1.04 0.364,1.72 -0.515,1.796 -2.324,3.423 -3.806,3.423 -0.544,0 -0.693,-0.161 -0.832,-0.898 -0.092,-0.494 -0.038,-1.141 0.121,-1.438 0.159,-0.297 0.289,-0.956 0.289,-1.466 0,-0.51 0.116,-1.23 0.257,-1.602 0.32,-0.842 0.12,-1.404 -0.579,-1.626 -0.733,-0.232 -0.906,0.136 -1.27,2.703 -0.309,2.17 -0.324,2.199 -1.641,3.324 -1.909,1.63 -1.97,1.65 -2.51,0.826 -0.556,-0.85 -0.544,-3.73 0.024,-5.377 0.393,-1.14 0.151,-1.854 -0.629,-1.854 -0.634,0 -0.871,0.387 -0.96,1.57 -0.21,2.803 -0.53,3.784 -1.503,4.62 -1.378,1.18 -3.023,2.146 -4.6,2.7 -1.333,0.468 -1.388,0.468 -1.917,-0.01 -0.3,-0.272 -0.745,-1.128 -0.99,-1.903 -0.404,-1.281 -0.406,-1.452 -0.028,-1.878 0.631,-0.713 2.14,-5.092 2.167,-6.29 0.021,-0.942 -0.049,-1.066 -0.638,-1.123 a 1.482,1.482 0 0 0 -0.186,-0.006 z m 27.744,3.643 c 0.437,0 0.219,2.488 -0.316,3.592 -0.303,0.626 -0.782,1.177 -1.093,1.258 -0.517,0.135 -0.542,0.067 -0.387,-1.058 0.166,-1.217 1.386,-3.792 1.796,-3.792 z M 7.295,-1.891 C 5.569,-1.901 3.801,-1.289 2.614,0.013 0.79,1.71 0.517,4.327 0.235,6.659 0.231,7.416 0.02,8.425 0.67,8.981 1.082,9.228 1.673,9.016 1.675,8.484 1.798,7.4 1.767,6.295 2.046,5.229 2.36,3.959 2.58,2.603 3.285,1.48 3.63,1.158 3.609,0.622 4.042,0.368 4.807,-0.334 5.785,-0.847 6.85,-0.78 c 3.048,-0.12 6.279,0.762 8.501,2.931 1.138,1.052 1.388,2.664 1.373,4.139 -0.06,1.72 -0.305,3.607 -1.449,4.974 -1.3,1.006 -2.86,1.619 -4.358,2.271 -0.542,0.159 -1.117,0.546 -1.69,0.42 C 8.837,13.418 8.98,12.658 8.91,12.03 8.915,10.532 8.757,9.029 8.366,7.587 7.988,9.677 7.99,11.849 7.505,13.927 7.322,14.557 6.444,14.78 6.54,15.534 c 0.014,0.38 0.57,0.379 0.58,0.79 0.161,1.464 -0.11,2.944 -0.229,4.405 -0.217,2.062 -0.586,4.106 -0.978,6.138 -0.1,0.404 0.156,0.834 0.612,0.743 0.464,-0.07 1.291,-0.015 1.301,-0.667 0.085,-3.884 0.864,-7.72 0.818,-11.606 2.385,-0.957 4.898,-1.668 7.152,-2.9 1.46,-0.782 1.897,-2.514 2.322,-3.969 C 18.82,5.986 18.185,3.079 16.261,1.3 14.215,-0.668 11.328,-1.498 8.577,-1.84 8.145,-1.882 7.728,-1.9 7.296,-1.893 Z m 39.581,4.258 c -0.468,-0.025 -0.776,0.59 -1.198,2.281 -0.9,3.598 -1.134,6.09 -0.952,10.12 0.179,3.967 -0.252,7.835 -0.969,8.7 -0.517,0.624 -3.087,2.156 -3.616,2.156 -0.705,0 -0.907,-0.435 -0.884,-1.907 0.024,-1.621 1.284,-3.649 2.267,-3.649 0.197,0 0.561,-0.15 0.81,-0.331 0.415,-0.303 0.418,-0.38 0.036,-0.926 -0.23,-0.328 -0.625,-0.595 -0.878,-0.595 -0.568,0 -2.193,1.662 -2.846,2.91 -0.606,1.159 -0.696,4.707 -0.137,5.382 0.582,0.702 1.907,0.524 3.573,-0.479 1.26,-0.76 1.607,-0.864 2.013,-0.61 0.716,0.446 1.233,-0.097 1.446,-1.517 0.097,-0.647 0.28,-1.24 0.408,-1.32 0.128,-0.078 0.422,-0.798 0.655,-1.6 0.496,-1.703 1.69,-3.204 2.349,-2.951 0.676,0.26 0.67,2.354 -0.012,4.573 -0.386,1.256 -0.381,1.394 0.063,2.071 0.412,0.629 0.595,0.704 1.366,0.56 1.153,-0.217 3.96,-1.862 4.318,-2.532 0.426,-0.795 -0.527,-0.676 -2.214,0.275 -1.901,1.073 -2.404,1.059 -2.173,-0.065 0.098,-0.473 0.242,-1.706 0.322,-2.74 0.236,-3.068 -0.883,-4.414 -2.832,-3.406 L 46.928,17.213 47.11,15.4 C 47.857,7.954 47.849,2.708 47.087,2.416 a 0.696,0.696 0 0 0 -0.21,-0.05 z m -0.368,3.684 c 0.043,-0.003 0.141,0.095 0.254,0.258 0.175,0.255 0.212,1.628 0.104,3.837 -0.093,1.892 -0.313,4.213 -0.488,5.16 l -0.318,1.72 -0.184,-1.456 c -0.296,-2.333 -0.219,-5.003 0.208,-7.233 0.218,-1.14 0.399,-2.153 0.4,-2.25 0.002,-0.023 0.009,-0.035 0.023,-0.036 z M 36.77,4.505 c -0.273,0.021 -0.553,0.219 -0.944,0.58 -1.243,1.153 -2.838,5.182 -2.84,7.177 -10e-4,0.69 -0.154,0.858 -1.174,1.277 -0.645,0.265 -1.508,0.444 -1.917,0.397 -0.62,-0.071 -0.758,-0.226 -0.825,-0.917 -0.107,-1.096 0.615,-3.83 1.44,-5.46 0.363,-0.716 0.606,-1.356 0.54,-1.423 -0.323,-0.323 -2.112,2.432 -2.698,4.155 -0.766,2.253 -0.843,3.841 -0.22,4.53 0.582,0.643 2.207,0.631 3.493,-0.025 0.549,-0.28 1.12,-0.429 1.27,-0.33 0.503,0.328 1.228,4.974 1.087,6.956 -0.124,1.723 -0.21,1.94 -1.147,2.9 -1.267,1.297 -2.126,1.344 -4.479,0.244 -1.843,-0.862 -2.393,-0.935 -3.902,-0.516 -0.794,0.22 -0.992,0.403 -0.992,0.91 0,0.861 0.364,1.02 0.923,0.404 0.656,-0.726 2.252,-0.549 4.37,0.485 2.41,1.175 3.319,1.118 4.675,-0.291 0.596,-0.619 1.243,-1.422 1.438,-1.786 0.475,-0.882 0.396,-4.898 -0.14,-7.144 -0.6,-2.513 -0.549,-3.293 0.252,-3.818 1.785,-1.17 3.482,-3.68 3.714,-5.494 C 38.824,6.304 38.748,6.082 38.016,5.317 37.463,4.74 37.122,4.477 36.77,4.505 Z m -0.06,1.852 a 0.65,0.65 0 0 1 0.093,0.007 c 1.395,0.2 0.416,3.225 -1.544,4.774 -0.506,0.4 -0.974,0.728 -1.04,0.728 -0.292,0 0.445,-2.404 1.2,-3.915 0.584,-1.165 0.87,-1.554 1.226,-1.591 A 0.65,0.65 0 0 1 36.71,6.356 Z M 14.303,25.952 c -0.46,-0.303 -0.688,-1.318 -0.494,-2.2 0.138,-0.631 0.299,-0.786 0.747,-0.722 0.44,0.063 0.591,0.294 0.659,1.006 0.048,0.509 0.207,1.07 0.353,1.246 0.533,0.642 -0.487,1.182 -1.265,0.67 z M 8.237,3.837 C 8.162,3.715 8.06,3.257 8.009,2.821 7.933,2.173 8.013,2.028 8.445,2.028 c 0.431,0 0.513,0.146 0.44,0.793 C 8.79,3.675 8.457,4.196 8.237,3.837 Z" />
     </g>
     <g
     id="signature-group">
    <path
       id="path826"
       d="m 7.4242645,-1.6995182 c -1.481304,-0.010584 -3.004866,0.4339028 -4.137226,1.41273438 -0.684388,0.608905 -1.310588,1.31073622 -1.685068,2.15606482 -0.64919802,1.3803198 -0.84386802,2.9092902 -1.02397802,4.4067046 -0.052724,0.5791316 -0.115084,1.1632986 -0.049652,1.7436028 0.047406,0.2905392 0.15316,0.6126716 0.412994,0.7789404 0.26258002,0.141551 0.67217602,-0.00609 0.69588602,-0.3285968 0.119128,-1.2033746 0.109812,-2.444537 0.447712,-3.6207182 0.28432,-1.1902366 0.520776,-2.4323146 1.193786,-3.477482 0.308984,-0.3122348 0.334262,-0.83054042 0.715078,-1.08410162 0.698528,-0.6186732 1.55376,-1.1369642 2.506132,-1.196914 0.49542,-0.026288 0.992324,-0.012421 1.488074,-0.005695 2.2847195,0.0852402 4.5884135,0.7411344 6.4506755,2.09577342 0.63871,0.471306 1.264092,0.9985048 1.682728,1.6825778 0.615506,1.0367784 0.758644,2.2761086 0.731542,3.4607696 -0.02747,1.0405494 -0.15235,2.0876898 -0.464974,3.0834494 -0.227272,0.6880216 -0.554076,1.3596676 -1.042354,1.9003616 -1.334092,1.018495 -2.907006,1.646702 -4.441788,2.29225 -0.514954,0.179382 -1.0335515,0.484642 -1.5997635,0.404615 -0.228998,-0.05464 -0.293588,-0.316659 -0.365272,-0.507696 -0.166954,-0.564955 -0.085856,-1.16147 -0.132398,-1.73972 -0.014888,-1.145993 -0.11087,-2.2920188 -0.35018,-3.4148888 -0.267002,1.8700438 -0.295258,3.7815288 -0.769298,5.6188278 -0.191876,0.487805 -0.77855,0.7007 -0.910312,1.221406 -0.045714,0.178592 0.036638,0.382666 0.21371,0.452344 0.20199,0.12991 0.382958,0.340279 0.367418,0.59486 0.149896,1.60063 -0.155406,3.194658 -0.284996,4.783954 -0.21986,1.949228 -0.59479,3.876416 -0.941094,5.805522 -0.002,0.21555 0.206748,0.445893 0.43299,0.371226 0.358276,-0.05176 0.755006,-0.01054 1.060448,-0.237281 0.173258,-0.180666 0.084652,-0.449866 0.115058,-0.670927 0.130032,-3.73995 0.854134,-7.441662 0.798536,-11.189229 2.4563875,-0.998074 5.0464415,-1.701635 7.3620735,-3.018953 0.819814,-0.526557 1.289,-1.430711 1.594172,-2.3283066 0.269652,-0.787075 0.52046,-1.5907712 0.638424,-2.4117628 0.22373,-1.7190824 -0.171466,-3.5459252 -1.17967,-4.9709772 -0.89938,-1.2410614 -2.19817,-2.14050142 -3.581646,-2.76596162 -1.575966,-0.70280218 -3.27832,-1.08178898 -4.9884715,-1.26071798 -0.318788,-0.026251 -0.638388,-0.03816 -0.959296,-0.036055 z m 1.08836,3.8844532 c -0.117544,-0.011898 -0.289384,0.00494 -0.303204,0.1542578 -0.010754,0.466051 0.077824,0.9320206 0.214414,1.3773828 0.01592,0.049659 0.062948,0.051002 0.077696,-0.00133 0.210806,-0.332546 0.264646,-0.7351188 0.295156,-1.119453 -0.00803,-0.121763 0.029026,-0.274455 -0.058984,-0.3682422 -0.065836,-0.047466 -0.148814,-0.042697 -0.225078,-0.042617 z M 46.492858,2.5227866 c -0.274677,0.054907 -0.386584,0.357232 -0.491971,0.5786506 -0.415027,1.0303032 -0.610647,2.1298966 -0.865527,3.206667 -0.498799,2.3540534 -0.684512,4.7689168 -0.593003,7.1741708 0.04951,1.571639 0.12656,3.146395 0.03703,4.718593 -0.06672,1.381258 -0.191985,2.769564 -0.536029,4.112432 -0.128624,0.477673 -0.316422,0.971602 -0.713186,1.291985 -0.415433,0.354598 -0.882313,0.643091 -1.339616,0.939611 -0.608999,0.377335 -1.238516,0.735126 -1.916757,0.97207 -0.391039,0.102963 -0.873911,-0.05537 -1.036836,-0.448047 -0.193512,-0.426497 -0.178479,-0.907701 -0.194976,-1.365703 -0.0064,-0.769665 0.187835,-1.532407 0.530411,-2.219677 0.279037,-0.560664 0.643146,-1.098908 1.144197,-1.483668 0.24602,-0.179743 0.544697,-0.284214 0.848844,-0.294897 0.31202,-0.07604 0.603395,-0.244151 0.819688,-0.47957 0.04877,-0.162402 -0.107759,-0.290302 -0.178894,-0.421113 -0.187508,-0.271341 -0.449567,-0.550565 -0.796966,-0.587754 -0.345866,0.066 -0.584726,0.337445 -0.850723,0.543689 -0.724798,0.649619 -1.355075,1.410162 -1.823417,2.265021 -0.308255,0.665764 -0.369494,1.412982 -0.443332,2.134864 -0.05964,0.853472 -0.05614,1.719725 0.115129,2.561933 0.06322,0.284898 0.222586,0.575578 0.509101,0.683672 0.49735,0.218066 1.059575,0.08471 1.560932,-0.06615 0.882687,-0.282485 1.636448,-0.85378 2.466138,-1.256233 0.312232,-0.150391 0.695144,-0.268042 1.024375,-0.09883 0.179737,0.08484 0.355148,0.236525 0.568204,0.174961 0.252376,-0.05185 0.371129,-0.310269 0.478671,-0.517109 0.297201,-0.688821 0.240398,-1.477375 0.562405,-2.158834 0.08144,-0.18631 0.252817,-0.318342 0.317748,-0.51278 0.377402,-0.873458 0.540951,-1.834246 1.030662,-2.659803 0.326257,-0.586764 0.732713,-1.16432 1.315554,-1.519304 0.253716,-0.142008 0.6158,-0.165537 0.827069,0.06463 0.301492,0.304791 0.340852,0.761421 0.382046,1.165692 0.0594,0.906795 -0.09583,1.812614 -0.30189,2.692511 -0.142739,0.582524 -0.351747,1.146167 -0.463984,1.734375 -0.03613,0.272423 0.05286,0.546289 0.216144,0.76332 0.156787,0.249644 0.307716,0.540712 0.595184,0.657618 0.35121,0.09066 0.70808,-0.03924 1.045353,-0.128278 0.875356,-0.291783 1.676243,-0.761784 2.463042,-1.234733 0.469806,-0.299448 0.938935,-0.613615 1.305495,-1.039078 0.05904,-0.08648 0.138688,-0.211502 0.08884,-0.312052 -0.185085,-0.06785 -0.377065,0.03565 -0.558935,0.07099 -1.123917,0.339515 -2.037979,1.156187 -3.176848,1.457368 -0.22862,0.05871 -0.531226,0.02944 -0.652107,-0.202734 -0.172686,-0.334001 -0.02903,-0.717113 0.01621,-1.062656 0.153951,-1.030252 0.267049,-2.070197 0.300707,-3.110659 0.0091,-0.725367 -0.05698,-1.477285 -0.392973,-2.13481 -0.195753,-0.38867 -0.580774,-0.697338 -1.021406,-0.720547 -0.5961,-0.03981 -1.14495,0.282744 -1.658921,0.551042 -0.161499,0.07573 -0.311315,0.177008 -0.47522,0.24513 -0.105183,0.03969 -0.18589,-0.08503 -0.139688,-0.179125 0.3982,-3.950668 0.795701,-7.9136636 0.714488,-11.889577 -0.02627,-0.8033054 -0.06618,-1.6177912 -0.297142,-2.3909464 -0.05272,-0.156764 -0.184358,-0.2987482 -0.36332,-0.266328 z m -9.908125,2.1126562 c -0.415606,0.052235 -0.709679,0.3987216 -0.998796,0.6726192 -0.690366,0.7669376 -1.115472,1.7205582 -1.532782,2.6548376 -0.507991,1.2037424 -0.917659,2.4612814 -1.072204,3.7618494 -0.03608,0.317557 0.0019,0.646409 -0.0824,0.956876 -0.108124,0.327741 -0.408448,0.537973 -0.712175,0.66874 -0.679535,0.335843 -1.419686,0.565995 -2.177188,0.625312 -0.335245,0.01385 -0.71095,-0.02078 -0.97418,-0.249609 -0.256546,-0.27181 -0.267154,-0.675269 -0.279212,-1.026992 0.0018,-0.901076 0.233024,-1.78111 0.461617,-2.646305 0.302876,-1.0900924 0.726247,-2.1443044 1.236931,-3.1530704 0.08648,-0.189268 0.174709,-0.3790302 0.23,-0.5777734 -0.353748,0.3082866 -0.597354,0.7140138 -0.864504,1.0950844 -0.734298,1.111811 -1.340986,2.3188718 -1.699986,3.6048844 -0.227098,0.827397 -0.422566,1.683144 -0.36719,2.545461 0.03837,0.417779 0.143196,0.888489 0.50923,1.144098 0.32754,0.22394 0.736488,0.277046 1.121469,0.289179 0.671304,0.0053 1.340286,-0.162923 1.946721,-0.451561 0.417823,-0.183361 0.851319,-0.432186 1.324612,-0.387849 0.233366,0.02867 0.344828,0.277665 0.412427,0.475053 0.40703,1.135339 0.54942,2.341782 0.717097,3.529757 0.183119,1.480035 0.276971,2.995797 -0.0044,4.469878 -0.09147,0.44276 -0.334121,0.836218 -0.635024,1.167642 -0.319774,0.354897 -0.656577,0.700128 -1.038187,0.988833 -0.460448,0.337063 -1.038201,0.536356 -1.612219,0.466298 -0.864647,-0.07697 -1.656863,-0.469156 -2.438409,-0.817232 -0.725508,-0.332466 -1.479688,-0.694253 -2.29284,-0.69769 -0.664508,0.0098 -1.316326,0.199242 -1.9334,0.435391 -0.185132,0.09174 -0.32224,0.28646 -0.29664,0.499179 -0.0079,0.215481 -0.0075,0.463165 0.133946,0.63793 0.179694,0.05419 0.31672,-0.126589 0.432344,-0.235703 0.220052,-0.23436 0.497076,-0.423959 0.818242,-0.482031 0.72004,-0.170949 1.46335,0.0099 2.157724,0.209863 1.087652,0.332519 2.061551,0.947089 3.141938,1.295265 0.583254,0.185147 1.244865,0.254883 1.807603,-0.03192 0.683089,-0.33588 1.175006,-0.946892 1.676953,-1.502617 0.30854,-0.369297 0.627786,-0.740892 0.849297,-1.170352 0.207119,-0.533475 0.199062,-1.114014 0.242355,-1.679734 0.06173,-1.567169 -0.04734,-3.138155 -0.316428,-4.68305 -0.208421,-1.080826 -0.565206,-2.156782 -0.50484,-3.270765 0.03501,-0.453235 0.253161,-0.909701 0.649577,-1.15274 0.905209,-0.603983 1.669535,-1.405159 2.299727,-2.289883 0.6302,-0.9098968 1.176129,-1.9184816 1.361797,-3.0205466 0.04561,-0.3412814 0.09046,-0.7013252 0.0069,-1.0354298 C 38.131482,5.7864166 37.709677,5.4691238 37.380006,5.1089584 37.160868,4.8944576 36.90611,4.661112 36.584733,4.6354428 Z m 9.605547,1.2135156 c 0.245162,0.05383 0.38112,0.305627 0.456094,0.5234376 0.122453,0.467155 0.08801,0.955397 0.109251,1.4326928 0.01147,1.8797096 -0.138448,3.7558982 -0.310003,5.6263002 -0.102229,1.036378 -0.272744,2.064363 -0.474366,3.085577 -0.03794,0.177866 -0.05892,0.369538 -0.142734,0.530821 -0.0989,0.09643 -0.259414,-0.02732 -0.241055,-0.148165 -0.228508,-1.598306 -0.406007,-3.210593 -0.360891,-4.827759 0.0251,-1.642039 0.23949,-3.2783574 0.580735,-4.8824748 0.08337,-0.425704 0.128303,-0.8652274 0.243281,-1.2810938 0.03469,-0.038644 0.08732,-0.063968 0.139688,-0.059336 z m -9.681992,0.3001172 c 0.439541,0.00211 0.825387,0.384298 0.853203,0.8194532 0.1025,0.6752262 -0.155685,1.3392116 -0.428062,1.9440004 -0.513617,1.0859496 -1.348676,2.0016618 -2.33746,2.6759488 -0.181374,0.125648 -0.361861,0.278035 -0.576666,0.33591 -0.188585,-0.0075 -0.261429,-0.235162 -0.217366,-0.392389 0.06197,-0.672734 0.314928,-1.306944 0.521871,-1.9442174 0.38156,-1.0626636 0.834451,-2.112788 1.479441,-3.044331 0.169599,-0.2182242 0.413825,-0.4099394 0.705039,-0.394375 z m 21.521406,9.7658594 c -0.383449,0.01831 -0.623124,0.367744 -0.819485,0.65607 -0.827433,1.284437 -1.592049,2.644197 -1.986889,4.126809 -0.258217,1.01103 -0.270988,2.087302 0.02432,3.090942 0.294336,1.113193 0.723438,2.193433 1.305261,3.189372 0.189144,0.3057 0.392007,0.622374 0.688116,0.835635 0.460375,0.249034 1.011584,0.292467 1.520703,0.229453 0.875007,-0.118407 1.684767,-0.51919 2.479727,-0.890937 0.963396,-0.47355 1.906464,-0.986309 2.827469,-1.537606 0.355637,-0.219107 0.657484,-0.566921 1.08882,-0.63341 0.193054,-0.03332 0.444212,0.01926 0.512812,0.228594 0.04306,0.139819 0.07451,0.282536 0.161754,0.404309 0.226036,0.374682 0.510778,0.71478 0.821918,1.024831 0.31284,0.288457 0.749257,0.47241 1.169032,0.358884 0.656497,-0.146355 1.171447,-0.623974 1.690257,-1.024427 0.335756,-0.269367 0.670672,-0.553637 1.060398,-0.740941 0.219024,-0.01916 0.361666,0.183706 0.521368,0.292266 0.38663,0.347121 0.749042,0.775647 1.270194,0.912187 0.852278,0.269106 1.768088,0.05461 2.551256,-0.325559 1.3762,-0.67318 2.497958,-1.898722 2.96132,-3.36787 0.205438,-0.660227 0.334212,-1.38694 0.795902,-1.9295 0.116098,-0.133966 0.31977,-0.280922 0.496914,-0.175586 0.172778,0.142286 0.08885,0.395231 0.07029,0.581984 -0.18384,1.267106 -0.509914,2.508073 -0.845802,3.74182 -0.0875,0.318758 -0.218622,0.624054 -0.33923,0.929673 -0.07094,0.391334 0.09318,0.795865 0.340642,1.094726 0.145644,0.175383 0.3789,0.26903 0.604842,0.222772 0.975784,-0.07312 1.890062,-0.458114 2.825122,-0.721369 0.31291,-0.08546 0.654374,-0.189228 0.971148,-0.05942 0.273616,0.09857 0.440342,0.357865 0.692112,0.494397 0.523484,0.308175 1.156634,0.391499 1.75162,0.355258 1.182056,-0.08811 2.313148,-0.54395 3.316098,-1.165355 0.422014,-0.273917 0.841756,-0.559172 1.197926,-0.915621 0.461268,-0.486959 0.703066,-1.1376 0.828922,-1.787696 0.148324,-0.67846 0.202186,-1.39344 0.50807,-2.02621 0.151166,-0.249102 0.45166,-0.371416 0.735772,-0.346924 0.271174,-0.0053 0.576404,0.007 0.796492,0.183134 0.119772,0.147944 0.0097,0.337107 -0.05164,0.482986 -0.54211,1.365134 -1.315748,2.654169 -1.593942,4.111389 -0.08268,0.427105 -0.139598,0.891376 0.01484,1.311016 0.11636,0.244923 0.389418,0.350824 0.642774,0.381524 0.649442,0.104778 1.305958,-0.02723 1.950508,-0.12004 1.564712,-0.270452 3.096214,-0.709087 4.626406,-1.131762 0.431336,-0.132699 0.881402,-0.251572 1.259688,-0.505972 0.148828,-0.11707 0.189166,-0.308503 0.195664,-0.487031 0.0017,-0.0494 0.02922,-0.161746 -0.03047,-0.176172 -0.16706,0.05723 -0.325642,0.137107 -0.496564,0.184844 -1.698262,0.606171 -3.454548,1.051106 -5.23552,1.331641 -0.487818,0.06494 -1.013954,0.128996 -1.47905,-0.0727 -0.200672,-0.09586 -0.311236,-0.317963 -0.293438,-0.535937 0.02201,-0.853862 0.343282,-1.662887 0.665352,-2.442149 0.414442,-1.068188 1.020474,-2.048195 1.431858,-3.117199 0.09718,-0.279909 0.249906,-0.5935 0.13904,-0.893348 -0.105012,-0.18959 -0.31584,-0.298198 -0.512304,-0.371054 -0.194926,-0.09127 -0.404066,0.02115 -0.544922,0.157148 -0.392894,0.407334 -0.92965,0.735374 -1.512696,0.714141 -0.410008,0.0025 -0.785732,-0.297478 -0.89375,-0.689727 -0.139446,-0.374893 -0.07731,-0.785196 -0.1616,-1.168906 -0.122136,-0.358123 -0.469318,-0.670983 -0.858828,-0.669922 -0.153326,0.0081 -0.276744,0.139903 -0.270292,0.293078 -0.06465,0.582589 0.08605,1.15981 0.175018,1.731688 0.208862,1.132789 0.281896,2.318018 -0.01972,3.441473 -0.249622,0.969575 -0.831032,1.870334 -1.683258,2.413069 -0.820722,0.535013 -1.821388,0.733937 -2.790106,0.72177 -0.299644,-0.02201 -0.62315,0.0013 -0.895944,-0.145531 -0.16483,-0.08102 -0.259644,-0.285408 -0.181484,-0.45793 0.129424,-0.297117 0.452686,-0.433409 0.698714,-0.614956 0.475024,-0.298907 0.873218,-0.707638 1.159456,-1.189653 0.561316,-0.937879 0.749688,-2.037382 0.873222,-3.109597 0.06517,-0.71501 0.06613,-1.447641 -0.15694,-2.134349 -0.12565,-0.359191 -0.397022,-0.728537 -0.80457,-0.76789 -0.434474,-0.04799 -0.808112,0.240428 -1.10809,0.517202 -0.623246,0.586148 -1.051092,1.343524 -1.430776,2.101352 -0.58092,1.200059 -0.913858,2.516255 -0.970056,3.846759 -0.03584,0.428393 -0.03307,0.866869 -0.108734,1.289804 -0.09493,0.160383 -0.311056,0.111179 -0.457692,0.183294 -0.741276,0.199252 -1.497802,0.475665 -2.27891,0.406667 -0.195658,-0.0277 -0.398668,-0.195477 -0.365936,-0.409297 0.02861,-0.347488 0.153774,-0.677708 0.22425,-1.017512 0.400502,-1.553122 0.835932,-3.098659 1.351142,-4.617858 0.09969,-0.28151 0.254278,-0.568532 0.205076,-0.875294 -0.06894,-0.251037 -0.275378,-0.442701 -0.48914,-0.576133 -0.237508,-0.121089 -0.492536,0.02541 -0.669688,0.184844 -0.298158,0.263059 -0.53161,0.652346 -0.943516,0.748945 -0.300684,0.0553 -0.560308,-0.159054 -0.747544,-0.367641 -0.273078,-0.2985 -0.505204,-0.63757 -0.842042,-0.871328 -0.406594,-0.328954 -0.868424,-0.651016 -1.406038,-0.69064 -0.159692,0.01234 -0.227486,0.183871 -0.201524,0.323789 0.01932,0.474384 0.258266,0.895411 0.457652,1.314065 0.298438,0.566645 0.699152,1.073393 0.990824,1.643279 0.172286,0.39198 0.148624,0.842763 0.0055,1.23957 -0.37027,1.238843 -1.24159,2.30192 -2.33168,2.98332 -0.564336,0.338309 -1.234768,0.568728 -1.898632,0.468594 -0.268984,-0.05494 -0.484018,-0.274985 -0.5475,-0.54026 -0.160668,-0.486781 -0.204874,-1.016416 -0.11879,-1.522162 0.04366,-0.275507 0.170714,-0.525515 0.262892,-0.785312 0.214702,-0.730042 0.08861,-1.506814 0.284692,-2.242604 0.0614,-0.303906 0.18152,-0.592568 0.249896,-0.893695 0.05365,-0.310251 -0.03856,-0.684242 -0.337518,-0.838311 -0.190818,-0.114377 -0.436306,-0.21742 -0.655312,-0.130664 -0.228696,0.168916 -0.250922,0.466972 -0.333634,0.719708 -0.287426,1.144824 -0.324868,2.335225 -0.6082,3.480591 -0.123234,0.448964 -0.38214,0.853762 -0.729488,1.162754 -0.46376,0.436184 -0.967228,0.827563 -1.445849,1.247048 -0.321844,0.262332 -0.649365,0.53653 -1.036658,0.695759 -0.232958,0.07339 -0.502762,-0.01318 -0.641992,-0.21586 -0.446432,-0.483213 -0.589349,-1.157685 -0.644627,-1.793744 -0.09196,-0.96193 -0.04564,-1.93622 0.109603,-2.889145 0.08944,-0.531798 0.250037,-1.047597 0.400376,-1.563947 0.07162,-0.33294 0.113998,-0.735004 -0.116172,-1.022656 -0.235642,-0.230228 -0.641222,-0.237992 -0.90168,-0.0493 -0.256617,0.248303 -0.28074,0.636404 -0.333256,0.967052 -0.100644,1.046025 -0.149608,2.110253 -0.428697,3.130214 -0.156735,0.563416 -0.400577,1.115707 -0.811406,1.541758 -0.443941,0.476612 -0.983805,0.848965 -1.506726,1.232066 -1.378161,0.965045 -2.915057,1.722511 -4.548782,2.13848 -0.30692,0.05507 -0.621104,-0.07039 -0.836367,-0.289101 -0.49633,-0.44951 -0.759983,-1.087717 -1.002894,-1.696666 -0.188248,-0.515569 -0.366938,-1.042363 -0.438273,-1.588488 -0.02332,-0.269556 0.08591,-0.535011 0.270939,-0.728925 0.29661,-0.349656 0.458342,-0.786105 0.649681,-1.198148 0.4592,-1.10055 0.851808,-2.227907 1.175103,-3.374723 0.182712,-0.723318 0.409801,-1.464935 0.305633,-2.216241 -0.0022,-0.132471 -0.0689,-0.272931 -0.21265,-0.297942 -0.136163,-0.03463 -0.276923,-0.0375 -0.4175,-0.04195 z m 27.474492,3.28668 c 0.227458,0.02454 0.322452,0.279242 0.341952,0.477656 0.103586,0.894045 -0.0594,1.795146 -0.282052,2.659034 -0.207018,0.688849 -0.56355,1.361075 -1.129744,1.819989 -0.218878,0.154725 -0.51171,0.274796 -0.777188,0.178008 -0.201402,-0.10696 -0.196484,-0.365521 -0.183828,-0.561992 0.04405,-0.720777 0.220012,-1.428285 0.483514,-2.099998 0.301252,-0.746485 0.618532,-1.500176 1.098784,-2.151949 0.108938,-0.14792 0.2488,-0.315517 0.448562,-0.320748 z M 14.32317,22.964896 c -0.21967,0.03633 -0.279098,0.299051 -0.324296,0.480195 -0.162382,0.645123 -0.137132,1.374402 0.216678,1.956875 0.280408,0.37143 0.886526,0.479193 1.250274,0.171406 0.11344,-0.118416 0.08093,-0.305912 -0.02816,-0.414648 -0.310492,-0.455595 -0.345956,-1.02694 -0.422968,-1.556103 -0.02094,-0.247182 -0.116944,-0.570822 -0.404962,-0.613272 -0.09257,-0.02058 -0.19002,-0.0262 -0.286562,-0.02445 z"
       style="stroke-width:0.47627059;stroke-miterlimit:4;stroke-dasharray:none;stroke-opacity:1;stroke-linejoin:round;stroke-linecap:round;paint-order:stroke fill markers" />
  </g>
</svg>
