<?xml version="1.0" encoding="UTF-8"?>
<svg id="svg2445" width="3586.6" height="1253.2" version="1.1" viewBox="0 0 948.94 331.57" xmlns="http://www.w3.org/2000/svg">
 <g id="layer1" transform="translate(635.82 157.38)">
  <path id="path1774" d="M-600.183 121.352c-2.338-3.462-.582-21.396 2.855-29.154 2.91-6.567 5.554-33.556 4.905-50.067-.11-2.909.853-16.67 2.15-30.58 1.296-13.91 2.108-38.117 1.805-53.794-.31-16.048.662-29.848 2.224-31.582 1.592-1.766 5.821-2.479 9.923-1.672 6.056 1.19 6.946 2.44 5.819 8.172-2.57 13.066-6.056 58.537-6.3 82.152-.136 13.122-.574 28.047-.974 33.168-.4 5.121-1.091 15.887-1.536 23.924-.445 8.038-1.195 17.614-1.667 21.282-.472 3.667-1.322 11.759-1.89 17.981-.935 10.268-1.723 11.35-8.524 11.702-4.121.213-8.077-.476-8.79-1.532zm54.902-133.925c-3.72-1.738-7.263-5.18-7.873-7.65-.983-3.983.691-4.398 14.767-3.66 20.52 1.075 26.394-.912 39.03-13.202 22.307-21.695 30.55-49.162 19.346-64.468-6.659-9.099-29.356-23.3-45.636-28.553-25.313-8.168-60.836-1.138-71.865 14.222-12.876 17.932-24.657 58.306-23.998 82.24.304 11.04-.306 12.389-5.735 12.67-8.952.464-10.37-6.002-6.657-30.366 9.437-61.927 20.867-79.019 59.607-89.137 26.878-7.02 54.556-1.12 87.882 18.735 19.94 11.88 27.836 21.62 27.99 34.534.112 9.423-7.468 33.306-11.711 36.895-.917.777-3.586 4.8-5.93 8.942s-10.45 12.117-18.012 17.724c-15.806 11.717-39.06 16.746-51.205 11.074zm210.066-106.617c-5.78 4.135-7.775 11.382-8.333 18.11-1.147 3.546-4.933 5.785-3.967 10.029-.067 2.668.48 5.486 3.45 5.837 5.913 4.808 6.578 14.425 14.938 16.651 11.05 4.08 22.682-.687 33.744-2.156.37 48.428 1.14 96.906-.874 145.301.094 3.309-1.028 8.61-5.541 6.964-11.432-3.395-22.08-9.333-33.985-11.316-7.51-1.576-18.85-4.114-23.164 4.382.457 5.167 7.488 5.74 11.57 6.132 14.733-.457 28.93 5.565 41.693 12.382 4.392 2.47 9.161 9.983 14.196 4.15 8.41-10.562 6.336-25.226 7.5-37.833 1.333-44.021-.649-88.176.431-132.245-.186-11.064 6.266-20.392 10.765-29.838 3.443-6.385-2.249-16.46-9.615-15.325-5.459 6.024-5.99 15.12-11.195 21.493-6.103 8.378-13.076 18.124-23.626 20.852-8.011 1.249-12.26-7.4-12.43-14.176-1.535-9 1.806-18.922-2.312-27.345-.834-.913-1.96-1.988-3.245-2.05zm517.926 96.97C178.779-22.014 163.01 14 158.97 32c-2.233 9.948-4.435 12.993-12.57 17.375-19.186 10.336-23.104 2.949-16.43-30.982 3.765-19.15 4.16-25.724 1.665-27.973-6.15-5.543-7.879.241-14.425 48.261-2.069 15.177-1.804 17.007 3.178 21.977 4.594 4.584 7.366 5.092 17.91 3.29 6.86-1.174 12.527-1.097 12.593.17.258 4.97-2.81 10.83-5.75 10.983-6.936.36-39.768 20.604-50.383 31.066-12.834 12.65-22.182 31.568-21.558 43.622.495 9.54 11.9 22.938 20.547 24.135 3.253.45 7.478.313 9.386-.311 1.909-.623 4.52-1.186 5.804-1.253 4.049-.21 19.756-16.912 25.149-26.742 2.847-5.19 8.922-21.167 13.497-35.504l8.315-26.066 14.312-5.005c13.681-4.786 14.635-4.797 21.665-.213 7.492 4.885 13.12 4.637 39.83-1.765 9.811-2.351 9.814-2.349 10.291 6.857.558 10.764 10.18 21.573 21.116 23.723 11.261 2.213 26.687-4.862 38.894-17.835 10.97-11.658 14.894-22.419 6.877-18.856-2.136.95-3.836 2.667-3.776 3.813.06 1.146-5.453 6.072-12.25 10.948-29.223 20.965-51.339 3.41-35.142-27.896 12.322-23.82 11.88-55.601-.935-67.154-12.79-11.53-36.202-3.653-53.784 18.094-11.32 14.002-14.495 21.708-8.825 21.414 1.453-.075 2.57-1.527 2.482-3.222-.087-1.696.614-2.39 1.556-1.54 3.71 3.345-8.688 30.54-16.723 36.68-9.042 6.91-19.65 8.743-19.924 3.444-.356-6.868 13.417-56.09 19.1-68.26 6.545-14.013 7.147-19.76 2.048-19.495zm58.596 16.247c2.64-.2 4.362.844 7.052 3.27 2.87 2.587 6.282 10.295 7.583 17.127 2.151 11.309 1.881 12.446-3.021 12.7-5.917.307-10.605 11.834-9.95 24.469.31 5.982-1.422 8.079-9.934 12.008-5.67 2.616-14.75 5.7-20.177 6.857-18.317 3.903-18.561-2.283-1.602-40.978 11.737-26.778 13.83-29.878 22.413-33.213 3.123-1.213 5.322-1.95 7.095-2.184.185-.024.365-.043.54-.056zM140.63 89.94c.083-.002.163 0 .237.005.319.024.56.11.717.258 1.251 1.202-.86 11.803-4.694 23.555-5.248 16.087-10.155 25.016-19.86 36.134-13.724 15.722-22.76 19.076-31.111 11.548-10.227-9.22-3.567-31.087 14.12-46.357 13.623-11.761 35.351-25.053 40.591-25.143zM-36.702 28.89c5.813-.302 11.364.603 12.337 2.01 1.067 1.542-2.428 2.775-8.801 3.105-5.813.301-11.364-.603-12.337-2.01-1.067-1.542 2.428-2.775 8.801-3.105zM-52.32 4.355a3.77 3.77 0 00-.223.021c-.803.102-1.693.46-2.606 1.14-1.442 1.07-6.563 13.437-11.383 27.481C-77.008 63.52-78.886 88.1-71.51 98.176c3.853 5.265 6.843 6.346 16.185 5.862 9.71-.503 13.306-2.396 23.592-12.442 16.235-15.855 25.995-33.585 25.35-46.043-.47-9.046.281-10.149 9.231-13.57C20.334 25.3 34.512 16.745 34.318 12.996c-.253-4.885-.81-4.772-24.029 4.832-18.949 7.838-20.513 8.088-27.69 4.483-4.183-2.102-13.394-5.065-20.47-6.587-8.699-1.871-12.492-3.92-11.707-6.332 1.013-3.115-.46-5.18-2.743-5.037zm-6.403 37.198c.79-.013 1.707.184 2.809.518 3.15.956 13.394 1.509 22.764 1.226 9.371-.281 17.51.683 18.083 2.147 3.407 8.692-16.419 37.071-30.69 43.935-10.59 5.093-12.432 5.126-17.758.325-5.632-5.077-6.368-20.335-1.76-36.566 2.398-8.447 3.628-11.308 6.22-11.566a4.11 4.11 0 01.332-.019zM46.949 91.965c-4.875-3.05-6.219-6.374-6.754-16.698-.367-7.09.298-15.89 1.479-19.558 4.4-13.665 8.354-48.093 10.202-88.85 2.9-63.95 2.96-64.54 8.82-86.082 6.908-25.399 13.503-37.792 20.296-38.144 16.318-.846 16.516 44.291.525 119.195-6.925 32.44-7.616 37.01-7.364 48.733.112 5.213-1.218 7.35-4.687 7.53-2.665.137-5.504-.344-6.31-1.071-2.28-2.056.666-18.156 10.266-56.097C87.406-94.343 92.08-138.83 84.348-143.072 71.016-150.386 59.712-95.758 59.94-25.131c.062 18.94-.43 35.45-1.093 36.688-.664 1.239-3.262 15.653-5.776 32.032-6.661 43.417-2.965 46.283 34.179 26.503 9.022-4.804 17.459-8.79 18.749-8.856 10.607-.55-13.79 18.358-36.726 28.464-16.133 7.108-14.803 6.973-22.325 2.265zm-232.964-227.892c-4.063.21-9.305 3.974-15.414 11.484-12.738 15.657-14.791 31.911-11.663 92.267 2.466 47.574 2.299 51.052-3.186 66.4-4.352 12.176-7.253 16.484-11.686 17.35-5.676 1.11-8.262 8.853-2.862 8.573 1.453-.075 2.735 1.647 2.848 3.827.298 5.749 6.237 4.55 11.537-2.332 3.864-5.016 4.959-5.347 6.99-2.122 1.325 2.104 2.902 8.464 3.506 14.137.604 5.673 2.31 11.74 3.789 13.485 5.251 6.201 37.388.855 44.633-7.426 9.08-10.378 21.798-33.34 24.69-44.576 1.149-4.459.927-4.346 22.644-11.605 10.307-3.446 14.905-6.328 14.754-9.257-.192-3.697-2.84-3.88-20.258-1.387-18.348 2.626-20.381 2.424-24.117-2.361-5.78-7.404-13.94-6.268-15.598 2.169-1.028 5.23.392 8.505 5.96 13.745 4.02 3.784 7.37 8.017 7.442 9.41.292 5.64-17.513 31.367-24.561 35.487-4.153 2.428-12.24 4.656-17.973 4.953-10.243.53-10.462.349-12.648-10.605-7.074-35.442-7.255-45.435-1.272-69.76 3.228-13.125 6.781-26.897 7.899-30.597 4.168-13.801 12.737-60.165 13.622-73.72 1.202-18.406-2.303-27.897-9.076-27.54zm-3.282 14.263c.21-.006.42 0 .629.025 4.806.436 5.448 2.25 5.795 16.362.424 17.226-5.907 51.947-11.875 65.117-4.665 10.296-7.82 12.575-10.15 7.33-3.044-6.85-4.448-51.872-1.963-63.033 3.062-13.755 10.519-24.909 16.926-25.752v.002c.214-.026.427-.044.638-.05zM-523.66 84.628c-.311-6.001 4.941-19.282 7.693-19.452 1.139-.07 1.703 3.17 1.253 7.2-.45 4.03-.807 9.414-.795 11.963.03 6.141-7.833 6.42-8.151.289zm-11.153-.243c-4.008-4.349-2.31-21.08 2.597-25.602 1.856-1.71 6.737-2.9 10.846-2.643 7.118.444 7.455 1.029 7.159 12.405-.171 6.566-1.449 13.487-2.839 15.38-3.407 4.64-13.667 4.906-17.763.46z" stroke-width="2.646"/>
 </g>
</svg>
