<svg width="6878.5" height="1148.7" viewBox="0 0 1819.9 303.94" xmlns="http://www.w3.org/2000/svg">
   <g id="signature-group" transform="scale(0.1 0.1) translate(0 0) ">
  <path d="M58.466 15.896c-.413.02-.689.285-1.171 1.064-1.813 2.929-2.333 4.87-1.845 6.878.485 2 1.581 4.169 2.239 4.434 1.155.467 2.218.246 4.544-.94 1.296-.662 2.549-1.377 2.782-1.588.48-.434 1.045-.51 1.045-.14 0 .134.309.61.685 1.058.909 1.08 1.752 1.05 3.17-.112.62-.51 1.193-.926 1.271-.926s.44.298.804.661c1.865 1.865 5.992-.326 6.777-3.598.167-.698.482-1.418.7-1.598.343-.285.37-.19.21.715-.26 1.466-.857 3.774-1.06 4.103-.296.478.122 1.527.68 1.703.293.094 1.312-.09 2.263-.406 1.626-.54 1.759-.549 2.222-.13 1.18 1.068 3.619.756 5.881-.752 1.267-.844 1.631-1.425 1.933-3.08.304-1.673.408-1.851 1.073-1.851.354 0 .643.078.643.173 0 .095-.355.924-.789 1.843-.956 2.023-1.264 3.64-.8 4.2.496.597 2.113.46 5.69-.484 2.848-.75 3.184-.902 3.264-1.462.062-.438-.018-.582-.265-.481-2.015.819-5.906 1.72-6.74 1.56-.63-.12-.668-.207-.514-1.17.092-.572.64-1.981 1.219-3.133 1.197-2.38 1.262-2.768.53-3.16-.416-.222-.634-.17-1.06.256-.294.294-.82.535-1.168.535-.67 0-.954-.436-.954-1.468 0-.744-.952-1.39-1.395-.947-.198.197-.175.84.076 2.169.698 3.701-.778 6.137-3.853 6.359-1.533.11-1.94-.236-.972-.825 1.24-.753 1.87-1.88 2.183-3.899.36-2.32-.087-3.77-1.161-3.77-1.402 0-3.351 3.375-3.551 6.149l-.129 1.783-.956.265c-1.198.333-1.884.342-1.884.024 0-.388 1.248-4.825 1.618-5.753.272-.682.27-.917-.013-1.257-.464-.559-.895-.526-1.472.111-.625.69-.873.668-1.507-.137-.288-.367-.885-.853-1.325-1.081-1.55-.802-1.574.445-.051 2.69.493.726.56 1.04.364 1.72-.515 1.796-2.324 3.423-3.806 3.423-.544 0-.693-.161-.832-.898-.092-.494-.038-1.141.121-1.438.159-.297.289-.956.289-1.466s.116-1.23.257-1.602c.32-.842.12-1.404-.579-1.626-.733-.232-.906.136-1.27 2.703-.309 2.17-.324 2.199-1.641 3.324-1.909 1.63-1.97 1.65-2.51.826-.556-.85-.544-3.73.024-5.377.393-1.14.151-1.854-.629-1.854-.634 0-.871.387-.96 1.57-.21 2.803-.53 3.784-1.503 4.62-1.378 1.18-3.023 2.146-4.6 2.7-1.333.468-1.388.468-1.917-.01-.3-.272-.745-1.128-.99-1.903-.404-1.281-.406-1.452-.028-1.878.631-.713 2.14-5.092 2.167-6.29.021-.942-.049-1.066-.638-1.123a1.482 1.482 0 00-.186-.006zm27.744 3.643c.437 0 .219 2.488-.316 3.592-.303.626-.782 1.177-1.093 1.258-.517.135-.542.067-.387-1.058.166-1.217 1.386-3.792 1.796-3.792zM7.295-1.891c-1.726-.01-3.494.602-4.681 1.904C.79 1.71.517 4.327.235 6.659.231 7.416.02 8.425.67 8.981c.412.247 1.003.035 1.005-.497.123-1.084.092-2.189.371-3.255.314-1.27.534-2.626 1.239-3.749.345-.322.324-.858.757-1.112C4.807-.334 5.785-.847 6.85-.78c3.048-.12 6.279.762 8.501 2.931 1.138 1.052 1.388 2.664 1.373 4.139-.06 1.72-.305 3.607-1.449 4.974-1.3 1.006-2.86 1.619-4.358 2.271-.542.159-1.117.546-1.69.42-.39-.537-.247-1.297-.317-1.925.005-1.498-.153-3.001-.544-4.443-.378 2.09-.376 4.262-.861 6.34-.183.63-1.061.853-.965 1.607.014.38.57.379.58.79.161 1.464-.11 2.944-.229 4.405-.217 2.062-.586 4.106-.978 6.138-.1.404.156.834.612.743.464-.07 1.291-.015 1.301-.667.085-3.884.864-7.72.818-11.606 2.385-.957 4.898-1.668 7.152-2.9 1.46-.782 1.897-2.514 2.322-3.969.702-2.482.067-5.389-1.857-7.168-2.046-1.968-4.933-2.798-7.684-3.14-.432-.042-.849-.06-1.281-.053zm39.581 4.258c-.468-.025-.776.59-1.198 2.281-.9 3.598-1.134 6.09-.952 10.12.179 3.967-.252 7.835-.969 8.7-.517.624-3.087 2.156-3.616 2.156-.705 0-.907-.435-.884-1.907.024-1.621 1.284-3.649 2.267-3.649.197 0 .561-.15.81-.331.415-.303.418-.38.036-.926-.23-.328-.625-.595-.878-.595-.568 0-2.193 1.662-2.846 2.91-.606 1.159-.696 4.707-.137 5.382.582.702 1.907.524 3.573-.479 1.26-.76 1.607-.864 2.013-.61.716.446 1.233-.097 1.446-1.517.097-.647.28-1.24.408-1.32.128-.078.422-.798.655-1.6.496-1.703 1.69-3.204 2.349-2.951.676.26.67 2.354-.012 4.573-.386 1.256-.381 1.394.063 2.071.412.629.595.704 1.366.56 1.153-.217 3.96-1.862 4.318-2.532.426-.795-.527-.676-2.214.275-1.901 1.073-2.404 1.059-2.173-.065.098-.473.242-1.706.322-2.74.236-3.068-.883-4.414-2.832-3.406l-.863.446.182-1.813c.747-7.446.739-12.692-.023-12.984a.696.696 0 00-.21-.05zm-.368 3.684c.043-.003.141.095.254.258.175.255.212 1.628.104 3.837-.093 1.892-.313 4.213-.488 5.16l-.318 1.72-.184-1.456c-.296-2.333-.219-5.003.208-7.233.218-1.14.399-2.153.4-2.25.002-.023.009-.035.023-.036zM36.77 4.505c-.273.021-.553.219-.944.58-1.243 1.153-2.838 5.182-2.84 7.177-.001.69-.154.858-1.174 1.277-.645.265-1.508.444-1.917.397-.62-.071-.758-.226-.825-.917-.107-1.096.615-3.83 1.44-5.46.363-.716.606-1.356.54-1.423-.323-.323-2.112 2.432-2.698 4.155-.766 2.253-.843 3.841-.22 4.53.582.643 2.207.631 3.493-.025.549-.28 1.12-.429 1.27-.33.503.328 1.228 4.974 1.087 6.956-.124 1.723-.21 1.94-1.147 2.9-1.267 1.297-2.126 1.344-4.479.244-1.843-.862-2.393-.935-3.902-.516-.794.22-.992.403-.992.91 0 .861.364 1.02.923.404.656-.726 2.252-.549 4.37.485 2.41 1.175 3.319 1.118 4.675-.291.596-.619 1.243-1.422 1.438-1.786.475-.882.396-4.898-.14-7.144-.6-2.513-.549-3.293.252-3.818 1.785-1.17 3.482-3.68 3.714-5.494.13-1.012.054-1.234-.678-1.999-.553-.577-.894-.84-1.246-.812zm-.06 1.852a.65.65 0 01.093.007c1.395.2.416 3.225-1.544 4.774-.506.4-.974.728-1.04.728-.292 0 .445-2.404 1.2-3.915.584-1.165.87-1.554 1.226-1.591a.65.65 0 01.065-.004zM14.303 25.952c-.46-.303-.688-1.318-.494-2.2.138-.631.299-.786.747-.722.44.063.591.294.659 1.006.048.509.207 1.07.353 1.246.533.642-.487 1.182-1.265.67zM8.237 3.837c-.075-.122-.177-.58-.228-1.016-.076-.648.004-.793.436-.793.431 0 .513.146.44.793-.095.854-.428 1.375-.648 1.016z"/>
</g>
</svg>
