<svg xmlns="http://www.w3.org/2000/svg" height="1122.667" width="793.333">
  <defs/>
  <path d="M40 53.333h360v100H40z" fill="#fff"/>
  <text style="-inkscape-font-specification:Frutiger-Bold" transform="matrix(1.33333 0 0 1.33333 46.667 111.333)" font-weight="700" font-size="10" font-family="Frutiger LT Std">
    <tspan y="0" x="0 7.22 12.78 17.22 20 25.56 29.45 35.01 38.9 41.68 47.79 53.9 56.68 62.24 68.35 71.13 77.24 83.35 89.46 95.02 101.13 106.69 109.47 115.58 122.8 125.58 131.14 136.7 139.48 143.37 146.15 151.15 156.71 161.15 165.04 171.15 175.04 180.6 183.38 187.82 193.93 202.82 211.71 217.27 221.16 225.6 228.38 233.94 236.72">Déclaration en douane CN 23 / Facture commerciale</tspan>
  </text>
  <text style="-inkscape-font-specification:Frutiger-Bold" transform="matrix(1.33333 0 0 1.33333 46.667 134)" font-weight="700" font-size="10" font-family="Frutiger LT Std">
    <tspan y="0" x="0 6.11 12.22 16.66 20.55 26.66 35.55 39.99 42.77 48.88 54.44 58.88 61.66 67.22 71.11 76.67 80.56 83.34 89.45 95.56 98.34 104.45 111.67 114.45 120.01 125.57 128.35 132.24 135.02 141.13 147.24 156.13 165.02 170.58 174.47 178.91 181.69 187.25 190.03 192.81 195.59 201.7 207.26 213.37 216.15 220.59">Customs declaration CN 23 / Commercial invoice</tspan>
  </text>
  <path d="M39.333 53.333h361.334M40 52.667V154M39.333 153.333h361.334M400 52.667V154" fill="none" stroke="#363636" stroke-miterlimit="10" stroke-width="1.33333"/>
  <text style="-inkscape-font-specification:Frutiger-Bold" transform="matrix(1.33333 0 0 1.33333 46.667 162.8)" font-weight="700" font-size="6" font-family="Frutiger LT Std" fill="#fff">
    <tspan y="0" x="0 3.666 7.332 10.998 13.332 16.668 19.332">Contact</tspan>
  </text>
  <path d="M39.333 153.333h361.334M40 152.667V234M39.333 233.333h361.334M400 152.667V234M399.333 53.333h361.334M400 52.667V234M399.333 233.333h361.334M760 52.667V234" fill="none" stroke="#363636" stroke-miterlimit="10" stroke-width="1.33333"/>
  <text style="-inkscape-font-specification:Frutiger-Bold" transform="matrix(1.33333 0 0 1.33333 46.667 241.467)" font-weight="700" font-size="6" font-family="Frutiger LT Std" fill="#fff">
    <tspan y="0" x="0 3.336 6.672 10.338 13.674 17.34 19.008 21.342 24.678 28.344 30.678 32.346 34.68 36.348 39.684 43.02 46.686 50.352 53.688">Expéditeur / Sender</tspan>
  </text>
  <text style="-inkscape-font-specification:Frutiger-Light" transform="matrix(1.33333 0 0 1.33333 46.667 246.8)" font-weight="300" font-size="6" font-family="Frutiger LT Std">
    <tspan y="0" x="0 3 5.664 9 12 15.336 16.668 18.666 21.666 25.002">Expéditeur</tspan>
  </text>
  <text style="-inkscape-font-specification:Frutiger-LightItalic" transform="matrix(1.33333 0 0 1.33333 46.667 256.133)" font-style="italic" font-weight="300" font-size="6" font-family="Frutiger LT Std">
    <tspan y="0" x="0 3 6 9.336 12.672 15.672">Sender</tspan>
  </text>
  <text style="-inkscape-font-specification:Frutiger-Light" transform="matrix(1.33333 0 0 1.33333 140 255.733)" font-weight="300" font-size="8" font-family="Frutiger LT Std">
    <tspan y="0" x="0 4.8 9.248 13.696 15.92 20.368 24.816 27.04 31.488 35.936 40.384 42.608 47.056 51.504 53.728 58.176">+41 79 276 01 53</tspan>
  </text>
  <text style="-inkscape-font-specification:Frutiger-Light" transform="matrix(1.33333 0 0 1.33333 46.667 269.467)" font-weight="300" font-size="6" font-family="Frutiger LT Std">
    <tspan y="0" x="0 4.002 7.338">Nom</tspan>
  </text>
  <text style="-inkscape-font-specification:Frutiger-LightItalic" transform="matrix(1.33333 0 0 1.33333 46.667 278.8)" font-style="italic" font-weight="300" font-size="6" font-family="Frutiger LT Std">
    <tspan y="0" x="0 4.002 7.002 12">Name</tspan>
  </text>
  <text style="-inkscape-font-specification:Frutiger-Light" transform="matrix(1.33333 0 0 1.33333 140 278.4)" font-weight="300" font-size="8" font-family="Frutiger LT Std">
    <tspan y="0" x="0 4 7.552 12 16 20.448 23.112 27.112">Scheurer</tspan>
  </text>
  <text style="-inkscape-font-specification:Frutiger-Light" transform="matrix(1.33333 0 0 1.33333 46.667 292.133)" font-weight="300" font-size="6" font-family="Frutiger LT Std">
    <tspan y="0" x="0 3 4.998 7.998 11.334 14.67">Prénom</tspan>
  </text>
  <text style="-inkscape-font-specification:Frutiger-LightItalic" transform="matrix(1.33333 0 0 1.33333 46.667 301.467)" font-style="italic" font-weight="300" font-size="6" font-family="Frutiger LT Std">
    <tspan y="0" x="0 2.664 3.996 5.994 8.328 10.326 11.994 15.996 18.996 23.994">First Name</tspan>
  </text>
  <text style="-inkscape-font-specification:Frutiger-Light" transform="matrix(1.33333 0 0 1.33333 140 301.067)" font-weight="300" font-size="8" font-family="Frutiger LT Std">
    <tspan y="0" x="0 4 5.776 8.44 12.888 16 20">Piroska</tspan>
  </text>
  <text style="-inkscape-font-specification:Frutiger-Light" transform="matrix(1.33333 0 0 1.33333 46.667 314.8)" font-weight="300" font-size="6" font-family="Frutiger LT Std">
    <tspan y="0" x="0 3.336 6.672">Rue</tspan>
  </text>
  <text style="-inkscape-font-specification:Frutiger-LightItalic" transform="matrix(1.33333 0 0 1.33333 46.667 324.133)" font-style="italic" font-weight="300" font-size="6" font-family="Frutiger LT Std">
    <tspan y="0" x="0 3 4.998 6.996 9.996 12.996">Street</tspan>
  </text>
  <text style="-inkscape-font-specification:Frutiger-Light" transform="matrix(1.33333 0 0 1.33333 140 319.733)" font-weight="300" font-size="8" font-family="Frutiger LT Std">
    <tspan y="0" x="0 4.888 8.888 13.336 17.784 21.784 23.56 27.56 32.008 34.672 36.448 40.896 45.344 47.568 52.016 56.464">Kappelenring 18a</tspan>
  </text>
  <text style="-inkscape-font-specification:Frutiger-Light" transform="matrix(1.33333 0 0 1.33333 46.667 353.467)" font-weight="300" font-size="6" font-family="Frutiger LT Std">
    <tspan y="0" x="0 4.002 7.002 11.004 12.672 14.34 16.008 18.672 20.004 23.004 26.34 28.008 29.676 31.344 34.344 37.344 40.008">NPA / Lieu / Pays</tspan>
  </text>
  <text style="-inkscape-font-specification:Frutiger-LightItalic" transform="matrix(1.33333 0 0 1.33333 46.667 362.8)" font-style="italic" font-weight="300" font-size="6" font-family="Frutiger LT Std">
    <tspan y="0" x="0 3 4.332 7.332 9 12.666 16.002 19.338 22.338 24.006 25.674 27.342 31.008 32.34 34.338 37.002 38.67 40.338 42.006 45.672 49.008 52.344 55.68 57.678 59.676">ZIP Code / City / Country</tspan>
  </text>
  <text style="-inkscape-font-specification:Frutiger-Light" transform="matrix(1.33333 0 0 1.33333 140 362.4)" font-weight="300" font-size="8" font-family="Frutiger LT Std">
    <tspan y="0" x="0 4.448 8.896 13.344 17.792 20.016 25.352 27.128 31.576 34.24 38.24 40.904 44.904 48.904 53.352 57.8 61.8 63.576 67.576 72.024 74.248 76.912 79.136 84.472">3032 Hinterkappelen - CH</tspan>
  </text>
  <path d="M39.333 233.333h361.334M40 232.667V394M39.333 393.333h361.334M400 232.667V394" fill="none" stroke="#363636" stroke-miterlimit="10" stroke-width="1.33333"/>
  <text style="-inkscape-font-specification:Frutiger-Bold" transform="matrix(1.33333 0 0 1.33333 406.667 241.467)" font-weight="700" font-size="6" font-family="Frutiger LT Std" fill="#fff">
    <tspan y="0" x="0 4.332 7.668 10.332 12.666 14.334 18 21.336 23.67 27.006 28.674 31.008 34.344 36.012 38.346 40.014 44.346 48.012 51.678 54.012 57.348 60.012 62.676 66.012">Destinataire / Addressee</tspan>
  </text>
  <text style="-inkscape-font-specification:Frutiger-Light" transform="matrix(1.33333 0 0 1.33333 406.667 246.8)" font-weight="300" font-size="6" font-family="Frutiger LT Std">
    <tspan y="0" x="0 4.002 7.002 9.336 11.334 12.666 16.002 19.002 21 24 25.332 27.33">Destinataire</tspan>
  </text>
  <text style="-inkscape-font-specification:Frutiger-LightItalic" transform="matrix(1.33333 0 0 1.33333 406.667 256.133)" font-style="italic" font-weight="300" font-size="6" font-family="Frutiger LT Std">
    <tspan y="0" x="0 4.002 7.338 10.674 12.672 15.672 18.006 20.34 23.34">Addressee</tspan>
  </text>
  <text style="-inkscape-font-specification:Frutiger-Light" transform="matrix(1.33333 0 0 1.33333 500 255.733)" font-weight="300" font-size="8" font-family="Frutiger LT Std">
    <tspan y="0" x="0 4.8 9.248 13.696 15.92 20.368 24.816 27.04 31.488 35.936 40.384 44.832 47.056 51.504 55.952 60.4">+49 30 2759 5290</tspan>
  </text>
  <text style="-inkscape-font-specification:Frutiger-Light" transform="matrix(1.33333 0 0 1.33333 406.667 269.467)" font-weight="300" font-size="6" font-family="Frutiger LT Std">
    <tspan y="0" x="0 4.002 7.338">Nom</tspan>
  </text>
  <text style="-inkscape-font-specification:Frutiger-LightItalic" transform="matrix(1.33333 0 0 1.33333 406.667 278.8)" font-style="italic" font-weight="300" font-size="6" font-family="Frutiger LT Std">
    <tspan y="0" x="0 4.002 7.002 12">Name</tspan>
  </text>
  <text style="-inkscape-font-specification:Frutiger-Light" transform="matrix(1.33333 0 0 1.33333 500 278.4)" font-weight="300" font-size="8" font-family="Frutiger LT Std">
    <tspan y="0" x="0 3.552 6.216 10.216 14.216 16.44 20.44 24.888 27.552 30.216 36.44 40.44 43.104 47.104 49.328 52.88 57.328 61.776 66.224 70.672 74.672 77.336 79.112 83.56 88.008 90.232 94.232 98.68 101.344 105.792">Free Software Foundation Europ</tspan>
  </text>
  <text style="-inkscape-font-specification:Frutiger-Light" transform="matrix(1.33333 0 0 1.33333 406.667 292.133)" font-weight="300" font-size="6" font-family="Frutiger LT Std">
    <tspan y="0" x="0 3 4.998 7.998 11.334 14.67">Prénom</tspan>
  </text>
  <text style="-inkscape-font-specification:Frutiger-LightItalic" transform="matrix(1.33333 0 0 1.33333 406.667 301.467)" font-style="italic" font-weight="300" font-size="6" font-family="Frutiger LT Std">
    <tspan y="0" x="0 2.664 3.996 5.994 8.328 10.326 11.994 15.996 18.996 23.994">First Name</tspan>
  </text>
  <text style="-inkscape-font-specification:Frutiger-Light" transform="matrix(1.33333 0 0 1.33333 406.667 314.8)" font-weight="300" font-size="6" font-family="Frutiger LT Std">
    <tspan y="0" x="0 3.336 6.672">Rue</tspan>
  </text>
  <text style="-inkscape-font-specification:Frutiger-LightItalic" transform="matrix(1.33333 0 0 1.33333 406.667 324.133)" font-style="italic" font-weight="300" font-size="6" font-family="Frutiger LT Std">
    <tspan y="0" x="0 3 4.998 6.996 9.996 12.996">Street</tspan>
  </text>
  <text style="-inkscape-font-specification:Frutiger-Light" transform="matrix(1.33333 0 0 1.33333 500 321.867)" font-weight="300" font-size="8" font-family="Frutiger LT Std">
    <tspan y="0" x="0 4 6.664 10.664 15.112 19.56 23.56 28.008 32.456 36.456 40.904 44.016 46.24 50.688 52.912 55.136 59.584 61.808 64.032 68.032 70.696 75.144 78.696">Treppenhaus 2, 5. Stock</tspan>
  </text>
  <text style="-inkscape-font-specification:Frutiger-Light" transform="matrix(1.33333 0 0 1.33333 500 334.653)" font-weight="300" font-size="8" font-family="Frutiger LT Std">
    <tspan y="0" x="0 4 7.552 12 16.448 20.896 25.344 29.344 33.792 36.904 40.904 43.568 45.792 51.128 52.904 54.68 58.68 62.68 64.904 69.352 71.576">Schönhauser Allee 6/7</tspan>
  </text>
  <text style="-inkscape-font-specification:Frutiger-Light" transform="matrix(1.33333 0 0 1.33333 406.667 353.467)" font-weight="300" font-size="6" font-family="Frutiger LT Std">
    <tspan y="0" x="0 4.002 7.002 11.004 12.672 14.34 16.008 18.672 20.004 23.004">NPA / Lieu</tspan>
  </text>
  <text style="-inkscape-font-specification:Frutiger-LightItalic" transform="matrix(1.33333 0 0 1.33333 406.667 362.8)" font-style="italic" font-weight="300" font-size="6" font-family="Frutiger LT Std">
    <tspan y="0" x="0 3 4.332 7.332 9 12.666 16.002 19.338 22.338 24.006 25.674 27.342 31.008 32.34 34.338">ZIP Code / City</tspan>
  </text>
  <text style="-inkscape-font-specification:Frutiger-Light" transform="matrix(1.33333 0 0 1.33333 500 362.4)" font-weight="300" font-size="8" font-family="Frutiger LT Std">
    <tspan y="0" x="0 4.448 8.896 13.344 17.792 22.24 24.464 28.912 32.912 35.576 37.352 39.128">10119 Berlin</tspan>
  </text>
  <text style="-inkscape-font-specification:Frutiger-Light" transform="matrix(1.33333 0 0 1.33333 406.667 376.133)" font-weight="300" font-size="6" font-family="Frutiger LT Std">
    <tspan y="0" x="0 3 6 8.664">Pays</tspan>
  </text>
  <text style="-inkscape-font-specification:Frutiger-LightItalic" transform="matrix(1.33333 0 0 1.33333 406.667 385.467)" font-style="italic" font-weight="300" font-size="6" font-family="Frutiger LT Std">
    <tspan y="0" x="0 3.666 7.002 10.338 13.674 15.672 17.67">Country</tspan>
  </text>
  <text style="-inkscape-font-specification:Frutiger-Light" transform="matrix(1.33333 0 0 1.33333 500 385.067)" font-weight="300" font-size="8" font-family="Frutiger LT Std">
    <tspan y="0" x="0 5.776 9.776 12.44 19.104 23.104 27.552">Germany</tspan>
  </text>
  <path d="M399.333 233.333h361.334M400 232.667V394M399.333 393.333h361.334M760 232.667V394" fill="none" stroke="#363636" stroke-miterlimit="10" stroke-width="1.33333"/>
  <text style="-inkscape-font-specification:Frutiger-Light" transform="matrix(1.33333 0 0 1.33333 406.667 404.4)" font-weight="300" font-size="6" font-family="Frutiger LT Std">
    <tspan y="0" x="0 4.002 7.338 10.674 13.674 15.342 16.674 19.674 24.006 25.674 29.01">Code ISO du</tspan>
  </text>
  <text style="-inkscape-font-specification:Frutiger-Light" transform="matrix(1.33333 0 0 1.33333 406.667 413.987)" font-weight="300" font-size="6" font-family="Frutiger LT Std">
    <tspan y="0" x="0 3 6 8.664 10.998 12.666 15.666 17.664 19.332 23.334 26.334">Pays et NPA</tspan>
  </text>
  <text style="-inkscape-font-specification:Frutiger-LightItalic" transform="matrix(1.33333 0 0 1.33333 406.667 423.067)" font-style="italic" font-weight="300" font-size="6" font-family="Frutiger LT Std">
    <tspan y="0" x="0 3.666 7.002 10.338 13.674 15.672 17.67 20.334 22.002 23.334 26.334 30.666 32.334 36 39.336 42.672">Country ISO Code</tspan>
  </text>
  <text style="-inkscape-font-specification:Frutiger-LightItalic" transform="matrix(1.33333 0 0 1.33333 406.667 432.653)" font-style="italic" font-weight="300" font-size="6" font-family="Frutiger LT Std">
    <tspan y="0" x="0 3 6.336 9.672 11.34 14.34 15.672 18.672 20.34 24.006 27.342 30.678">and ZIP Code</tspan>
  </text>
  <text style="-inkscape-font-specification:Frutiger-Bold" transform="matrix(1.33333 0 0 1.33333 480 420.253)" font-weight="700" font-size="12" font-family="Frutiger LT Std" fill="#666">
    <tspan y="0" x="0 8.664 15.336 18.672 22.668 26.004 32.676 39.348 46.02 52.692">DE - 10119</tspan>
  </text>
  <path d="M399.333 393.333h361.334M400 392.667v48M399.333 440h361.334M760 392.667v48" fill="none" stroke="#363636" stroke-miterlimit="10" stroke-width="1.33333"/>
  <text style="-inkscape-font-specification:Frutiger-Light" transform="matrix(1.33333 0 0 1.33333 406.667 453.467)" font-weight="300" font-size="6" font-family="Frutiger LT Std">
    <tspan y="0" x="0 4.002 6.402 8.07 11.07 14.736 18.738 20.406 22.074 23.742 26.742 31.074 34.41 35.742 37.41 40.746 44.082 45.75 49.086 52.086 54.42 56.418 57.75 61.086 64.086 66.084 69.084 70.416 72.414">N° TVA / EORI du destinataire</tspan>
  </text>
  <text style="-inkscape-font-specification:Frutiger-LightItalic" transform="matrix(1.33333 0 0 1.33333 406.667 462.8)" font-style="italic" font-weight="300" font-size="6" font-family="Frutiger LT Std">
    <tspan y="0" x="0 3.666 7.668 10.668 12.336 14.004 15.672 18.672 23.004 26.34 27.672 29.34 33.342 36.678 38.346 41.682 43.68 45.348 47.346 50.682 53.682 55.35 58.35 61.686 65.022 67.02 70.02 72.354 74.688 77.688">VAT / EORI No of the addressee</tspan>
  </text>
  <path d="M399.333 440h361.334M400 439.333V474M399.333 473.333h361.334M760 439.333V474" fill="none" stroke="#363636" stroke-miterlimit="10" stroke-width="1.33333"/>
  <text style="-inkscape-font-specification:Frutiger-Bold" transform="matrix(1.33333 0 0 1.33333 46.667 401.467)" font-weight="700" font-size="6" font-family="Frutiger LT Std" fill="#fff">
    <tspan y="0" x="0 3.336 6.672 10.338 13.674 15.342 19.008 22.344 24.012 26.676 30.342 34.008 36.342 39.678 43.344 47.01 48.678 51.012 52.68 56.346 60.012 63.678 66.012 69.348 73.014 75.348 77.016 79.35 82.686 86.352">Type de contenu / Content type</tspan>
  </text>
  <text style="-inkscape-font-specification:Frutiger-Light" transform="matrix(1.33333 0 0 1.33333 66.667 402.8)" font-weight="300" font-size="6" font-family="Frutiger LT Std">
    <tspan y="0" x="0 4.002 7.338 10.002 13.338 18.336 21.336 24.672 26.67">Documents</tspan>
  </text>
  <text style="-inkscape-font-specification:Frutiger-LightItalic" transform="matrix(1.33333 0 0 1.33333 66.667 413.467)" font-style="italic" font-weight="300" font-size="6" font-family="Frutiger LT Std">
    <tspan y="0" x="0 4.002 7.338 10.002 13.338 18.336 21.336 24.672 26.67">Documents</tspan>
  </text>
  <text style="-inkscape-font-specification:Frutiger-Light" transform="matrix(1.33333 0 0 1.33333 66.667 424.133)" font-weight="300" font-size="6" font-family="Frutiger LT Std">
    <tspan y="0" x="0 5.334 8.334 10.332 12.996 16.332 19.332 22.668 26.004 27.336 29.67 32.67">Marchandises</tspan>
  </text>
  <text style="-inkscape-font-specification:Frutiger-LightItalic" transform="matrix(1.33333 0 0 1.33333 66.667 434.8)" font-style="italic" font-weight="300" font-size="6" font-family="Frutiger LT Std">
    <tspan y="0" x="0 4.332 7.668 11.004 14.34">Goods</tspan>
  </text>
  <text style="-inkscape-font-specification:Frutiger-Light" transform="matrix(1.33333 0 0 1.33333 161.333 402.8)" font-weight="300" font-size="6" font-family="Frutiger LT Std">
    <tspan y="0" x="0 3 5.664 9 12 15.336 17.334 18.666 19.998 21.33 24.666 28.002">Echantillons</tspan>
  </text>
  <text style="-inkscape-font-specification:Frutiger-LightItalic" transform="matrix(1.33333 0 0 1.33333 161.333 413.467)" font-style="italic" font-weight="300" font-size="6" font-family="Frutiger LT Std">
    <tspan y="0" x="0 3 6 10.998 14.334 15.666 18.666">Samples</tspan>
  </text>
  <text style="-inkscape-font-specification:Frutiger-Light" transform="matrix(1.33333 0 0 1.33333 161.333 424.133)" font-weight="300" font-size="6" font-family="Frutiger LT Std">
    <tspan y="0" x="0 3.336 6.336 8.334 11.67 15.006 17.004 18.672 22.008 25.008 26.676 31.674 34.674 36.672 39.336 42.672 45.672 49.008 52.344 53.676 56.01 59.01">Retour de marchandises</tspan>
  </text>
  <text style="-inkscape-font-specification:Frutiger-LightItalic" transform="matrix(1.33333 0 0 1.33333 161.333 434.8)" font-style="italic" font-weight="300" font-size="6" font-family="Frutiger LT Std">
    <tspan y="0" x="0 3.336 6.336 8.334 11.67 13.668 17.004 20.004 23.34 25.008 29.34 32.676 36.012 39.348">Returned Goods</tspan>
  </text>
  <text style="-inkscape-font-specification:Frutiger-Light" transform="matrix(1.33333 0 0 1.33333 298.667 402.8)" font-weight="300" font-size="6" font-family="Frutiger LT Std">
    <tspan y="0" x="0 4.002 7.002 10.338 13.338 16.338">Cadeau</tspan>
  </text>
  <text style="-inkscape-font-specification:Frutiger-LightItalic" transform="matrix(1.33333 0 0 1.33333 298.667 413.467)" font-style="italic" font-weight="300" font-size="6" font-family="Frutiger LT Std">
    <tspan y="0" x="0 3 4.998 7.998 10.332 13.332 16.668">Present</tspan>
  </text>
  <text style="-inkscape-font-specification:Frutiger-Light" transform="matrix(1.33333 0 0 1.33333 298.667 424.133)" font-weight="300" font-size="6" font-family="Frutiger LT Std">
    <tspan y="0" x="0 4.002 7.338 9.336 11.334">Autre</tspan>
  </text>
  <text style="-inkscape-font-specification:Frutiger-LightItalic" transform="matrix(1.33333 0 0 1.33333 298.667 434.8)" font-style="italic" font-weight="300" font-size="6" font-family="Frutiger LT Std">
    <tspan y="0" x="0 4.332 6.33 9.666 12.666">Other</tspan>
  </text>
  <path d="M39.333 393.333h361.334M40 392.667v48M39.333 440h361.334M400 392.667v48M39.333 473.333h721.334M40 472.667V594M39.333 593.333h721.334M760 472.667V594" fill="none" stroke="#363636" stroke-miterlimit="10" stroke-width="1.33333"/>
  <text style="-inkscape-font-specification:Frutiger-Bold" transform="matrix(1.33333 0 0 1.33333 46.667 481.467)" font-weight="700" font-size="6" font-family="Frutiger LT Std" fill="#fff">
    <tspan y="0" x="0 3.666 7.332 10.998 13.332 16.668 20.334 24 25.668 29.334 32.67 34.338 36.006 37.674 41.01 44.676 48.012 51.678 53.346 55.014 57.348 59.016 62.682 66.348 70.014 72.348 75.684 79.35 83.016 84.684 88.35 91.686 93.354 95.022 96.69 100.026 103.692 107.028 110.694">Contenu de l&apos;envoi / Contenu de l&apos;envoi</tspan>
  </text>
  <text style="-inkscape-font-specification:Frutiger-Light" transform="matrix(1.33333 0 0 1.33333 46.667 482.8)" font-weight="300" font-size="6" font-family="Frutiger LT Std">
    <tspan y="0" x="0 4.332 7.668 10.668 14.004 16.002 17.334 19.332">Quantité</tspan>
  </text>
  <text style="-inkscape-font-specification:Frutiger-LightItalic" transform="matrix(1.33333 0 0 1.33333 46.667 492.133)" font-style="italic" font-weight="300" font-size="6" font-family="Frutiger LT Std">
    <tspan y="0" x="0 4.332 7.668 10.668 14.004 16.002 17.334 19.332">Quantity</tspan>
  </text>
  <text style="-inkscape-font-specification:Frutiger-Light" transform="matrix(1.33333 0 0 1.33333 173.333 482.8)" font-weight="300" font-size="6" font-family="Frutiger LT Std">
    <tspan y="0" x="0 4.002 7.002 9.336 12 13.998 15.33 18.666 20.664 21.996 25.332 28.668 30.336 33.672 36.672 38.67 41.67 43.002 44.334 45.666 48.666 51.666 53.334 56.67 60.006 61.674 64.338 67.674 71.01 73.008 76.008 79.344">Description détaillée du contenu</tspan>
  </text>
  <text style="-inkscape-font-specification:Frutiger-LightItalic" transform="matrix(1.33333 0 0 1.33333 173.333 492.133)" font-style="italic" font-weight="300" font-size="6" font-family="Frutiger LT Std">
    <tspan y="0" x="0 4.002 7.002 9 12 13.332 14.664 17.664 21 22.668 26.004 29.004 31.338 34.002 36 37.332 40.668 42.666 43.998 47.334 50.67 52.338 55.674 57.672 59.34 62.004 65.34 68.676 70.674 73.674 77.01 79.008">Detailed description of contents</tspan>
  </text>
  <text style="-inkscape-font-specification:Frutiger-Light" transform="matrix(1.33333 0 0 1.33333 406.667 482.8)" font-weight="300" font-size="6" font-family="Frutiger LT Std">
    <tspan y="0" x="0 4.002 6.402 8.07 10.068 13.068 15.066 16.398 18.396 21.396 22.728 24.726">N° tarifaire</tspan>
  </text>
  <text style="-inkscape-font-specification:Frutiger-LightItalic" transform="matrix(1.33333 0 0 1.33333 406.667 492.133)" font-style="italic" font-weight="300" font-size="6" font-family="Frutiger LT Std">
    <tspan y="0" x="0 3 6 7.998 9.33 11.328 13.326 14.994 18.996">Tariff No</tspan>
  </text>
  <text style="-inkscape-font-specification:Frutiger-Light" transform="matrix(1.33333 0 0 1.33333 533.333 482.8)" font-weight="300" font-size="6" font-family="Frutiger LT Std">
    <tspan y="0" x="0 3 6.336 7.668 11.004 13.338 15.006 18.342 21.342 23.34 25.008 28.008 31.344 33.012 36.012">Poids net en kg</tspan>
  </text>
  <text style="-inkscape-font-specification:Frutiger-LightItalic" transform="matrix(1.33333 0 0 1.33333 533.333 492.133)" font-style="italic" font-weight="300" font-size="6" font-family="Frutiger LT Std">
    <tspan y="0" x="0 4.002 7.002 9 10.668 15.336 18.336 19.668 23.004 26.34 28.338 30.006 31.338 34.674 36.342 39.342">Net weight in kg</tspan>
  </text>
  <text style="-inkscape-font-specification:Frutiger-Light" transform="matrix(1.33333 0 0 1.33333 600 482.8)" font-weight="300" font-size="6" font-family="Frutiger LT Std">
    <tspan y="0" x="0 3.666 6.666 7.998 10.998 14.334 16.332 18 21 24.336 26.004 30.006 34.008">Valeur en CHF</tspan>
  </text>
  <text style="-inkscape-font-specification:Frutiger-LightItalic" transform="matrix(1.33333 0 0 1.33333 600 492.133)" font-style="italic" font-weight="300" font-size="6" font-family="Frutiger LT Std">
    <tspan y="0" x="0 3.666 6.666 7.998 11.334 14.334 16.002 17.334 20.67 22.338 26.004 30.006">Value in CHF</tspan>
  </text>
  <text style="-inkscape-font-specification:Frutiger-Light" transform="matrix(1.33333 0 0 1.33333 666.667 482.8)" font-weight="300" font-size="6" font-family="Frutiger LT Std">
    <tspan y="0" x="0 3 6 8.664 10.998 12.666 16.002 17.67 21.006 23.004 24.336 27.672 29.004 32.34">Pays d‘origine</tspan>
  </text>
  <text style="-inkscape-font-specification:Frutiger-LightItalic" transform="matrix(1.33333 0 0 1.33333 666.667 492.133)" font-style="italic" font-weight="300" font-size="6" font-family="Frutiger LT Std">
    <tspan y="0" x="0 3.666 7.002 10.338 13.674 15.672 17.67 20.334 22.002 25.338 27.336 29.004 32.34 34.338 35.67 39.006 40.338">Country of origin</tspan>
  </text>
  <text style="-inkscape-font-specification:Frutiger-Light" transform="matrix(1.33333 0 0 1.33333 80.733 509.067)" font-weight="300" font-size="8" font-family="Frutiger LT Std">
    <tspan y="0" x="0">1</tspan>
  </text>
  <text style="-inkscape-font-specification:Frutiger-Light" transform="matrix(1.33333 0 0 1.33333 100 509.067)" font-weight="300" font-size="8" font-family="Frutiger LT Std">
    <tspan y="0" x="0 4 7.552 12 16 17.776 19.552 24 25.776 29.776 32.44 35.104 39.104">Schallplatten</tspan>
  </text>
  <text style="-inkscape-font-specification:Frutiger-Light" transform="matrix(1.33333 0 0 1.33333 559.973 509.067)" font-weight="300" font-size="8" font-family="Frutiger LT Std">
    <tspan y="0" x="0 4.448 6.672 11.12 15.568">0.640</tspan>
  </text>
  <text style="-inkscape-font-specification:Frutiger-Light" transform="matrix(1.33333 0 0 1.33333 626.64 509.067)" font-weight="300" font-size="8" font-family="Frutiger LT Std">
    <tspan y="0" x="0 4.448 8.896 11.12 15.568">12.80</tspan>
  </text>
  <text style="-inkscape-font-specification:Frutiger-Light" transform="matrix(1.33333 0 0 1.33333 666.667 509.067)" font-weight="300" font-size="8" font-family="Frutiger LT Std">
    <tspan y="0" x="0 5.336">CH</tspan>
  </text>
  <path d="M94 473.333v120M400.667 473.333v120M527.333 473.333v120M594 473.333v120M660.667 473.333v120" fill="none" stroke="#666" stroke-width=".666665" stroke-miterlimit="10"/>
  <path d="M40 440h360v33.333H40z" fill="#e5e5e5"/>
  <text style="-inkscape-font-specification:Frutiger-Bold" transform="matrix(1.33333 0 0 1.33333 46.667 448.133)" font-weight="700" font-size="6" font-family="Frutiger LT Std" fill="#e5e5e5">
    <tspan y="0" x="0 3.336 7.002 9.336 12.672">Total</tspan>
  </text>
  <text style="-inkscape-font-specification:Frutiger-LightItalic" transform="matrix(1.33333 0 0 1.33333 46.667 464.133)" font-style="italic" font-weight="300" font-size="6" font-family="Frutiger LT Std">
    <tspan y="0" x="0 3 6.336 8.334 11.334 12.666 14.334 17.67 19.668 23.004 25.338 27.672 29.34 34.008 37.008 38.34 41.676 45.012">Total gross weight</tspan>
  </text>
  <text style="-inkscape-font-specification:Frutiger-Bold" transform="matrix(1.33333 0 0 1.33333 141.333 461.587)" font-weight="700" font-size="12" font-family="Frutiger LT Std" fill="#666">
    <tspan y="0" x="0 6.672">kg</tspan>
  </text>
  <text style="-inkscape-font-specification:Frutiger-Light" transform="matrix(1.33333 0 0 1.33333 46.667 453.467)" font-weight="300" font-size="6" font-family="Frutiger LT Std">
    <tspan y="0" x="0 3 6.336 7.668 11.004 13.338 15.006 18.342 20.34 23.676 25.674 27.342 29.34 32.676 34.674 37.674">Poids brut total</tspan>
  </text>
  <path d="M39.333 440h361.334M40 439.333V474M39.333 473.333h361.334M400 439.333V474" fill="none" stroke="#363636" stroke-miterlimit="10" stroke-width="1.33333"/>
  <text style="-inkscape-font-specification:Frutiger-Light" transform="matrix(1.33333 0 0 1.33333 53.333 608.133)" font-weight="300" font-size="6" font-family="Frutiger LT Std">
    <tspan y="0" x="0 2.664 4.662 7.662 8.994 11.328 12.996 16.332 19.332 21 24.336 27.672 29.67">Frais de port</tspan>
  </text>
  <text style="-inkscape-font-specification:Frutiger-LightItalic" transform="matrix(1.33333 0 0 1.33333 53.333 617.467)" font-style="italic" font-weight="300" font-size="6" font-family="Frutiger LT Std">
    <tspan y="0" x="0 3 6.336 8.67 10.668 13.668 15 16.668 19.332 22.668 25.668 27.666 31.002 34.002">Postal charges</tspan>
  </text>
  <text style="-inkscape-font-specification:Frutiger-Bold" transform="matrix(1.33333 0 0 1.33333 141.333 613.587)" font-weight="700" font-size="12" font-family="Frutiger LT Std">
    <tspan y="0" x="0 6.672 16.008 22.68 31.344">TOTAL</tspan>
  </text>
  <text style="-inkscape-font-specification:Frutiger-Bold" transform="matrix(1.33333 0 0 1.33333 262.667 613.587)" font-weight="700" font-size="12" font-family="Frutiger LT Std" fill="#666">
    <tspan y="0" x="0 6.672 13.344 16.68 23.352 30.024 33.36 40.692 49.356">34.00 CHF</tspan>
  </text>
  <path d="M39.333 593.333h361.334M40 592.667v34.666M39.333 626.667h361.334M400 592.667v34.666" fill="none" stroke="#363636" stroke-miterlimit="10" stroke-width="1.33333"/>
  <text style="-inkscape-font-specification:Frutiger-Light" transform="matrix(1.33333 0 0 1.33333 406.667 606.8)" font-weight="300" font-size="6" font-family="Frutiger LT Std">
    <tspan y="0" x="0 3.666 6.666 7.998 10.998 14.334 16.332 18 21 25.332 28.332 32.334 34.998">Valeur TOTALE</tspan>
  </text>
  <text style="-inkscape-font-specification:Frutiger-LightItalic" transform="matrix(1.33333 0 0 1.33333 406.667 617.467)" font-style="italic" font-weight="300" font-size="6" font-family="Frutiger LT Std">
    <tspan y="0" x="0 3 7.332 10.332 14.334 16.998 18.666 22.332 25.332 26.664 30">TOTAL Value</tspan>
  </text>
  <text style="-inkscape-font-specification:Frutiger-Bold" transform="matrix(1.33333 0 0 1.33333 615.973 614.92)" font-weight="700" font-size="12" font-family="Frutiger LT Std" fill="#666">
    <tspan y="0" x="0 6.672 13.344 16.68 23.352">12.80</tspan>
  </text>
  <text style="-inkscape-font-specification:Frutiger-Bold" transform="matrix(1.33333 0 0 1.33333 662.667 614.92)" font-weight="700" font-size="12" font-family="Frutiger LT Std" fill="#666">
    <tspan y="0" x="0 7.332 15.996">CHF</tspan>
  </text>
  <path d="M399.333 593.333h361.334M400 592.667v34.666M399.333 626.667h361.334M760 592.667v34.666" fill="none" stroke="#363636" stroke-miterlimit="10" stroke-width="1.33333"/>
  <text style="-inkscape-font-specification:Frutiger-Light" transform="matrix(1.33333 0 0 1.33333 53.333 652.453)" font-weight="300" font-size="11" font-family="Frutiger LT Std">
    <tspan y="0" x="0 7.337 12.837 17.721 20.163 25.663 29.326 34.826 38.489 40.931 47.047 53.163 56.221 62.337 66 69.058 75.174 78.837 81.279 87.395 89.837 95.953 99.011 102.069 105.127 112.464 117.964 122.848 125.29 130.79 134.453 139.953 143.616 146.058 152.174 158.29 161.348 167.464 170.522 176.638 180.301 182.743 188.859 191.301 197.417 202.917 205.975 209.033 212.091 219.428 223.091 227.37 233.486 237.149 243.265 249.381 255.497 259.776 265.276 268.939 274.439 276.881 282.381 286.044 292.16 298.276 304.392 307.45 310.508 313.566 319.066 322.729 328.845 333.729 339.229 342.287 348.403 351.461 357.577 361.24 363.682 369.798 372.24 378.356 383.856 387.827">Declaration of origin / Déclaration d‘origine / Ursprungserklärung / Prova d‘origine¹:</tspan>
  </text>
  <text style="-inkscape-font-specification:Frutiger-Light" transform="matrix(1.33333 0 0 1.33333 53.333 675.2)" font-weight="300" font-size="8" font-family="Frutiger LT Std">
    <tspan y="0" x="0 4 8.448 12.448 14.672 18.672 22.224 26.672 31.12 33.784 36.448 40.448 43.112 45.336 49.784 52.448 54.672 57.336 61.784 65.784 68.008 72.456 75.12 79.568 84.016 88.464 92.016 94.68 97.792 100.016 103.568 108.016 111.568 115.568 118.232 122.232 126.68 128.904 133.352 136.904 139.128 141.792 146.24 148.016 151.128 153.352 157.8 162.248 165.8 170.248 176.912 180.912 185.36 188.024 190.248 194.696 198.696 202.248 204.024 208.024 210.688 214.688 217.8 220.024 222.688 227.136 231.136 233.8 236.024 238.248 242.248 245.8 249.352 253.352 257.8 260.464 262.688 268.912 273.36 277.36 280.024 284.024 286.248 290.696 293.36 297.808 301.808 304.472 310.696 312.472 315.584 319.584 321.808 325.36 327.136 331.136 335.136 337.8 339.576 343.128 345.352 347.128 351.576 356.024 357.8 361.352 365.352 368.016 372.016 376.464 378.688 380.912 383.576 388.024 392.024 394.248 398.696 401.36 405.808 410.256 414.704 418.256 420.92 424.032 426.256 430.256 432.92 436.92 439.144 443.592 446.256 448.48 450.704 453.816 457.816 461.816 464.04 467.592 472.04 473.816 478.264 484.928">The exporter of the products covered by this document declares that, except where otherwise clearly indicated, the products are of (see column</tspan>
  </text>
  <text style="-inkscape-font-specification:Frutiger-Light" transform="matrix(1.33333 0 0 1.33333 53.333 687.987)" font-weight="300" font-size="8" font-family="Frutiger LT Std">
    <tspan y="0" x="0 4.448 9.784 14.232 18.68 23.128 25.792 28.456 32.008 34.232 38.68 41.344 43.568 48.016 50.68 52.456 56.904 58.68 63.128 67.576 69.8 72.024 76.472 79.136 83.136 85.8 89.8 92.464 96.464 100.912 103.576 105.352 109.352 111.128 113.352 117.8 120.464 122.24 126.688 128.464 132.912">«Country of origin») preferential origin.</tspan>
  </text>
  <text style="-inkscape-font-specification:Frutiger-LightItalic" transform="matrix(1.33333 0 0 1.33333 53.333 707.2)" font-style="italic" font-weight="300" font-size="8" font-family="Frutiger LT Std">
    <tspan y="0" x="0 3.552 5.776 9.776 13.328 17.776 22.224 24.888 27.552 31.552 34.216 38.216 42.664 45.328 47.552 52 56 59.112 61.336 65.784 68.448 72.896 77.344 81.792 83.568 86.232 89.344 91.568 95.12 99.568 104.016 107.568 111.568 114.232 116.896 120.008 122.232 126.68 130.68 133.344 135.568 137.344 141.344 143.568 148.016 150.68 154.68 157.792 161.792 166.24 168.904 171.128 175.576 180.024 183.576 188.024 194.688 198.688 203.136 205.8 208.024 212.472 216.472 220.024 221.8 225.8 228.464 232.464 234.688 239.136 243.584 247.584 249.808 252.032 255.144 259.144 263.592 266.256 268.48 270.256 274.704 279.152 280.928 284.48 288.48 291.144 292.92 297.368 301.816 304.04 307.592 309.368 313.368 315.144 317.808 321.808 324.032 328.48 332.928 335.152 338.704 343.152 347.6 350.264 352.928 356.928 358.704 361.368 365.368 367.592 369.816 373.368 377.368 380.48 382.704 387.152 389.816 394.264 398.712 403.16 404.936 407.6 410.712 412.936 417.384 421.832 424.496 426.72 428.496 430.72 435.168 437.832 439.608 444.056 445.832 450.28 454.28 456.504 460.952 463.616 467.616 470.28 474.28 476.944 480.944 485.392 488.056 489.832 493.832 495.608 497.384">L‘exportateur des produits couverts par le présent document déclare que, sauf indication claire du contraire, ces produits ont l‘origine préférentielle</tspan>
  </text>
  <text style="-inkscape-font-specification:Frutiger-LightItalic" transform="matrix(1.33333 0 0 1.33333 53.333 719.987)" font-style="italic" font-weight="300" font-size="8" font-family="Frutiger LT Std">
    <tspan y="0" x="0 3.552 8 9.776 12.44 14.664 18.216 22.664 24.44 28.888 33.336 37.784 41.784 44.008 48.008 52.008 56.008 59.56 62.672 67.12 71.568 73.792 78.24 80.904 82.68 87.128 88.904 93.352 97.352 101.352 103.576">voir colonne «Pays d‘origine»).</tspan>
  </text>
  <text style="-inkscape-font-specification:Frutiger-Light" transform="matrix(1.33333 0 0 1.33333 53.333 739.2)" font-weight="300" font-size="8" font-family="Frutiger LT Std">
    <tspan y="0" x="0 5.336 9.336 12 14.224 19.56 24.008 27.12 29.784 34.232 38.68 41.344 45.344 48.008 50.232 54.68 58.68 61.344 63.568 71.12 75.12 77.784 81.784 86.232 88.456 90.68 94.68 99.128 101.792 104.016 108.464 110.24 114.24 116.464 119.576 121.352 124.904 129.352 131.576 136.024 137.8 141.8 144.912 148.912 152.024 154.248 159.584 163.584 168.032 172.48 176.48 178.256 181.368 185.816 189.816 194.264 196.04 200.04 202.704 204.928 209.376 213.376 216.928 218.704 222.704 227.152 229.816 232.04 234.264 238.264 240.928 244.928 246.704 250.704 253.368 256.032 258.256 260.48 264.928 268.928 272.04 275.152 277.376 281.824 283.6 287.6 290.712 294.712 296.936 304.488 308.488 311.152 315.152 319.6 321.824 324.048 327.16 331.608 337.832 341.832 343.608 346.272 348.496 352.944 354.72 358.272 362.72 365.384 367.608 371.608 376.056 380.504 384.504 387.168 390.28 392.504 396.504 400.952 405.4 409.4 413.848 417.848 422.296 426.296 430.744 432.968 435.192 439.64 442.304 446.304 448.968 452.968 455.632 459.632 464.08 467.632 472.08 476.08 480.528 484.976 489.424 492.536 495.2 496.976 501.424 504.088">Der Ausführer der Waren, auf die sich dieses Handelspapier bezieht, erklärt, dass diese Waren, soweit nicht anders angegeben, präferenzbegünstigte</tspan>
  </text>
  <text style="-inkscape-font-specification:Frutiger-Light" transform="matrix(1.33333 0 0 1.33333 53.333 751.987)" font-weight="300" font-size="8" font-family="Frutiger LT Std">
    <tspan y="0" x="0 2.224 5.336 7.112 11.112 15.56 19.56 21.784 25.784 30.232 34.232 36.008 38.672 42.672 44.896 49.344 53.344 57.344 60.896 64.008 66.232 70.68 72.904 77.352 80.016 81.792 86.24 88.016 92.464 96.464 100.912 103.136 105.36 110.696 113.36 116.472 120.92 123.584 128.032 132.48 136.928 140.04 146.264 150.264 152.928 156.928 161.376 163.6 166.712 168.488 172.936 177.384">(siehe Spalte «Pays d‘origine») Ursprungswaren sind.</tspan>
  </text>
  <text style="-inkscape-font-specification:Frutiger-LightItalic" transform="matrix(1.33333 0 0 1.33333 53.333 771.2)" font-style="italic" font-weight="300" font-size="8" font-family="Frutiger LT Std">
    <tspan y="0" x="0 3.552 5.776 9.776 12.888 17.336 21.784 24.448 27.112 31.112 33.776 38.224 40.888 44.888 47.112 51.56 55.56 57.336 59.112 63.112 65.336 72 76 78.664 82.216 83.992 86.216 89.768 94.216 98.664 101.328 105.328 111.992 116.44 118.216 122.216 124.88 128.88 131.104 135.552 139.552 141.328 143.552 148 150.664 154.664 157.776 161.776 166.224 168.888 172.888 175.112 179.56 184.008 187.56 192.008 198.672 202.672 207.12 209.784 214.232 216.456 220.904 222.68 226.232 230.68 232.456 236.456 239.12 243.12 245.344 248.896 253.344 257.344 259.568 261.792 264.904 268.904 270.68 274.232 278.68 280.904 282.68 287.128 291.576 293.352 296.904 300.904 304.456 306.232 310.68 315.128 319.128 321.352 324.904 329.352 333.8 336.464 339.128 343.128 345.792 347.568 351.568 353.792 356.016 357.792 361.792 364.016 370.68 374.68 377.344 380.896 382.672 384.896 388.008 392.456 396.904 401.352 403.576 408.024 409.8 412.024 416.472 419.136 420.912 425.36 427.136 431.584 435.584 437.808 442.256 444.92 448.92 451.584 455.584 458.248 462.248 466.696 470.248 472.024 476.024 477.8 481.8 484.024 486.248 489.8 493.8 498.248">L‘esportatore delle merci contemplate nel presente documento dichiara che, salvo indicazione contraria, le merci sono di origine preferenziale (vedi</tspan>
  </text>
  <text style="-inkscape-font-specification:Frutiger-LightItalic" transform="matrix(1.33333 0 0 1.33333 53.333 783.987)" font-style="italic" font-weight="300" font-size="8" font-family="Frutiger LT Std">
    <tspan y="0" x="0 3.552 8 9.776 14.224 18.672 23.12 27.12 29.344 33.344 37.344 41.344 44.896 48.008 52.456 56.904 59.128 63.576 66.24 68.016 72.464 74.24 78.688 82.688 86.688 88.912">colonna «Pays d‘origine»).</tspan>
  </text>
  <text style="-inkscape-font-specification:Frutiger-Light" transform="matrix(1.33333 0 0 1.33333 60 831.733)" font-weight="300" font-size="8" font-family="Frutiger LT Std">
    <tspan y="0" x="0 3.552 5.328 9.328 13.776 16 18.224 20.448 25.784 29.784 32.448">Lieu / Date</tspan>
  </text>
  <text style="-inkscape-font-specification:Frutiger-LightItalic" transform="matrix(1.33333 0 0 1.33333 60 845.067)" font-style="italic" font-weight="300" font-size="8" font-family="Frutiger LT Std">
    <tspan y="0" x="0 4.888 6.664 9.328 12.88 15.104 17.328 19.552 24.888 28.888 31.552">City / Date</tspan>
  </text>
  <path d="M126.667 848.667H332" fill="none" stroke="#666" stroke-miterlimit="10" stroke-dasharray="1 1" stroke-width="1.33333"/>
  <text style="-inkscape-font-specification:Frutiger-Light" transform="matrix(1.33333 0 0 1.33333 354.667 831.733)" font-weight="300" font-size="8" font-family="Frutiger LT Std">
    <tspan y="0" x="0 4 5.776 10.224 14.672 18.672 21.336 25.784 28.448 32.448 34.672 36.896 39.12 44.456 48.904">Signature / Nom</tspan>
  </text>
  <text style="-inkscape-font-specification:Frutiger-LightItalic" transform="matrix(1.33333 0 0 1.33333 354.667 845.067)" font-style="italic" font-weight="300" font-size="8" font-family="Frutiger LT Std">
    <tspan y="0" x="0 4 5.776 10.224 14.672 18.672 21.336 25.784 28.448 32.448 34.672 36.896 39.12 44.456 48.456 55.12">Signature / Name</tspan>
  </text>
  <path d="M441.333 848.667h289.334" fill="none" stroke="#666" stroke-miterlimit="10" stroke-dasharray="1 1" stroke-width="1.33333"/>
  <text style="-inkscape-font-specification:Frutiger-Light" transform="matrix(1.33333 0 0 1.33333 53.333 873.733)" font-weight="300" font-size="6" font-family="Frutiger LT Std">
    <tspan y="0" x="0 2.166 3.834 8.166 11.502 12.834 15.498 17.166 19.164 22.5 24.168 27.504 30.504 32.172 34.836 38.172 43.17 46.506 47.838 50.838 52.836 55.836 59.172 60.84 62.172 64.17 65.838 67.836 71.172 74.172 75.84 79.176 81.174 84.51 87.846 91.182 93.846 95.844 98.178 99.846 102.846 104.844 107.844 109.512 112.848 114.846 116.514 119.85 121.848 124.848 126.846 129.846 131.844 134.844 138.18 140.178 141.51 144.51 145.842 147.51 150.846 152.844 154.176 157.512 158.844 162.18 163.848 165.18 168.516 170.184 172.182 175.518 178.518 180.186 182.52 185.52 188.856 191.19 194.19 195.858 199.194 201.192 202.86 204.858 208.194 211.194 212.862 214.86 217.86 219.192 222.192 224.19 225.522 228.858 232.194 233.862 235.86 237.858 240.858 243.858 245.526 247.524 249.522 252.522 255.858 258.858 260.526 263.526 266.862 268.86 271.86 274.86 279.858 282.858 286.194 288.192">¹ Only to be completed if the products are of preferential origin in the sense of the relating free trade agreement.</tspan>
  </text>
  <text style="-inkscape-font-specification:Frutiger-LightItalic" transform="matrix(1.33333 0 0 1.33333 53.333 883.067)" font-style="italic" font-weight="300" font-size="6" font-family="Frutiger LT Std">
    <tspan y="0" x="0 2.166 3.834 7.836 11.172 12.504 14.502 16.17 19.17 21.168 23.166 26.166 27.834 29.832 32.832 37.83 41.166 42.498 43.83 45.498 48.834 52.17 53.502 56.838 60.174 63.174 68.172 71.172 74.508 76.506 78.174 81.51 84.846 87.846 91.182 94.518 96.186 97.518 98.85 100.518 102.852 104.52 107.52 110.856 112.188 114.186 115.854 119.19 122.19 123.858 128.856 131.856 133.854 136.518 139.854 142.854 146.19 149.526 150.858 153.192 156.192 158.526 160.194 163.53 165.198 168.534 170.532 171.864 175.2 176.532 179.868 182.868 184.536 187.872 189.87 192.87 194.868 197.868 199.866 202.866 206.202 208.2 209.532 212.532 213.864 215.196 218.196 219.864 223.2 226.2 229.536 231.87 233.538 234.87 237.87 239.538 241.872 244.872 248.208 250.542 252.21 255.546 258.546 260.214 261.546 263.214 266.214 268.878 271.542 274.878 276.876 280.212 281.88 285.216 288.216 289.884 291.216 292.548 295.884 297.882 300.882 302.55 305.55 308.214 311.55 314.55 317.886 321.222 324.222 325.89 328.554 331.89 333.888 335.886 338.886 341.22 344.556 347.892 351.228 354.564 357.564 360.9 362.898">¹ Doit être rempli uniquement quand il s‘agit de marchandises d‘origine préférentielle dans le sens de l‘accord de libre échange correspondant.</tspan>
  </text>
  <text style="-inkscape-font-specification:Frutiger-Light" transform="matrix(1.33333 0 0 1.33333 53.333 892.133)" font-weight="300" font-size="6" font-family="Frutiger LT Std">
    <tspan y="0" x="0 2.166 3.834 7.836 10.836 12.834 14.832 16.5 19.836 23.172 25.17 26.838 29.838 33.174 35.508 38.844 41.844 43.842 47.178 48.51 49.842 51.84 53.508 58.176 61.176 63.174 66.51 69.51 72.846 74.514 76.182 80.85 83.85 87.186 90.522 92.19 95.19 97.524 99.192 101.526 102.858 105.522 108.858 110.526 113.862 118.86 120.528 124.53 126.528 128.862 132.198 134.196 137.532 140.868 144.204 146.538 151.206 154.206 156.204 159.204 162.54 164.208 165.54 170.538 172.206 175.206 176.538 179.874 183.21 186.21 187.878 191.214 194.214 196.548 198.216 201.216 204.552 206.55 208.884 212.22 214.218 217.218 219.882 223.218 226.218 229.554 232.89 235.89 239.226 240.894 243.558 245.556 248.556 249.888 253.224 256.224 259.56 262.896 265.896 267.228 269.562 272.562 275.898 278.898 282.234 287.232 292.23 295.23 298.566 300.9 302.568 305.904 308.904 312.24 315.576 318.576 319.908 321.906">¹ Darf nur ausgefüllt werden, wenn es sich um Ursprungswaren im Sinne des entsprechenden Freihandelsabkommens handelt.</tspan>
  </text>
  <text style="-inkscape-font-specification:Frutiger-LightItalic" transform="matrix(1.33333 0 0 1.33333 53.333 901.733)" font-style="italic" font-weight="300" font-size="6" font-family="Frutiger LT Std">
    <tspan y="0" x="0 2.166 3.834 7.5 10.5 12.168 14.832 18.168 23.166 26.502 27.834 29.166 32.166 34.164 37.5 39.168 41.502 44.838 46.17 48.168 51.168 54.504 56.502 59.838 61.506 64.842 68.178 71.178 74.514 77.85 81.186 82.854 85.188 86.52 88.188 90.186 92.184 95.184 97.182 99.18 102.18 103.848 107.184 108.516 110.184 113.52 115.518 118.854 122.19 125.526 127.524 129.522 130.854 132.522 135.858 137.856 139.188 142.524 143.856 147.192 150.192 152.19 153.522 155.19 158.19 159.522 161.19 163.524 166.524 169.86 172.194 173.526 175.194 178.53 181.53 182.862 184.53 186.528 189.528 190.86 193.86 195.858 197.19 199.854 203.19 204.858 207.858 210.522 213.186 216.522 218.52 221.856 225.192 226.86 230.196 231.528 233.196 234.528 235.86 239.196 242.196 244.194 247.53 249.198 251.532 254.196 257.196 262.194 265.53 266.862 270.198">¹ Va compilato soltanto quando si tratta di prodotti originari ai sensi del relativo accordo di libero scambio.</tspan>
  </text>
  <path d="M39.333 625.333h721.334M40 624.667v284M39.333 908h721.334M760 624.667v284" fill="none" stroke="#363636" stroke-miterlimit="10" stroke-width="1.33333"/>
  <path d="M40 908h720v52H40z" fill="#e5e5e5"/>
  <text style="-inkscape-font-specification:Frutiger-Light" transform="matrix(1.33333 0 0 1.33333 62.667 929.467)" font-weight="300" font-size="6" font-family="Frutiger LT Std">
    <tspan y="0" x="0 2.664 3.996 6.996 10.332 12 13.668 15.336 19.338 22.338 24.336">Lieu / Date</tspan>
  </text>
  <text style="-inkscape-font-specification:Frutiger-LightItalic" transform="matrix(1.33333 0 0 1.33333 62.667 938.8)" font-style="italic" font-weight="300" font-size="6" font-family="Frutiger LT Std">
    <tspan y="0" x="0 3.666 4.998 6.996 9.66 11.328 12.996 14.664 18.666 21.666 23.664">City / Date</tspan>
  </text>
  <path d="M126.667 944.667h140" fill="none" stroke="#666" stroke-miterlimit="10" stroke-dasharray="1 1" stroke-width="1.33333"/>
  <text style="-inkscape-font-specification:Frutiger-Light" transform="matrix(1.33333 0 0 1.33333 305.333 929.467)" font-weight="300" font-size="6" font-family="Frutiger LT Std">
    <tspan y="0" x="0 4.002 7.338">Nom</tspan>
  </text>
  <text style="-inkscape-font-specification:Frutiger-LightItalic" transform="matrix(1.33333 0 0 1.33333 305.333 938.8)" font-style="italic" font-weight="300" font-size="6" font-family="Frutiger LT Std">
    <tspan y="0" x="0 4.002 7.002 12">Name</tspan>
  </text>
  <path d="M358.667 944.667h140" fill="none" stroke="#666" stroke-miterlimit="10" stroke-dasharray="1 1" stroke-width="1.33333"/>
  <text style="-inkscape-font-specification:Frutiger-Light" transform="matrix(1.33333 0 0 1.33333 536 929.467)" font-weight="300" font-size="6" font-family="Frutiger LT Std">
    <tspan y="0" x="0 3 4.332 7.668 11.004 14.004 16.002 19.338 21.336">Signature</tspan>
  </text>
  <text style="-inkscape-font-specification:Frutiger-LightItalic" transform="matrix(1.33333 0 0 1.33333 536 938.8)" font-style="italic" font-weight="300" font-size="6" font-family="Frutiger LT Std">
    <tspan y="0" x="0 3 4.332 7.668 11.004 14.004 16.002 19.338 21.336">Signature</tspan>
  </text>
  <path d="M600 944.667h140" fill="none" stroke="#666" stroke-miterlimit="10" stroke-dasharray="1 1" stroke-width="1.33333"/>
  <path d="M39.333 908h721.334M40 907.333v53.334M39.333 960h721.334M760 907.333v53.334" fill="none" stroke="#363636" stroke-miterlimit="10" stroke-width="1.33333"/>
  <text style="-inkscape-font-specification:Frutiger-Bold" transform="matrix(1.33333 0 0 1.33333 489.12 975.733)" font-weight="700" font-size="8" font-family="Frutiger LT Std">
    <tspan y="0" x="0 4.448 6.672 12.448 16.896 20.448 22.672 27.12 30.232 34.68 37.792 40.016 44.904 49.792 52.016 56.464 61.352 63.576 68.464 73.352 78.24 82.688 87.576 92.024 94.248 99.136 104.912 107.136 111.584 116.032 118.256 124.032 126.256 130.256 134.704 138.256 141.368 146.256 149.368 153.816 156.04 159.592 164.48 171.592 178.704 183.152 186.264 189.816 192.04 196.488 198.712">4 Déclaration en douane CN 23 &amp; Facture commerciale</tspan>
  </text>
  <text style="-inkscape-font-specification:Frutiger-BoldItalic" transform="matrix(1.33333 0 0 1.33333 515.227 989.067)" font-style="italic" font-weight="700" font-size="8" font-family="Frutiger LT Std">
    <tspan y="0" x="0 4.888 9.776 13.328 16.44 21.328 28.44 31.992 34.216 39.104 43.552 47.104 49.328 53.776 56.888 61.336 64.448 66.672 71.56 76.448 78.672 83.56 89.336 91.56 96.008 100.456 102.68 108.456 110.68 115.568 120.456 127.568 134.68 139.128 142.24 145.792 148.016 152.464 154.688 156.912 159.136 164.024 168.472 173.36 175.584 179.136">Customs declaration CN 23 &amp; Commercial invoice</tspan>
  </text>
</svg>
