<svg xmlns="http://www.w3.org/2000/svg" height="1122.667" width="793.333">
  <defs/>
  <path d="M40 53.333h360v100H40z" fill="#fff"/>
  <text style="-inkscape-font-specification:Frutiger-Bold" transform="matrix(1.33333 0 0 1.33333 46.667 111.333)" font-weight="700" font-size="10" font-family="Frutiger LT Std">
    <tspan y="0" x="0 7.22 12.78 17.22 20 25.56 29.45 35.01 38.9 41.68 47.79 53.9 56.68 62.79 65.57 71.13 76.69 82.8 88.91 92.8 96.69 102.25 106.14 108.92 115.03">Déclaration d‘exportation</tspan>
  </text>
  <text style="-inkscape-font-specification:Frutiger-Bold" transform="matrix(1.33333 0 0 1.33333 46.667 134)" font-weight="700" font-size="10" font-family="Frutiger LT Std">
    <tspan y="0" x="0 5.56 11.12 17.23 23.34 27.23 31.12 33.9 40.01 45.57 50.01 52.79 58.35 62.24 67.8 71.69 74.47 80.58">Export declaration</tspan>
  </text>
  <path d="M39.333 53.333h361.334M40 52.667V154M39.333 153.333h361.334M400 52.667V154" fill="none" stroke="#363636" stroke-miterlimit="10" stroke-width="1.33333"/>
  <text style="-inkscape-font-specification:Frutiger-Bold" transform="matrix(1.33333 0 0 1.33333 46.667 162.8)" font-weight="700" font-size="6" font-family="Frutiger LT Std" fill="#fff">
    <tspan y="0" x="0 3.666 7.332 10.998 13.332 16.668 19.332">Contact</tspan>
  </text>
  <path d="M39.333 153.333h361.334M40 152.667V234M39.333 233.333h361.334M400 152.667V234M399.333 53.333h361.334M400 52.667V234M399.333 233.333h361.334M760 52.667V234" fill="none" stroke="#363636" stroke-miterlimit="10" stroke-width="1.33333"/>
  <text style="-inkscape-font-specification:Frutiger-Bold" transform="matrix(1.33333 0 0 1.33333 46.667 241.467)" font-weight="700" font-size="6" font-family="Frutiger LT Std" fill="#fff">
    <tspan y="0" x="0 3.336 6.672 10.338 13.674 17.34 19.008 21.342 24.678 28.344 30.678 32.346 34.68 36.348 39.684 43.02 46.686 50.352 53.688">Expéditeur / Sender</tspan>
  </text>
  <text style="-inkscape-font-specification:Frutiger-Light" transform="matrix(1.33333 0 0 1.33333 46.667 246.8)" font-weight="300" font-size="6" font-family="Frutiger LT Std">
    <tspan y="0" x="0 3 5.664 9 12 15.336 16.668 18.666 21.666 25.002">Expéditeur</tspan>
  </text>
  <text style="-inkscape-font-specification:Frutiger-LightItalic" transform="matrix(1.33333 0 0 1.33333 46.667 256.133)" font-style="italic" font-weight="300" font-size="6" font-family="Frutiger LT Std">
    <tspan y="0" x="0 3 6 9.336 12.672 15.672">Sender</tspan>
  </text>
  <text style="-inkscape-font-specification:Frutiger-Light" transform="matrix(1.33333 0 0 1.33333 140 255.733)" font-weight="300" font-size="8" font-family="Frutiger LT Std">
    <tspan y="0" x="0 4.8 9.248 13.696 15.92 20.368 24.816 27.04 31.488 35.936 40.384 42.608 47.056 51.504 53.728 58.176">+41 79 276 01 53</tspan>
  </text>
  <text style="-inkscape-font-specification:Frutiger-Light" transform="matrix(1.33333 0 0 1.33333 46.667 269.467)" font-weight="300" font-size="6" font-family="Frutiger LT Std">
    <tspan y="0" x="0 4.002 7.338">Nom</tspan>
  </text>
  <text style="-inkscape-font-specification:Frutiger-LightItalic" transform="matrix(1.33333 0 0 1.33333 46.667 278.8)" font-style="italic" font-weight="300" font-size="6" font-family="Frutiger LT Std">
    <tspan y="0" x="0 4.002 7.002 12">Name</tspan>
  </text>
  <text style="-inkscape-font-specification:Frutiger-Light" transform="matrix(1.33333 0 0 1.33333 140 278.4)" font-weight="300" font-size="8" font-family="Frutiger LT Std">
    <tspan y="0" x="0 4 7.552 12 16 20.448 23.112 27.112">Scheurer</tspan>
  </text>
  <text style="-inkscape-font-specification:Frutiger-Light" transform="matrix(1.33333 0 0 1.33333 46.667 292.133)" font-weight="300" font-size="6" font-family="Frutiger LT Std">
    <tspan y="0" x="0 3 4.998 7.998 11.334 14.67">Prénom</tspan>
  </text>
  <text style="-inkscape-font-specification:Frutiger-LightItalic" transform="matrix(1.33333 0 0 1.33333 46.667 301.467)" font-style="italic" font-weight="300" font-size="6" font-family="Frutiger LT Std">
    <tspan y="0" x="0 2.664 3.996 5.994 8.328 10.326 11.994 15.996 18.996 23.994">First Name</tspan>
  </text>
  <text style="-inkscape-font-specification:Frutiger-Light" transform="matrix(1.33333 0 0 1.33333 140 301.067)" font-weight="300" font-size="8" font-family="Frutiger LT Std">
    <tspan y="0" x="0 4 5.776 8.44 12.888 16 20">Piroska</tspan>
  </text>
  <text style="-inkscape-font-specification:Frutiger-Light" transform="matrix(1.33333 0 0 1.33333 46.667 314.8)" font-weight="300" font-size="6" font-family="Frutiger LT Std">
    <tspan y="0" x="0 3.336 6.672">Rue</tspan>
  </text>
  <text style="-inkscape-font-specification:Frutiger-LightItalic" transform="matrix(1.33333 0 0 1.33333 46.667 324.133)" font-style="italic" font-weight="300" font-size="6" font-family="Frutiger LT Std">
    <tspan y="0" x="0 3 4.998 6.996 9.996 12.996">Street</tspan>
  </text>
  <text style="-inkscape-font-specification:Frutiger-Light" transform="matrix(1.33333 0 0 1.33333 140 319.733)" font-weight="300" font-size="8" font-family="Frutiger LT Std">
    <tspan y="0" x="0 4.888 8.888 13.336 17.784 21.784 23.56 27.56 32.008 34.672 36.448 40.896 45.344 47.568 52.016 56.464">Kappelenring 18a</tspan>
  </text>
  <text style="-inkscape-font-specification:Frutiger-Light" transform="matrix(1.33333 0 0 1.33333 46.667 353.467)" font-weight="300" font-size="6" font-family="Frutiger LT Std">
    <tspan y="0" x="0 4.002 7.002 11.004 12.672 14.34 16.008 18.672 20.004 23.004 26.34 28.008 29.676 31.344 34.344 37.344 40.008">NPA / Lieu / Pays</tspan>
  </text>
  <text style="-inkscape-font-specification:Frutiger-LightItalic" transform="matrix(1.33333 0 0 1.33333 46.667 362.8)" font-style="italic" font-weight="300" font-size="6" font-family="Frutiger LT Std">
    <tspan y="0" x="0 3 4.332 7.332 9 12.666 16.002 19.338 22.338 24.006 25.674 27.342 31.008 32.34 34.338 37.002 38.67 40.338 42.006 45.672 49.008 52.344 55.68 57.678 59.676">ZIP Code / City / Country</tspan>
  </text>
  <text style="-inkscape-font-specification:Frutiger-Light" transform="matrix(1.33333 0 0 1.33333 140 362.4)" font-weight="300" font-size="8" font-family="Frutiger LT Std">
    <tspan y="0" x="0 4.448 8.896 13.344 17.792 20.016 25.352 27.128 31.576 34.24 38.24 40.904 44.904 48.904 53.352 57.8 61.8 63.576 67.576 72.024 74.248 76.912 79.136 84.472">3032 Hinterkappelen - CH</tspan>
  </text>
  <path d="M39.333 233.333h361.334M40 232.667V394M39.333 393.333h361.334M400 232.667V394" fill="none" stroke="#363636" stroke-miterlimit="10" stroke-width="1.33333"/>
  <text style="-inkscape-font-specification:Frutiger-Bold" transform="matrix(1.33333 0 0 1.33333 406.667 241.467)" font-weight="700" font-size="6" font-family="Frutiger LT Std" fill="#fff">
    <tspan y="0" x="0 4.332 7.668 10.332 12.666 14.334 18 21.336 23.67 27.006 28.674 31.008 34.344 36.012 38.346 40.014 44.346 48.012 51.678 54.012 57.348 60.012 62.676 66.012">Destinataire / Addressee</tspan>
  </text>
  <text style="-inkscape-font-specification:Frutiger-Light" transform="matrix(1.33333 0 0 1.33333 406.667 246.8)" font-weight="300" font-size="6" font-family="Frutiger LT Std">
    <tspan y="0" x="0 4.002 7.002 9.336 11.334 12.666 16.002 19.002 21 24 25.332 27.33">Destinataire</tspan>
  </text>
  <text style="-inkscape-font-specification:Frutiger-LightItalic" transform="matrix(1.33333 0 0 1.33333 406.667 256.133)" font-style="italic" font-weight="300" font-size="6" font-family="Frutiger LT Std">
    <tspan y="0" x="0 4.002 7.338 10.674 12.672 15.672 18.006 20.34 23.34">Addressee</tspan>
  </text>
  <text style="-inkscape-font-specification:Frutiger-Light" transform="matrix(1.33333 0 0 1.33333 500 255.733)" font-weight="300" font-size="8" font-family="Frutiger LT Std">
    <tspan y="0" x="0 4.8 9.248 13.696 15.92 20.368 24.816 27.04 31.488 35.936 40.384 44.832 47.056 51.504 55.952 60.4">+49 30 2759 5290</tspan>
  </text>
  <text style="-inkscape-font-specification:Frutiger-Light" transform="matrix(1.33333 0 0 1.33333 406.667 269.467)" font-weight="300" font-size="6" font-family="Frutiger LT Std">
    <tspan y="0" x="0 4.002 7.338">Nom</tspan>
  </text>
  <text style="-inkscape-font-specification:Frutiger-LightItalic" transform="matrix(1.33333 0 0 1.33333 406.667 278.8)" font-style="italic" font-weight="300" font-size="6" font-family="Frutiger LT Std">
    <tspan y="0" x="0 4.002 7.002 12">Name</tspan>
  </text>
  <text style="-inkscape-font-specification:Frutiger-Light" transform="matrix(1.33333 0 0 1.33333 500 278.4)" font-weight="300" font-size="8" font-family="Frutiger LT Std">
    <tspan y="0" x="0 3.552 6.216 10.216 14.216 16.44 20.44 24.888 27.552 30.216 36.44 40.44 43.104 47.104 49.328 52.88 57.328 61.776 66.224 70.672 74.672 77.336 79.112 83.56 88.008 90.232 94.232 98.68 101.344 105.792">Free Software Foundation Europ</tspan>
  </text>
  <text style="-inkscape-font-specification:Frutiger-Light" transform="matrix(1.33333 0 0 1.33333 406.667 292.133)" font-weight="300" font-size="6" font-family="Frutiger LT Std">
    <tspan y="0" x="0 3 4.998 7.998 11.334 14.67">Prénom</tspan>
  </text>
  <text style="-inkscape-font-specification:Frutiger-LightItalic" transform="matrix(1.33333 0 0 1.33333 406.667 301.467)" font-style="italic" font-weight="300" font-size="6" font-family="Frutiger LT Std">
    <tspan y="0" x="0 2.664 3.996 5.994 8.328 10.326 11.994 15.996 18.996 23.994">First Name</tspan>
  </text>
  <text style="-inkscape-font-specification:Frutiger-Light" transform="matrix(1.33333 0 0 1.33333 406.667 314.8)" font-weight="300" font-size="6" font-family="Frutiger LT Std">
    <tspan y="0" x="0 3.336 6.672">Rue</tspan>
  </text>
  <text style="-inkscape-font-specification:Frutiger-LightItalic" transform="matrix(1.33333 0 0 1.33333 406.667 324.133)" font-style="italic" font-weight="300" font-size="6" font-family="Frutiger LT Std">
    <tspan y="0" x="0 3 4.998 6.996 9.996 12.996">Street</tspan>
  </text>
  <text style="-inkscape-font-specification:Frutiger-Light" transform="matrix(1.33333 0 0 1.33333 500 321.867)" font-weight="300" font-size="8" font-family="Frutiger LT Std">
    <tspan y="0" x="0 4 6.664 10.664 15.112 19.56 23.56 28.008 32.456 36.456 40.904 44.016 46.24 50.688 52.912 55.136 59.584 61.808 64.032 68.032 70.696 75.144 78.696">Treppenhaus 2, 5. Stock</tspan>
  </text>
  <text style="-inkscape-font-specification:Frutiger-Light" transform="matrix(1.33333 0 0 1.33333 500 334.653)" font-weight="300" font-size="8" font-family="Frutiger LT Std">
    <tspan y="0" x="0 4 7.552 12 16.448 20.896 25.344 29.344 33.792 36.904 40.904 43.568 45.792 51.128 52.904 54.68 58.68 62.68 64.904 69.352 71.576">Schönhauser Allee 6/7</tspan>
  </text>
  <text style="-inkscape-font-specification:Frutiger-Light" transform="matrix(1.33333 0 0 1.33333 406.667 353.467)" font-weight="300" font-size="6" font-family="Frutiger LT Std">
    <tspan y="0" x="0 4.002 7.002 11.004 12.672 14.34 16.008 18.672 20.004 23.004">NPA / Lieu</tspan>
  </text>
  <text style="-inkscape-font-specification:Frutiger-LightItalic" transform="matrix(1.33333 0 0 1.33333 406.667 362.8)" font-style="italic" font-weight="300" font-size="6" font-family="Frutiger LT Std">
    <tspan y="0" x="0 3 4.332 7.332 9 12.666 16.002 19.338 22.338 24.006 25.674 27.342 31.008 32.34 34.338">ZIP Code / City</tspan>
  </text>
  <text style="-inkscape-font-specification:Frutiger-Light" transform="matrix(1.33333 0 0 1.33333 500 362.4)" font-weight="300" font-size="8" font-family="Frutiger LT Std">
    <tspan y="0" x="0 4.448 8.896 13.344 17.792 22.24 24.464 28.912 32.912 35.576 37.352 39.128">10119 Berlin</tspan>
  </text>
  <text style="-inkscape-font-specification:Frutiger-Light" transform="matrix(1.33333 0 0 1.33333 406.667 376.133)" font-weight="300" font-size="6" font-family="Frutiger LT Std">
    <tspan y="0" x="0 3 6 8.664">Pays</tspan>
  </text>
  <text style="-inkscape-font-specification:Frutiger-LightItalic" transform="matrix(1.33333 0 0 1.33333 406.667 385.467)" font-style="italic" font-weight="300" font-size="6" font-family="Frutiger LT Std">
    <tspan y="0" x="0 3.666 7.002 10.338 13.674 15.672 17.67">Country</tspan>
  </text>
  <text style="-inkscape-font-specification:Frutiger-Light" transform="matrix(1.33333 0 0 1.33333 500 385.067)" font-weight="300" font-size="8" font-family="Frutiger LT Std">
    <tspan y="0" x="0 5.776 9.776 12.44 19.104 23.104 27.552">Germany</tspan>
  </text>
  <path d="M399.333 233.333h361.334M400 232.667V394M399.333 393.333h361.334M760 232.667V394" fill="none" stroke="#363636" stroke-miterlimit="10" stroke-width="1.33333"/>
  <text style="-inkscape-font-specification:Frutiger-Light" transform="matrix(1.33333 0 0 1.33333 406.667 404.4)" font-weight="300" font-size="6" font-family="Frutiger LT Std">
    <tspan y="0" x="0 4.002 7.338 10.674 13.674 15.342 16.674 19.674 24.006 25.674 29.01">Code ISO du</tspan>
  </text>
  <text style="-inkscape-font-specification:Frutiger-Light" transform="matrix(1.33333 0 0 1.33333 406.667 413.987)" font-weight="300" font-size="6" font-family="Frutiger LT Std">
    <tspan y="0" x="0 3 6 8.664 10.998 12.666 15.666 17.664 19.332 23.334 26.334">Pays et NPA</tspan>
  </text>
  <text style="-inkscape-font-specification:Frutiger-LightItalic" transform="matrix(1.33333 0 0 1.33333 406.667 423.067)" font-style="italic" font-weight="300" font-size="6" font-family="Frutiger LT Std">
    <tspan y="0" x="0 3.666 7.002 10.338 13.674 15.672 17.67 20.334 22.002 23.334 26.334 30.666 32.334 36 39.336 42.672">Country ISO Code</tspan>
  </text>
  <text style="-inkscape-font-specification:Frutiger-LightItalic" transform="matrix(1.33333 0 0 1.33333 406.667 432.653)" font-style="italic" font-weight="300" font-size="6" font-family="Frutiger LT Std">
    <tspan y="0" x="0 3 6.336 9.672 11.34 14.34 15.672 18.672 20.34 24.006 27.342 30.678">and ZIP Code</tspan>
  </text>
  <text style="-inkscape-font-specification:Frutiger-Bold" transform="matrix(1.33333 0 0 1.33333 480 420.253)" font-weight="700" font-size="12" font-family="Frutiger LT Std" fill="#666">
    <tspan y="0" x="0 8.664 15.336 18.672 22.668 26.004 32.676 39.348 46.02 52.692">DE - 10119</tspan>
  </text>
  <path d="M399.333 393.333h361.334M400 392.667v48M399.333 440h361.334M760 392.667v48" fill="none" stroke="#363636" stroke-miterlimit="10" stroke-width="1.33333"/>
  <text style="-inkscape-font-specification:Frutiger-Light" transform="matrix(1.33333 0 0 1.33333 406.667 453.467)" font-weight="300" font-size="6" font-family="Frutiger LT Std">
    <tspan y="0" x="0 4.002 6.402 8.07 11.07 14.736 18.738 20.406 22.074 23.742 26.742 31.074 34.41 35.742 37.41 40.746 44.082 45.75 49.086 52.086 54.42 56.418 57.75 61.086 64.086 66.084 69.084 70.416 72.414">N° TVA / EORI du destinataire</tspan>
  </text>
  <text style="-inkscape-font-specification:Frutiger-LightItalic" transform="matrix(1.33333 0 0 1.33333 406.667 462.8)" font-style="italic" font-weight="300" font-size="6" font-family="Frutiger LT Std">
    <tspan y="0" x="0 3.666 7.668 10.668 12.336 14.004 15.672 18.672 23.004 26.34 27.672 29.34 33.342 36.678 38.346 41.682 43.68 45.348 47.346 50.682 53.682 55.35 58.35 61.686 65.022 67.02 70.02 72.354 74.688 77.688">VAT / EORI No of the addressee</tspan>
  </text>
  <path d="M399.333 440h361.334M400 439.333V474M399.333 473.333h361.334M760 439.333V474" fill="none" stroke="#363636" stroke-miterlimit="10" stroke-width="1.33333"/>
  <text style="-inkscape-font-specification:Frutiger-Bold" transform="matrix(1.33333 0 0 1.33333 46.667 401.467)" font-weight="700" font-size="6" font-family="Frutiger LT Std" fill="#fff">
    <tspan y="0" x="0 3.336 6.672 10.338 13.674 15.342 19.008 22.344 24.012 26.676 30.342 34.008 36.342 39.678 43.344 47.01 48.678 51.012 52.68 56.346 60.012 63.678 66.012 69.348 73.014 75.348 77.016 79.35 82.686 86.352">Type de contenu / Content type</tspan>
  </text>
  <text style="-inkscape-font-specification:Frutiger-Light" transform="matrix(1.33333 0 0 1.33333 66.667 402.8)" font-weight="300" font-size="6" font-family="Frutiger LT Std">
    <tspan y="0" x="0 4.002 7.338 10.002 13.338 18.336 21.336 24.672 26.67">Documents</tspan>
  </text>
  <text style="-inkscape-font-specification:Frutiger-LightItalic" transform="matrix(1.33333 0 0 1.33333 66.667 413.467)" font-style="italic" font-weight="300" font-size="6" font-family="Frutiger LT Std">
    <tspan y="0" x="0 4.002 7.338 10.002 13.338 18.336 21.336 24.672 26.67">Documents</tspan>
  </text>
  <text style="-inkscape-font-specification:Frutiger-Light" transform="matrix(1.33333 0 0 1.33333 66.667 424.133)" font-weight="300" font-size="6" font-family="Frutiger LT Std">
    <tspan y="0" x="0 5.334 8.334 10.332 12.996 16.332 19.332 22.668 26.004 27.336 29.67 32.67">Marchandises</tspan>
  </text>
  <text style="-inkscape-font-specification:Frutiger-LightItalic" transform="matrix(1.33333 0 0 1.33333 66.667 434.8)" font-style="italic" font-weight="300" font-size="6" font-family="Frutiger LT Std">
    <tspan y="0" x="0 4.332 7.668 11.004 14.34">Goods</tspan>
  </text>
  <text style="-inkscape-font-specification:Frutiger-Light" transform="matrix(1.33333 0 0 1.33333 161.333 402.8)" font-weight="300" font-size="6" font-family="Frutiger LT Std">
    <tspan y="0" x="0 3 5.664 9 12 15.336 17.334 18.666 19.998 21.33 24.666 28.002">Echantillons</tspan>
  </text>
  <text style="-inkscape-font-specification:Frutiger-LightItalic" transform="matrix(1.33333 0 0 1.33333 161.333 413.467)" font-style="italic" font-weight="300" font-size="6" font-family="Frutiger LT Std">
    <tspan y="0" x="0 3 6 10.998 14.334 15.666 18.666">Samples</tspan>
  </text>
  <text style="-inkscape-font-specification:Frutiger-Light" transform="matrix(1.33333 0 0 1.33333 161.333 424.133)" font-weight="300" font-size="6" font-family="Frutiger LT Std">
    <tspan y="0" x="0 3.336 6.336 8.334 11.67 15.006 17.004 18.672 22.008 25.008 26.676 31.674 34.674 36.672 39.336 42.672 45.672 49.008 52.344 53.676 56.01 59.01">Retour de marchandises</tspan>
  </text>
  <text style="-inkscape-font-specification:Frutiger-LightItalic" transform="matrix(1.33333 0 0 1.33333 161.333 434.8)" font-style="italic" font-weight="300" font-size="6" font-family="Frutiger LT Std">
    <tspan y="0" x="0 3.336 6.336 8.334 11.67 13.668 17.004 20.004 23.34 25.008 29.34 32.676 36.012 39.348">Returned Goods</tspan>
  </text>
  <text style="-inkscape-font-specification:Frutiger-Light" transform="matrix(1.33333 0 0 1.33333 298.667 402.8)" font-weight="300" font-size="6" font-family="Frutiger LT Std">
    <tspan y="0" x="0 4.002 7.002 10.338 13.338 16.338">Cadeau</tspan>
  </text>
  <text style="-inkscape-font-specification:Frutiger-LightItalic" transform="matrix(1.33333 0 0 1.33333 298.667 413.467)" font-style="italic" font-weight="300" font-size="6" font-family="Frutiger LT Std">
    <tspan y="0" x="0 3 4.998 7.998 10.332 13.332 16.668">Present</tspan>
  </text>
  <text style="-inkscape-font-specification:Frutiger-Light" transform="matrix(1.33333 0 0 1.33333 298.667 424.133)" font-weight="300" font-size="6" font-family="Frutiger LT Std">
    <tspan y="0" x="0 4.002 7.338 9.336 11.334">Autre</tspan>
  </text>
  <text style="-inkscape-font-specification:Frutiger-LightItalic" transform="matrix(1.33333 0 0 1.33333 298.667 434.8)" font-style="italic" font-weight="300" font-size="6" font-family="Frutiger LT Std">
    <tspan y="0" x="0 4.332 6.33 9.666 12.666">Other</tspan>
  </text>
  <path d="M39.333 393.333h361.334M40 392.667v48M39.333 440h361.334M400 392.667v48M39.333 473.333h721.334M40 472.667V594M39.333 593.333h721.334M760 472.667V594" fill="none" stroke="#363636" stroke-miterlimit="10" stroke-width="1.33333"/>
  <text style="-inkscape-font-specification:Frutiger-Bold" transform="matrix(1.33333 0 0 1.33333 46.667 481.467)" font-weight="700" font-size="6" font-family="Frutiger LT Std" fill="#fff">
    <tspan y="0" x="0 3.666 7.332 10.998 13.332 16.668 20.334 24 25.668 29.334 32.67 34.338 36.006 37.674 41.01 44.676 48.012 51.678 53.346 55.014 57.348 59.016 62.682 66.348 70.014 72.348 75.684 79.35 83.016 84.684 88.35 91.686 93.354 95.022 96.69 100.026 103.692 107.028 110.694">Contenu de l&apos;envoi / Contenu de l&apos;envoi</tspan>
  </text>
  <text style="-inkscape-font-specification:Frutiger-Light" transform="matrix(1.33333 0 0 1.33333 46.667 482.8)" font-weight="300" font-size="6" font-family="Frutiger LT Std">
    <tspan y="0" x="0 4.332 7.668 10.668 14.004 16.002 17.334 19.332">Quantité</tspan>
  </text>
  <text style="-inkscape-font-specification:Frutiger-LightItalic" transform="matrix(1.33333 0 0 1.33333 46.667 492.133)" font-style="italic" font-weight="300" font-size="6" font-family="Frutiger LT Std">
    <tspan y="0" x="0 4.332 7.668 10.668 14.004 16.002 17.334 19.332">Quantity</tspan>
  </text>
  <text style="-inkscape-font-specification:Frutiger-Light" transform="matrix(1.33333 0 0 1.33333 173.333 482.8)" font-weight="300" font-size="6" font-family="Frutiger LT Std">
    <tspan y="0" x="0 4.002 7.002 9.336 12 13.998 15.33 18.666 20.664 21.996 25.332 28.668 30.336 33.672 36.672 38.67 41.67 43.002 44.334 45.666 48.666 51.666 53.334 56.67 60.006 61.674 64.338 67.674 71.01 73.008 76.008 79.344">Description détaillée du contenu</tspan>
  </text>
  <text style="-inkscape-font-specification:Frutiger-LightItalic" transform="matrix(1.33333 0 0 1.33333 173.333 492.133)" font-style="italic" font-weight="300" font-size="6" font-family="Frutiger LT Std">
    <tspan y="0" x="0 4.002 7.002 9 12 13.332 14.664 17.664 21 22.668 26.004 29.004 31.338 34.002 36 37.332 40.668 42.666 43.998 47.334 50.67 52.338 55.674 57.672 59.34 62.004 65.34 68.676 70.674 73.674 77.01 79.008">Detailed description of contents</tspan>
  </text>
  <text style="-inkscape-font-specification:Frutiger-Light" transform="matrix(1.33333 0 0 1.33333 406.667 482.8)" font-weight="300" font-size="6" font-family="Frutiger LT Std">
    <tspan y="0" x="0 4.002 6.402 8.07 10.068 13.068 15.066 16.398 18.396 21.396 22.728 24.726">N° tarifaire</tspan>
  </text>
  <text style="-inkscape-font-specification:Frutiger-LightItalic" transform="matrix(1.33333 0 0 1.33333 406.667 492.133)" font-style="italic" font-weight="300" font-size="6" font-family="Frutiger LT Std">
    <tspan y="0" x="0 3 6 7.998 9.33 11.328 13.326 14.994 18.996">Tariff No</tspan>
  </text>
  <text style="-inkscape-font-specification:Frutiger-Light" transform="matrix(1.33333 0 0 1.33333 533.333 482.8)" font-weight="300" font-size="6" font-family="Frutiger LT Std">
    <tspan y="0" x="0 3 6.336 7.668 11.004 13.338 15.006 18.342 21.342 23.34 25.008 28.008 31.344 33.012 36.012">Poids net en kg</tspan>
  </text>
  <text style="-inkscape-font-specification:Frutiger-LightItalic" transform="matrix(1.33333 0 0 1.33333 533.333 492.133)" font-style="italic" font-weight="300" font-size="6" font-family="Frutiger LT Std">
    <tspan y="0" x="0 4.002 7.002 9 10.668 15.336 18.336 19.668 23.004 26.34 28.338 30.006 31.338 34.674 36.342 39.342">Net weight in kg</tspan>
  </text>
  <text style="-inkscape-font-specification:Frutiger-Light" transform="matrix(1.33333 0 0 1.33333 600 482.8)" font-weight="300" font-size="6" font-family="Frutiger LT Std">
    <tspan y="0" x="0 3.666 6.666 7.998 10.998 14.334 16.332 18 21 24.336 26.004 30.006 34.008">Valeur en CHF</tspan>
  </text>
  <text style="-inkscape-font-specification:Frutiger-LightItalic" transform="matrix(1.33333 0 0 1.33333 600 492.133)" font-style="italic" font-weight="300" font-size="6" font-family="Frutiger LT Std">
    <tspan y="0" x="0 3.666 6.666 7.998 11.334 14.334 16.002 17.334 20.67 22.338 26.004 30.006">Value in CHF</tspan>
  </text>
  <text style="-inkscape-font-specification:Frutiger-Light" transform="matrix(1.33333 0 0 1.33333 666.667 482.8)" font-weight="300" font-size="6" font-family="Frutiger LT Std">
    <tspan y="0" x="0 3 6 8.664 10.998 12.666 16.002 17.67 21.006 23.004 24.336 27.672 29.004 32.34">Pays d‘origine</tspan>
  </text>
  <text style="-inkscape-font-specification:Frutiger-LightItalic" transform="matrix(1.33333 0 0 1.33333 666.667 492.133)" font-style="italic" font-weight="300" font-size="6" font-family="Frutiger LT Std">
    <tspan y="0" x="0 3.666 7.002 10.338 13.674 15.672 17.67 20.334 22.002 25.338 27.336 29.004 32.34 34.338 35.67 39.006 40.338">Country of origin</tspan>
  </text>
  <text style="-inkscape-font-specification:Frutiger-Light" transform="matrix(1.33333 0 0 1.33333 80.733 509.067)" font-weight="300" font-size="8" font-family="Frutiger LT Std">
    <tspan y="0" x="0">1</tspan>
  </text>
  <text style="-inkscape-font-specification:Frutiger-Light" transform="matrix(1.33333 0 0 1.33333 100 509.067)" font-weight="300" font-size="8" font-family="Frutiger LT Std">
    <tspan y="0" x="0 4 7.552 12 16 17.776 19.552 24 25.776 29.776 32.44 35.104 39.104">Schallplatten</tspan>
  </text>
  <text style="-inkscape-font-specification:Frutiger-Light" transform="matrix(1.33333 0 0 1.33333 559.973 509.067)" font-weight="300" font-size="8" font-family="Frutiger LT Std">
    <tspan y="0" x="0 4.448 6.672 11.12 15.568">0.640</tspan>
  </text>
  <text style="-inkscape-font-specification:Frutiger-Light" transform="matrix(1.33333 0 0 1.33333 626.64 509.067)" font-weight="300" font-size="8" font-family="Frutiger LT Std">
    <tspan y="0" x="0 4.448 8.896 11.12 15.568">12.80</tspan>
  </text>
  <text style="-inkscape-font-specification:Frutiger-Light" transform="matrix(1.33333 0 0 1.33333 666.667 509.067)" font-weight="300" font-size="8" font-family="Frutiger LT Std">
    <tspan y="0" x="0 5.336">CH</tspan>
  </text>
  <path d="M94 473.333v120M400.667 473.333v120M527.333 473.333v120M594 473.333v120M660.667 473.333v120" fill="none" stroke="#666" stroke-width=".666665" stroke-miterlimit="10"/>
  <path d="M40 440h360v33.333H40z" fill="#e5e5e5"/>
  <text style="-inkscape-font-specification:Frutiger-Bold" transform="matrix(1.33333 0 0 1.33333 46.667 448.133)" font-weight="700" font-size="6" font-family="Frutiger LT Std" fill="#e5e5e5">
    <tspan y="0" x="0 3.336 7.002 9.336 12.672">Total</tspan>
  </text>
  <text style="-inkscape-font-specification:Frutiger-LightItalic" transform="matrix(1.33333 0 0 1.33333 46.667 464.133)" font-style="italic" font-weight="300" font-size="6" font-family="Frutiger LT Std">
    <tspan y="0" x="0 3 6.336 8.334 11.334 12.666 14.334 17.67 19.668 23.004 25.338 27.672 29.34 34.008 37.008 38.34 41.676 45.012">Total gross weight</tspan>
  </text>
  <text style="-inkscape-font-specification:Frutiger-Bold" transform="matrix(1.33333 0 0 1.33333 141.333 461.587)" font-weight="700" font-size="12" font-family="Frutiger LT Std" fill="#666">
    <tspan y="0" x="0 6.672">kg</tspan>
  </text>
  <text style="-inkscape-font-specification:Frutiger-Light" transform="matrix(1.33333 0 0 1.33333 46.667 453.467)" font-weight="300" font-size="6" font-family="Frutiger LT Std">
    <tspan y="0" x="0 3 6.336 7.668 11.004 13.338 15.006 18.342 20.34 23.676 25.674 27.342 29.34 32.676 34.674 37.674">Poids brut total</tspan>
  </text>
  <path d="M39.333 440h361.334M40 439.333V474M39.333 473.333h361.334M400 439.333V474" fill="none" stroke="#363636" stroke-miterlimit="10" stroke-width="1.33333"/>
  <text style="-inkscape-font-specification:Frutiger-Light" transform="matrix(1.33333 0 0 1.33333 53.333 608.133)" font-weight="300" font-size="6" font-family="Frutiger LT Std">
    <tspan y="0" x="0 2.664 4.662 7.662 8.994 11.328 12.996 16.332 19.332 21 24.336 27.672 29.67">Frais de port</tspan>
  </text>
  <text style="-inkscape-font-specification:Frutiger-LightItalic" transform="matrix(1.33333 0 0 1.33333 53.333 617.467)" font-style="italic" font-weight="300" font-size="6" font-family="Frutiger LT Std">
    <tspan y="0" x="0 3 6.336 8.67 10.668 13.668 15 16.668 19.332 22.668 25.668 27.666 31.002 34.002">Postal charges</tspan>
  </text>
  <text style="-inkscape-font-specification:Frutiger-Bold" transform="matrix(1.33333 0 0 1.33333 141.333 613.587)" font-weight="700" font-size="12" font-family="Frutiger LT Std">
    <tspan y="0" x="0 6.672 16.008 22.68 31.344">TOTAL</tspan>
  </text>
  <text style="-inkscape-font-specification:Frutiger-Bold" transform="matrix(1.33333 0 0 1.33333 262.667 613.587)" font-weight="700" font-size="12" font-family="Frutiger LT Std" fill="#666">
    <tspan y="0" x="0 6.672 13.344 16.68 23.352 30.024 33.36 40.692 49.356">34.00 CHF</tspan>
  </text>
  <path d="M39.333 593.333h361.334M40 592.667v34.666M39.333 626.667h361.334M400 592.667v34.666" fill="none" stroke="#363636" stroke-miterlimit="10" stroke-width="1.33333"/>
  <text style="-inkscape-font-specification:Frutiger-Light" transform="matrix(1.33333 0 0 1.33333 406.667 606.8)" font-weight="300" font-size="6" font-family="Frutiger LT Std">
    <tspan y="0" x="0 3.666 6.666 7.998 10.998 14.334 16.332 18 21 25.332 28.332 32.334 34.998">Valeur TOTALE</tspan>
  </text>
  <text style="-inkscape-font-specification:Frutiger-LightItalic" transform="matrix(1.33333 0 0 1.33333 406.667 617.467)" font-style="italic" font-weight="300" font-size="6" font-family="Frutiger LT Std">
    <tspan y="0" x="0 3 7.332 10.332 14.334 16.998 18.666 22.332 25.332 26.664 30">TOTAL Value</tspan>
  </text>
  <text style="-inkscape-font-specification:Frutiger-Bold" transform="matrix(1.33333 0 0 1.33333 615.973 614.92)" font-weight="700" font-size="12" font-family="Frutiger LT Std" fill="#666">
    <tspan y="0" x="0 6.672 13.344 16.68 23.352">12.80</tspan>
  </text>
  <text style="-inkscape-font-specification:Frutiger-Bold" transform="matrix(1.33333 0 0 1.33333 662.667 614.92)" font-weight="700" font-size="12" font-family="Frutiger LT Std" fill="#666">
    <tspan y="0" x="0 7.332 15.996">CHF</tspan>
  </text>
  <path d="M399.333 593.333h361.334M400 592.667v34.666M399.333 626.667h361.334M760 592.667v34.666" fill="none" stroke="#363636" stroke-miterlimit="10" stroke-width="1.33333"/>
  <text style="-inkscape-font-specification:Frutiger-Light" transform="matrix(1.33333 0 0 1.33333 46.667 634.8)" font-weight="300" font-size="6" font-family="Frutiger LT Std" fill="#fff">
    <tspan y="0" x="0 3 4.332 7.668 11.004 14.004 16.002 19.338 21.336">Signature</tspan>
  </text>
  <text style="-inkscape-font-specification:Frutiger-Light" transform="matrix(1.33333 0 0 1.33333 46.667 638.987)" font-weight="300" font-size="5" font-family="Frutiger LT Std">
    <tspan y="0" x="0 1.665 4.165 5.555 7.775 10.555 13.335 15 16.11 17.775 21.94 24.44 25.83 28.61 31.11 32.775 34.165 35.275 37.775 39.165 41.945 43.61 46.11 48.055 50.555 53.335 55 57.5 58.89 61.67 64.45 66.95 68.34 69.45 71.95 73.895 75.285 78.065 80.845 83.625 86.405 88.905 91.405 93.35 94.74 96.96 99.74 102.52 104.185 106.685 109.465 112.245 114.745 116.69 118.08 120.86 123.36 126.14 128.085 129.475 130.585 133.085 134.475 137.255 138.92 141.42 143.365 145.865 148.645 150.31 152.81 154.2 156.98 159.48 161.7 162.81 165.31 166.975 169.475 171.14 172.25 175.03 177.81 179.2 181.145 183.925 186.705 188.37 189.76 191.98 194.76 196.425 198.09 200.59 202.81 204.475 206.975 208.92 210.31 211.7 214.48 217.26 219.76 221.15 222.26 223.65 226.15 227.26 228.65 231.43 233.095 234.205 236.15 237.54 239.76 242.54 245.32 248.1 250.6 251.71 253.655 255.6 258.1 260.88 263.1 265.6 266.99 269.77 272.27 274.215 275.605 278.94 282.55 283.94 286.72 289.22 290.61 291.72 294.22 295.61 298.11 300.89 302.835 304.5 307 308.39 311.725 315.06 316.45 318.95 322.285 323.675 326.455 329.235 332.015 333.68 335.07 336.18 338.68 340.07 342.29 343.4 344.51 347.01 349.79 351.455 353.955 355.065 357.565 358.955 361.735 363.4 364.51 366.73 369.23 371.73 373.12 375.62">Je confirme par la présente que les données contenues dans la présente déclaration sont correctes, que j‘ai pris connaissance des CG de la Poste CH SA pour la clientèle privée et</tspan>
  </text>
  <text style="-inkscape-font-specification:Frutiger-Light" transform="matrix(1.33333 0 0 1.33333 46.667 645.867)" font-weight="300" font-size="5" font-family="Frutiger LT Std">
    <tspan y="0" x="0 2.78 5.56 8.06 9.45 10.56 11.95 14.45 17.23 19.45 22.23 23.34 24.73 27.51 30.01 31.4 33.62 36.4 39.18 40.845 41.955 44.455 47.235 48.9 50.29 53.07 55.57 57.515 58.905 61.685 63.075 65.855 68.635 69.745 72.245 73.91 75.3 78.08 80.58 83.36 86.14 88.64 90.305 92.805 95.585 97.805 99.195 100.305 103.085 104.75 107.25 108.915 111.695 112.805 114.47 115.86 118.64 121.14 122.805 124.195 125.305 127.805 129.75 131.14 133.92 135.03 136.695 139.195 141.415 143.08 144.19 146.41 148.91 150.855 152.245 155.025 157.525 158.915 160.025 162.525 163.915 166.415 169.195 171.14 172.805 175.305 176.695 178.085 179.75 182.25 183.64 186.42 188.085 190.585 193.365 196.145 198.09 199.48 201.98 204.2 205.865 208.365 209.755 211.145 213.925 216.705 219.205 220.595 222.815 225.315 226.98 228.37 230.87 233.65 235.87 238.65 239.76 241.15 243.93 246.43 249.21 250.875 252.265 254.765 256.43 258.095 260.595 261.985 264.765 267.545 269.765 272.265 273.93 275.595 276.985 279.765 282.265 285.045 286.99 288.38 289.49 291.99 293.38 295.6 298.1 300.88 302.545 305.045 306.435 309.215 311.715 313.105 315.325 318.105 320.885 322.55 324.215 326.995 328.105 330.605 332.55 333.94 336.72 339.22 340.61 342.555 345.055 347.275 350.055 351.72 352.83 354.495 356.995 358.385 361.165 362.83 365.61 368.39 371.17 373.95 376.45">que l‘envoi ne contient pas d‘objet dangereux interdit par les directives de la Poste. Je prends acte, que cet envoi peut être ouvert dans le cadre de contrôles de sécurité ordonnés</tspan>
  </text>
  <text style="-inkscape-font-specification:Frutiger-Light" transform="matrix(1.33333 0 0 1.33333 46.667 652.747)" font-weight="300" font-size="5" font-family="Frutiger LT Std">
    <tspan y="0" x="0 2.78 5.28 6.945 8.335 9.445 11.945 13.89 15.28 17.78 20.56 22.225 25.005 26.67 27.78 29.445 31.945 33.89">par les autorités.</tspan>
  </text>
  <text style="-inkscape-font-specification:Frutiger-LightItalic" transform="matrix(1.33333 0 0 1.33333 46.667 665.653)" font-style="italic" font-weight="300" font-size="5" font-family="Frutiger LT Std">
    <tspan y="0" x="0 1.11 2.5 5.28 7.78 9.445 11.945 14.725 16.945 18.335 20.555 23.335 26.115 27.78 28.89 30.555 34.72 36.11 37.775 40.555 43.055 44.72 46.11 47.775 50.555 53.055 54.445 55.555 58.335 60 62.78 64.445 68.61 71.11 72.775 73.885 76.665 79.445 80.835 83.615 85.28 88.06 90.28 91.39 94.17 96.67 99.45 100.84 101.95 104.73 106.12 107.785 110.565 113.065 114.455 117.235 118.9 121.4 123.345 125.845 128.625 130.29 131.68 134.46 136.96 139.18 140.29 142.79 144.455 146.955 148.62 149.73 152.51 155.29 156.68 157.79 159.735 161.125 163.345 166.125 167.79 169.455 171.955 174.175 175.84 177.23 178.62 180.285 183.065 185.565 187.23 188.62 189.73 191.12 193.9 196.4 198.62 201.12 202.51 204.175 206.675 209.175 211.955 213.345 215.01 217.79 220.29 221.68 225.29 227.79 230.845 232.235 235.015 236.68 238.07 240.57 243.35 245.295 246.96 248.35 251.405 254.74 256.13 258.35 260.015 262.795 264.185 265.85 268.63 270.295 271.685 274.465 276.13 277.24 279.46 281.96 283.625 286.125 287.515 289.735 292.515 294.46 296.125 298.905 303.07 305.57 307.235 309.18 310.57 311.96 314.46 317.24 320.02 321.41 323.075 325.855 328.355 330.02 332.8 334.465 337.245 339.745 341.135 343.355 346.135 348.915 350.86 351.97 354.75 357.53 361.695 364.195 366.975">I hereby confirm that the information provided in the present declaration is correct, that I have read the GTC of Post CH Ltd for private customers, and that the consignment</tspan>
  </text>
  <text style="-inkscape-font-specification:Frutiger-LightItalic" transform="matrix(1.33333 0 0 1.33333 46.667 672.813)" font-style="italic" font-weight="300" font-size="5" font-family="Frutiger LT Std">
    <tspan y="0" x="0 2.78 5.56 8.06 10.005 11.395 14.175 16.955 18.62 20.01 22.23 25.01 27.79 29.455 31.955 33.065 35.845 37.235 39.735 42.515 44.735 46.125 47.235 48.9 51.4 55.565 57.51 58.9 61.68 63.345 66.125 68.905 70.015 72.795 73.905 75.57 78.07 80.85 82.24 85.02 87.24 88.63 91.41 94.19 96.135 97.8 100.3 101.41 102.8 104.465 106.965 109.745 112.525 113.635 116.135 117.8 118.91 121.69 124.47 126.415 127.805 130.585 131.695 133.085 135.585 137.805 140.305 143.085 145.865 149.755 150.865 153.365 156.145 158.925 161.425 162.815 164.48 167.26 169.76 171.425 172.815 174.48 177.26 178.37 180.315 181.705 183.925 186.705 189.485 191.43 192.54 195.32 198.1 202.265 204.765 207.545 209.21 210.6 214.765 217.265 219.485 220.875 223.655 226.155 227.545 230.325 233.105 235.605 238.385 240.885 243.665 245.055 248.945 250.055 251.72 254.5 255.61 258.39 259.78 261.445 264.225 266.725 268.115 270.335 273.115 275.895 277.56 280.06 282.28 283.945 285.335 288.115 289.78 291.17 293.95 295.615 297.28 298.39 300.61 301.72 304.22 305.33 306.72 308.665 311.165 313.385 316.165 317.83 318.94 320.605 322.825 324.215 326.435 329.215 331.715 333.935 336.435 338.38">does not contain any items prohibited by postal regulations. I acknowledge that this consignment may be opened within the context of official security checks.</tspan>
  </text>
  <text style="-inkscape-font-specification:Frutiger-Light" transform="matrix(1.33333 0 0 1.33333 46.667 688.32)" font-weight="300" font-size="5" font-family="Frutiger LT Std">
    <tspan y="0" x="0 1.11 3.33 6.11 7.5 10.28 12.78 14.725 16.39 18.89 20.555 21.665 24.445 26.945 28.335 31.115 32.225 34.725 36.39 40.555 41.665 43.33 44.72 46.11 48.89 51.39 53.335 55.28 56.67 59.45 60.56 63.06 64.45 67.785 70.565 73.345 75.845 78.625 81.125 83.905 85.295 86.405 89.185 90.575 93.355 95.855 97.52 98.91 101.13 103.91 105.575 106.685 107.795 110.295 113.075 115.575 118.355 121.135 123.635 126.415 127.805 131.14 133.64 136.14 137.25 139.75 141.415 143.915 145.58 146.69 149.47 152.25 153.64 155.305 156.415 158.635 161.415 163.08 164.19 166.97 168.36 170.305 171.415 174.195 176.975 178.365 179.755 182.535 185.035 186.98 188.925 190.315 191.425 193.645 196.425 197.815 200.035 202.815 205.595 206.985 209.765 212.265 215.045 216.435 219.77 223.38 226.16 227.55 230.33 232.83 234.495 235.885 238.385 241.165 243.11 244.775 246.165 249.5 252.835 254.225 257.56 261.17 262.56 264.225 267.005 268.67 270.06 272.56 274.225 275.335 277.555 280.055 281.72 284.22 287 289.78 292.56 295.06 297.84 299.23 302.285 304.785 307.565 310.345 312.01 314.79 315.9 317.845 319.235 322.015 324.515 327.295 330.075 334.24 338.405 340.905 343.685 345.075 347.855 350.355 353.135 355.635 357.025 359.805 362.585 365.365 366.755 369.535 372.035 373.98">Ich bestätige hiermit, dass die Angaben in der vorliegenden Deklaration richtig sind, dass ich von den AGB der Post CH AG für Privatkunden Kenntnis genommen habe und dass</tspan>
  </text>
  <text style="-inkscape-font-specification:Frutiger-Light" transform="matrix(1.33333 0 0 1.33333 46.667 695.2)" font-weight="300" font-size="5" font-family="Frutiger LT Std">
    <tspan y="0" x="0 2.78 3.89 6.39 7.78 10.28 12.78 15.56 18.34 21.12 23.9 26.68 28.07 30.57 33.07 34.18 36.96 39.46 40.85 43.63 46.41 48.075 50.295 53.075 54.465 56.965 59.745 61.69 63.355 65.575 68.355 70.02 71.965 74.185 76.965 78.63 79.74 81.405 83.07 85.57 88.35 89.74 91.96 94.46 96.125 98.905 101.685 103.35 105.85 108.63 111.13 113.91 115.3 118.08 120.58 122.245 124.745 127.525 129.19 130.3 131.41 133.63 136.41 138.91 141.69 143.08 146.69 149.19 151.97 154.47 157.25 159.195 160.86 163.36 166.14 168.92 171.42 172.81 175.31 178.09 179.755 182.535 185.035 186.145 187.81 189.2 190.59 191.7 193.92 196.7 198.09 200.87 203.37 206.15 210.315 212.815 214.205 216.425 219.205 220.87 222.26 225.315 227.815 230.595 233.375 235.04 237.82 238.93 240.875 242.265 243.655 246.435 248.935 250.88 252.825 254.215 256.995 258.105 260.605 262.55 265.05 266.44 268.94 271.44 274.22 277 279.78 282.56 285.34 286.73 287.84 292.005 293.395 296.175 298.675 301.455 305.62 308.12 310.9 312.29 314.51 317.29 320.07 321.46 324.24 326.74 329.52 332.3 333.965 336.745 337.855 338.965 341.185 343.965 345.355 347.855 350.635 353.415 355.915 358.695 360.36 363.14 365.92 368.42 370.085 372.585">die Sendung keine durch Postvorschriften verbotenen gefährlichen Gegenstände enthält. Ich nehme zur Kenntnis, dass diese Sendung im Rahmen von behördlich angeordneten</tspan>
  </text>
  <text style="-inkscape-font-specification:Frutiger-Light" transform="matrix(1.33333 0 0 1.33333 46.667 702.08)" font-weight="300" font-size="5" font-family="Frutiger LT Std">
    <tspan y="0" x="0 2.5 3.61 5.83 8.61 11.11 12.775 15.555 18.055 19.165 20.83 22.775 25.275 28.055 30.835 32.5 34.165 36.945 38.055 39.165 41.665 44.445 45.835 48.615 51.115 53.895 55.56 57.225 60.005 62.505 64.17 65.56 69.45 71.95 73.615 76.395 78.895 81.675 83.065 85.845 88.345 90.01 91.675">Sicherheitskontrollen geöffnet werden darf.</tspan>
  </text>
  <text style="-inkscape-font-specification:Frutiger-LightItalic" transform="matrix(1.33333 0 0 1.33333 46.667 713.653)" font-style="italic" font-weight="300" font-size="5" font-family="Frutiger LT Std">
    <tspan y="0" x="0 3.055 5.835 8.615 10.005 11.115 13.615 15.005 17.785 19.45 21.95 23.895 26.395 29.175 30.84 33.34 34.73 36.95 39.73 42.51 44.175 46.675 48.34 52.505 55.285 56.675 57.785 60.285 61.675 63.895 66.675 68.34 70.005 72.505 74.17 75.835 78.335 80.555 82.775 85.275 86.665 89.445 90.555 93.055 94.445 97.225 99.725 101.39 102.5 103.89 106.11 108.89 111.67 113.335 115.835 118.615 121.395 123.06 124.17 125.56 128.34 130.84 131.95 133.06 135.56 136.95 139.73 141.395 143.895 145.84 148.34 151.12 152.785 155.285 156.675 159.455 160.565 162.785 165.565 166.675 169.175 170.84 173.34 175.56 176.67 179.45 182.23 184.73 186.12 187.51 190.29 191.4 192.79 195.29 197.51 200.01 201.675 203.065 205.845 207.51 210.01 211.955 214.735 216.125 218.625 220.29 221.955 224.735 226.125 228.905 231.405 232.515 233.625 236.125 238.905 241.96 245.57 246.96 249.74 252.24 253.35 254.46 256.96 258.35 260.85 263.63 265.575 267.24 269.74 271.13 274.185 277.52 278.91 281.41 284.745 286.135 288.915 291.415 293.08 294.47 296.69 297.8 298.91 301.41 304.19 305.855 306.965 308.355 311.135 312.8 313.91 316.13 318.63 320.295 321.405 322.795 325.295 326.685 328.905 331.685 334.185 335.575 336.685 338.075 339.185 341.965 344.185 345.295 348.075 349.465 352.245 355.025 357.805 359.195 361.415 364.195 366.975 368.64 369.75 372.25 375.03">Con la presente confermo la correttezza die dati contenuti nella presente dichiarazione, di aver preso atto delle CG della Posta CH SA per clienti privati e che l‘invio non contiene</tspan>
  </text>
  <text style="-inkscape-font-specification:Frutiger-LightItalic" transform="matrix(1.33333 0 0 1.33333 46.667 720.533)" font-style="italic" font-weight="300" font-size="5" font-family="Frutiger LT Std">
    <tspan y="0" x="0 2.78 5.56 8.34 10.84 12.505 14.17 15.28 16.67 19.45 21.95 23.615 24.725 26.945 29.725 30.835 33.615 35.56 36.67 38.06 40.28 41.39 43.89 45.555 48.055 49.72 50.83 52.22 55 57.5 58.61 59.72 62.22 63.61 66.39 67.5 69.445 72.225 75.005 76.95 78.06 80.28 81.39 84.17 86.95 88.06 89.45 92.23 94.73 95.84 96.95 99.45 100.84 103.34 106.12 108.065 109.73 112.23 113.62 115.01 117.51 119.175 121.675 124.455 127.235 130.015 131.405 133.905 135.57 137.235 140.015 141.405 143.625 146.405 148.905 150.295 151.405 152.515 153.905 156.685 158.35 160.85 162.795 165.295 168.075 169.74 172.24 173.63 174.74 177.52 179.74 180.85 183.63 185.02 187.8 190.58 193.36 194.75 197.25 199.195 201.14 203.64 205.305 207.805 209.195 211.695 214.475 216.975 218.64 220.305 223.085 224.475 227.255 229.755 230.865 231.975 233.365 235.865 240.03 242.81 243.92 245.585 248.365 249.755 252.535 253.645 255.035 257.255 260.035 262.815 264.48 266.145 268.925 270.035 271.145 272.255 273.645 276.425 277.535 278.925 280.87 281.98 284.2 286.98 288.645 291.145 293.365 295.585 298.085 299.475 301.695 304.475 308.64 312.805 313.915 315.86 317.805 318.915 321.695 324.475 326.975 328.64 329.75 331.14 333.92 336.42 337.53 338.64 341.14 342.53 345.03 347.81 349.475 352.255 353.92 355.03 356.695 359.195">oggetti pericolosi vietati dalle disposizioni della Posta. Prendo atto che il presente invio può essere aperto nell‘ambito di controlli di sicurezza commissionati dalle autorità.</tspan>
  </text>
  <path d="M39.333 626.667h521.334M40 626v108M39.333 733.333h521.334M560 626v108" fill="none" stroke="#363636" stroke-miterlimit="10" stroke-width="1.33333"/>
  <path d="M560 626.667h200v106.666H560z" fill="#e5e5e5"/>
  <text style="-inkscape-font-specification:Frutiger-Light" transform="matrix(1.33333 0 0 1.33333 566.667 665.467)" font-weight="300" font-size="6" font-family="Frutiger LT Std">
    <tspan y="0" x="0 4.002 7.002 9">Date</tspan>
  </text>
  <path d="M606.667 668.667h140" fill="none" stroke="#666" stroke-miterlimit="10" stroke-dasharray="1 1" stroke-width="1.33333"/>
  <text style="-inkscape-font-specification:Frutiger-Light" transform="matrix(1.33333 0 0 1.33333 566.667 704.133)" font-weight="300" font-size="6" font-family="Frutiger LT Std">
    <tspan y="0" x="0 3 4.332 7.668 11.004 14.004 16.002 19.338 21.336">Signature</tspan>
  </text>
  <path d="M606.667 707.333h140" fill="none" stroke="#666" stroke-miterlimit="10" stroke-dasharray="1 1" stroke-width="1.33333"/>
  <path d="M559.333 626.667h201.334M560 626v108M559.333 733.333h201.334M760 626v108" fill="none" stroke="#363636" stroke-miterlimit="10" stroke-width="1.33333"/>
  <text style="-inkscape-font-specification:Frutiger-Light" transform="matrix(1.33333 0 0 1.33333 46.667 741.467)" font-weight="300" font-size="6" font-family="Frutiger LT Std" fill="#fff">
    <tspan y="0" x="0 3 4.998 7.998 10.332 12.33 15.33 17.328 18.66 21.996 25.332 27.666 29.334 31.998 35.334 40.332 43.668 45 48 52.998 55.998 59.334 61.332 64.332 65.664 67.662 70.662 72.996 74.664 76.332 78 81.666 84.666 85.998 89.334 92.334 94.332 97.332 100.668 104.004 107.004 110.34 112.008 114.342 117.342 119.34 122.004 123.336 126 129">Prestations complémentaires / Value-added services</tspan>
  </text>
  <text style="-inkscape-font-specification:Frutiger-Light" transform="matrix(1.33333 0 0 1.33333 46.667 746.8)" font-weight="300" font-size="6" font-family="Frutiger LT Std">
    <tspan y="0" x="0 3 4.998 7.998 10.332 12.33 15.33 17.328 18.66 21.996 25.332 27.666 29.334 31.998 35.334 40.332 43.668 45 48 52.998 55.998 59.334 61.332 64.332 65.664 67.662 70.662">Prestations complémentaires</tspan>
  </text>
  <text style="-inkscape-font-specification:Frutiger-LightItalic" transform="matrix(1.33333 0 0 1.33333 46.667 756.133)" font-style="italic" font-weight="300" font-size="6" font-family="Frutiger LT Std">
    <tspan y="0" x="0 3.666 6.666 7.998 11.334 14.334 16.332 19.332 22.668 26.004 29.004 32.34 34.008 36.342 39.342 41.34 44.004 45.336 48 51">Value-added services</tspan>
  </text>
  <text style="-inkscape-font-specification:Frutiger-Light" transform="matrix(1.33333 0 0 1.33333 196 746.8)" font-weight="300" font-size="6" font-family="Frutiger LT Std">
    <tspan y="0" x="0 3 4.998 8.334 10.002 14.004 15.336 16.668 21.666">Pro Clima</tspan>
  </text>
  <text style="-inkscape-font-specification:Frutiger-LightItalic" transform="matrix(1.33333 0 0 1.33333 196 756.133)" font-style="italic" font-weight="300" font-size="6" font-family="Frutiger LT Std">
    <tspan y="0" x="0 3 4.998 8.334 10.002 13.668 15 16.332 21.33">Pro Clima</tspan>
  </text>
  <text style="-inkscape-font-specification:Frutiger-Light" transform="matrix(1.33333 0 0 1.33333 305.333 746.8)" font-weight="300" font-size="6" font-family="Frutiger LT Std">
    <tspan y="0" x="0 3 6.336 9 12.336 17.334 20.67 22.668 25.668 29.004">Encombrant</tspan>
  </text>
  <text style="-inkscape-font-specification:Frutiger-LightItalic" transform="matrix(1.33333 0 0 1.33333 305.333 756.133)" font-style="italic" font-weight="300" font-size="6" font-family="Frutiger LT Std">
    <tspan y="0" x="0 3.336 6.672 8.004 11.004">Bulky</tspan>
  </text>
  <text style="-inkscape-font-specification:Frutiger-Light" transform="matrix(1.33333 0 0 1.33333 414.667 746.8)" font-weight="300" font-size="6" font-family="Frutiger LT Std">
    <tspan y="0" x="0 3 4.998 7.998 9.33 11.328 14.328 19.326 22.326 25.662 27.66 29.328 34.326 37.326 40.662 43.998 46.998 48.33 49.998 55.332 59.334">Traitement manuel MAN</tspan>
  </text>
  <text style="-inkscape-font-specification:Frutiger-LightItalic" transform="matrix(1.33333 0 0 1.33333 414.667 756.133)" font-style="italic" font-weight="300" font-size="6" font-family="Frutiger LT Std">
    <tspan y="0" x="0 5.334 8.334 11.67 15.006 18.006 19.338 21.006 23.004 25.002 28.002 31.002 33 37.998 40.998 44.334 46.332 48 53.334 57.336">Manual treatment MAN</tspan>
  </text>
  <path d="M39.333 733.333h721.334M40 732.667v34.666M39.333 766.667h721.334M760 732.667v34.666" fill="none" stroke="#363636" stroke-miterlimit="10" stroke-width="1.33333"/>
  <text style="-inkscape-font-specification:Frutiger-Light" transform="matrix(1.33333 0 0 1.33333 46.667 774.8)" font-weight="300" font-size="6" font-family="Frutiger LT Std" fill="#fff">
    <tspan y="0" x="0 3.336 6.336 8.334 11.67 15.006 17.004 18.672 20.34 22.008 25.344 28.344 30.342 33.678 35.676">Retour / Return</tspan>
  </text>
  <text style="-inkscape-font-specification:Frutiger-Light" transform="matrix(1.33333 0 0 1.33333 46.667 781.733)" font-weight="300" font-size="6" font-family="Frutiger LT Std">
    <tspan y="0" x="0 4.002 7.338 12.336 17.334 20.334 23.67 25.668 27.336 30 33.336 35.334 37.332 40.332 42 45 48.336 51 54.336 55.668 57.336 60.672 64.008 65.34 67.338 69.336 70.668 72 73.668 76.668 78.666 80.664 83.664 85.332 87.33 89.328 92.328 93.66 95.658 98.658 100.326 101.658 104.994 106.992 109.326 112.662 115.998 117.666 118.998 120.33 121.998 125.334 128.334 130.002 133.338 136.338 139.674 141.672 143.34 146.676 149.676 152.01 153.678 156.678 158.676 160.674 163.674 165.342 168.678 170.01 172.344 174.342 176.34 177.672 181.008 184.344 187.344 189.012 192.012">Comment votre envoi doit-il être traité lorsqu’il ne peut pas être distribué au</tspan>
  </text>
  <text style="-inkscape-font-specification:Frutiger-Light" transform="matrix(1.33333 0 0 1.33333 46.667 791.32)" font-weight="300" font-size="6" font-family="Frutiger LT Std">
    <tspan y="0" x="0 3.336 6.336 8.67 10.668 12 15.336 18.336 20.334 23.334 24.666 26.664 29.664 32.664 34.332 36 38.664 40.332 43.332 45.996 49.332 52.332 55.668 57 58.998 61.998 65.334 67.332 69 72 74.334 76.332 78 80.664 84 87.336 89.334 92.334 94.998 96.996 99.996 101.664 102.996 106.332 108.33 110.664 114 117.336 119.004 120.336 121.668 123.336 125.67 127.338 130.338 133.674 135.006 137.004 138.672 142.008 143.676 147.012 150.348 152.016 155.016 158.352 161.016 164.352 165.684 167.352 171.354 174.69 179.022 182.022 186.024 189.024 190.692 192.36 194.028 197.364 200.364 202.362 205.698 209.034">destinataire? (L’expéditeur est contacté lorsqu’il s’agit d’un envoi URGENT / Retour</tspan>
  </text>
  <text style="-inkscape-font-specification:Frutiger-Light" transform="matrix(1.33333 0 0 1.33333 46.667 800.92)" font-weight="300" font-size="6" font-family="Frutiger LT Std">
    <tspan y="0" x="0 3.336 6.336 9 12 15.336 17.334">payant)</tspan>
  </text>
  <text style="-inkscape-font-specification:Frutiger-LightItalic" transform="matrix(1.33333 0 0 1.33333 46.667 817.733)" font-style="italic" font-weight="300" font-size="6" font-family="Frutiger LT Std">
    <tspan y="0" x="0 4.002 7.338 12.006 13.674 16.008 19.344 22.68 26.016 27.348 30.684 32.352 35.016 38.352 41.688 43.686 45.354 48.018 51.354 54.69 57.024 58.356 61.692 65.028 70.026 73.026 76.362 78.36 80.694 82.362 85.698 88.698 90.366 93.702 96.702 100.038 103.374 104.706 107.706 111.042 112.71 114.042 116.04 117.708 121.044 124.38 127.716 130.716 132.048 133.38 136.044 139.044 141.042 144.042 147.378">How should your consignments be handled if undelivered?</tspan>
  </text>
  <text style="-inkscape-font-specification:Frutiger-LightItalic" transform="matrix(1.33333 0 0 1.33333 46.667 827.32)" font-style="italic" font-weight="300" font-size="6" font-family="Frutiger LT Std">
    <tspan y="0" x="0 1.668 4.332 7.668 9.666 11.334 15.336 18.672 23.004 26.004 30.006 33.006 34.674 37.338 40.674 44.01 46.344 47.676 51.012 54.348 59.346 62.346 65.682 67.68 70.014 71.682 73.35 75.348 78.684 81.684 83.352 85.686 88.686 92.022 95.358 98.358 100.356 102.024 106.692 108.024 109.356 110.688 112.356 115.692 118.692 120.36 123.024 126.36 129.696 131.694 134.694 137.358 139.356 142.356 145.692 147.36 149.028 150.696 154.032 157.032 159.03 162.366 164.364 167.7 169.368 171.702 175.038 178.374 179.706 182.706 185.37 187.368 189.036 191.034 194.37 196.038 199.038 200.706 203.37 206.706 209.706 211.704 215.04 218.04">(For URGENT consignments, the sender will be contacted / Return subject to a charge)</tspan>
  </text>
  <text style="-inkscape-font-specification:Frutiger-Light" transform="matrix(1.33333 0 0 1.33333 66.667 848.133)" font-weight="300" font-size="6" font-family="Frutiger LT Std">
    <tspan y="0" x="0 3 7.002 11.334 15.336 19.668 25.002 28.668">ECONOMY:</tspan>
  </text>
  <text style="-inkscape-font-specification:Frutiger-Light" transform="matrix(1.33333 0 0 1.33333 66.667 858.8)" font-weight="300" font-size="6" font-family="Frutiger LT Std">
    <tspan y="0" x="0 3.336 6.336 8.334 11.67 15.006 17.004 20.34 23.34 25.338 27.006 28.338 30.006 33.006 36.342 39.006 42.342 43.674 45.342 48.342 50.01 51.342 53.01 56.01 58.674 62.01 65.01 68.346 69.678 71.676 74.676 78.012 80.01 81.678 84.678 88.014 89.682 94.68 98.016 101.352 104.352 106.02 109.02 113.022 117.354 121.356 125.688 131.022 134.688 136.356 138.024 141.36 144.36 147.024 150.024 153.36 155.358">Retourner l’envoi à l’expéditeur en mode ECONOMY (payant)</tspan>
  </text>
  <text style="-inkscape-font-specification:Frutiger-LightItalic" transform="matrix(1.33333 0 0 1.33333 66.667 869.733)" font-style="italic" font-weight="300" font-size="6" font-family="Frutiger LT Std">
    <tspan y="0" x="0 3.336 6.336 8.334 11.67 13.668 17.004 18.672 20.67 24.006 25.674 28.008 31.008 34.344 37.68 40.68 42.678 44.346 49.014 50.346 52.344 55.68 57.348 60.348 64.014 68.346 72.348 76.68 82.014 85.68 87.348 90.684 93.684 97.02 100.356 101.688 103.02 106.356 109.692 111.36 113.028 115.362 118.698 122.034 123.366 126.366 129.03 131.028 132.696 134.694 138.03 139.698 142.698 144.366 147.03 150.366 153.366 155.364 158.7 161.7">Return to sender with ECONOMY handling (subject to a charge)</tspan>
  </text>
  <text style="-inkscape-font-specification:Frutiger-Light" transform="matrix(1.33333 0 0 1.33333 66.667 885.467)" font-weight="300" font-size="6" font-family="Frutiger LT Std">
    <tspan y="0" x="0 3 6.336 7.668 12 15.336 16.668 19.668 23.334">PRIORITY:</tspan>
  </text>
  <text style="-inkscape-font-specification:Frutiger-Light" transform="matrix(1.33333 0 0 1.33333 66.667 896.133)" font-weight="300" font-size="6" font-family="Frutiger LT Std">
    <tspan y="0" x="0 3.336 6.336 8.334 11.67 15.006 17.004 20.34 23.34 25.338 27.006 28.338 30.006 33.006 36.342 39.006 42.342 43.674 45.342 48.342 50.01 51.342 53.01 56.01 58.674 62.01 65.01 68.346 69.678 71.676 74.676 78.012 80.01 81.678 84.678 88.014 89.682 94.68 98.016 101.352 104.352 106.02 109.02 112.356 113.688 118.02 121.356 122.688 125.688 129.354 131.022 132.69 136.026 139.026 141.69 144.69 148.026 150.024">Retourner l’envoi à l’expéditeur en mode PRIORITY (payant)</tspan>
  </text>
  <text style="-inkscape-font-specification:Frutiger-LightItalic" transform="matrix(1.33333 0 0 1.33333 66.667 905.467)" font-style="italic" font-weight="300" font-size="6" font-family="Frutiger LT Std">
    <tspan y="0" x="0 3.336 6.336 8.334 11.67 13.668 17.004 18.672 20.67 24.006 25.674 28.008 31.008 34.344 37.68 40.68 42.678 44.346 49.014 50.346 52.344 55.68 57.348 60.348 63.684 65.016 69.348 72.684 74.016 77.016 80.682 82.35 85.686 88.686 92.022 95.358 96.69 98.022 101.358 104.694 106.362 108.03 110.364 113.7 117.036 118.368 121.368 124.032 126.03 127.698 129.696 133.032 134.7 137.7 139.368 142.032 145.368 148.368 150.366 153.702 156.702">Return to sender with PRIORITY handling (subject to a charge)</tspan>
  </text>
  <text style="-inkscape-font-specification:Frutiger-LightItalic" transform="matrix(1.33333 0 0 1.33333 66.667 928.133)" font-style="italic" font-weight="300" font-size="6" font-family="Frutiger LT Std">
    <tspan y="0" x="0 4.002 7.002 8.67 12.006 15.006 17.34 19.008 21.006 24.006 26.004 29.34 32.676 34.674 38.01 41.01 43.008 44.676 46.008 47.676 50.676 54.012 56.676 60.012 61.344 63.012 64.68 67.68 71.016 74.016 77.352 80.688 84.024 87.36 89.028 92.364 95.7 97.368 100.032 103.368 106.704 108.702 111.702 115.038 118.374">Ne pas retourner l’envoi (abandon du contenu)</tspan>
  </text>
  <text style="-inkscape-font-specification:Frutiger-LightItalic" transform="matrix(1.33333 0 0 1.33333 66.667 937.467)" font-style="italic" font-weight="300" font-size="6" font-family="Frutiger LT Std">
    <tspan y="0" x="0 1.332 3.33 6.33 11.328 13.662 15.33 18.666 22.002 24 25.668 27.666 31.002 32.67 36.006 39.006 40.674 42.672 45.672 47.67 51.006 53.004 56.34 59.34 62.676 64.344 66.012 69.348 72.684 74.352 77.016 78.348 81.348 82.68 87.678 89.346 92.682 96.018 97.686 100.35 103.686 107.022 109.02 112.02 115.356 117.354 119.688">Items not to be returned (no claim on contents)</tspan>
  </text>
  <path d="M39.333 766.667h321.334M40 766v188M39.333 953.333h321.334M360 766v188" fill="none" stroke="#363636" stroke-miterlimit="10" stroke-width="1.33333"/>
  <text style="-inkscape-font-specification:Frutiger-Light" transform="matrix(1.33333 0 0 1.33333 378.667 780.133)" font-weight="300" font-size="6" font-family="Frutiger LT Std" fill="#fff">
    <tspan y="0" x="0 3 4.998 6.33 8.994 10.662 12.33 13.998 16.998 18.996 20.328 22.992">Prix / Price</tspan>
  </text>
  <text style="-inkscape-font-specification:Frutiger-Light" transform="matrix(1.33333 0 0 1.33333 380 811.733)" font-weight="300" font-size="8" font-family="Frutiger LT Std">
    <tspan y="0" x="0 4 6.664 8.44">Prix</tspan>
  </text>
  <text style="-inkscape-font-specification:Frutiger-LightItalic" transform="matrix(1.33333 0 0 1.33333 380 825.067)" font-style="italic" font-weight="300" font-size="8" font-family="Frutiger LT Std">
    <tspan y="0" x="0 4 6.664 8.44 11.992">Price</tspan>
  </text>
  <text style="-inkscape-font-specification:Frutiger-Light" transform="matrix(1.33333 0 0 1.33333 508.4 822.92)" font-weight="300" font-size="12" font-family="Frutiger LT Std" fill="#666">
    <tspan y="0" x="0 6.672 13.344 16.68 23.352 30.024 33.36 41.364 49.368">34.00 CHF</tspan>
  </text>
  <text style="-inkscape-font-specification:Frutiger-Light" transform="matrix(1.33333 0 0 1.33333 380 859.733)" font-weight="300" font-size="8" font-family="Frutiger LT Std">
    <tspan y="0" x="0 4 8.448 12.896 17.344 19.12 23.12 29.784 33.784 38.232">Supplément</tspan>
  </text>
  <text style="-inkscape-font-specification:Frutiger-LightItalic" transform="matrix(1.33333 0 0 1.33333 380 873.067)" font-style="italic" font-weight="300" font-size="8" font-family="Frutiger LT Std">
    <tspan y="0" x="0 4 7.552 10.216 12.88 16.88 19.104 23.992 28.44 32.44 35.104 39.552">Extra Charge</tspan>
  </text>
  <text style="-inkscape-font-specification:Frutiger-Light" transform="matrix(1.33333 0 0 1.33333 515.973 870.92)" font-weight="300" font-size="12" font-family="Frutiger LT Std" fill="#666">
    <tspan y="0" x="0 6.672 10.008 16.68 23.352 26.688 34.692 42.696">0.00 CHF</tspan>
  </text>
  <text style="-inkscape-font-specification:Frutiger-Bold" transform="matrix(1.33333 0 0 1.33333 380 919.987)" font-weight="700" font-size="8" font-family="Frutiger LT Std">
    <tspan y="0" x="0 4.448 10.672 15.12 20.896">TOTAL</tspan>
  </text>
  <text style="-inkscape-font-specification:Frutiger-Bold" transform="matrix(1.33333 0 0 1.33333 506.187 916.253)" font-weight="700" font-size="12" font-family="Frutiger LT Std" fill="#666">
    <tspan y="0" x="0 6.672 13.344 16.68 23.352 30.024 33.36 40.692 49.356">34.00 CHF</tspan>
  </text>
  <path d="M359.333 766.667h401.334M360 766v188M359.333 953.333h401.334M760 766v188" fill="none" stroke="#363636" stroke-miterlimit="10" stroke-width="1.33333"/>
  <text style="-inkscape-font-specification:Frutiger-Bold" transform="matrix(1.33333 0 0 1.33333 621.893 975.733)" font-weight="700" font-size="8" font-family="Frutiger LT Std">
    <tspan y="0" x="0 4.448 6.672 12.448 16.896 20.448 22.672 27.12 30.232 34.68 37.792 40.016 44.904 49.792 52.016 56.904 59.128 63.576 68.024 72.912 77.8 80.912 84.024 88.472 91.584 93.808 98.696">3 Déclaration d‘exportation</tspan>
  </text>
  <text style="-inkscape-font-specification:Frutiger-BoldItalic" transform="matrix(1.33333 0 0 1.33333 667.533 989.067)" font-style="italic" font-weight="700" font-size="8" font-family="Frutiger LT Std">
    <tspan y="0" x="0 4.448 8.896 13.784 18.672 21.784 24.896 27.12 32.008 36.456 40.008 42.232 46.68 49.792 54.24 57.352 59.576 64.464">Export declaration</tspan>
  </text>
</svg>
